<?xml version="1.0" standalone="no"?>
<!DOCTYPE svg PUBLIC "-//W3C//DTD SVG 20010904//EN"
 "http://www.w3.org/TR/2001/REC-SVG-20010904/DTD/svg10.dtd">
<svg version="1.0" xmlns="http://www.w3.org/2000/svg"
 width="512.000000pt" height="512.000000pt" viewBox="0 0 512.000000 512.000000"
 preserveAspectRatio="xMidYMid meet">

<g transform="translate(0.000000,512.000000) scale(0.100000,-0.100000)"
fill="#000000" stroke="none">
<path d="M0 4450 c0 -368 2 -670 4 -670 2 0 15 17 27 38 54 87 123 174 152
189 47 25 189 24 244 -1 38 -17 80 -60 76 -77 -1 -3 11 -21 27 -40 23 -27 31
-32 41 -21 15 14 79 17 79 3 0 -6 19 -12 43 -15 183 -21 272 -29 337 -30 41
-1 80 -4 85 -7 6 -4 33 -9 60 -13 28 -4 64 -14 81 -23 42 -22 56 -14 93 50 30
52 34 55 123 90 78 31 162 56 189 57 4 0 10 -11 13 -24 11 -45 57 -42 69 5 8
29 -26 59 -66 59 -36 0 -191 -41 -222 -58 -28 -16 -97 -43 -101 -39 -5 5 41
126 52 137 5 5 27 16 49 23 30 11 41 21 50 48 11 32 14 34 66 37 47 3 59 8 92
40 22 20 57 64 80 97 22 33 42 62 44 65 3 3 17 -10 32 -29 27 -33 27 -33 59
-17 l32 16 85 -81 86 -82 -26 -27 c-33 -35 -34 -62 0 -30 14 13 27 21 30 18 3
-3 -2 -11 -10 -18 -14 -12 -9 -21 45 -75 l61 -62 -7 -61 c-3 -34 -10 -62 -13
-62 -4 0 -19 24 -33 53 -44 90 -152 250 -195 288 -44 40 -100 63 -135 56 -18
-3 -17 -5 7 -6 63 -3 133 -66 221 -203 47 -72 134 -244 134 -264 0 -8 -10 -18
-21 -25 -17 -9 -24 -8 -38 6 -15 16 -15 17 5 7 11 -6 26 -7 33 -3 10 6 6 24
-19 75 -17 37 -39 80 -49 96 l-18 30 -33 -60 c-19 -33 -44 -67 -56 -75 -21
-14 -24 -13 -43 13 -11 15 -21 22 -21 15 0 -6 4 -14 9 -17 5 -4 -3 -19 -17
-35 -15 -16 -38 -43 -50 -60 l-24 -31 -31 26 c-18 15 -47 33 -66 41 -30 13
-39 13 -76 -2 -42 -16 -126 -94 -174 -163 -19 -28 -20 -33 -7 -38 26 -10 18
-23 -19 -30 -28 -5 -35 -11 -35 -29 0 -14 -7 -25 -20 -28 -11 -3 -20 -13 -20
-24 0 -15 2 -16 11 -3 9 12 10 11 4 -5 -16 -49 -44 -143 -51 -170 -6 -24 -8
-26 -11 -10 -9 46 -12 49 -34 29 -14 -12 -18 -26 -15 -43 3 -14 -1 -37 -8 -51
-13 -23 -14 -21 -11 35 2 33 10 83 19 110 9 28 16 58 16 67 0 9 -25 40 -55 69
-30 29 -53 55 -50 57 3 3 25 -13 48 -36 42 -41 67 -53 67 -31 0 30 63 159 81
164 24 8 26 67 3 86 -10 8 -43 14 -83 15 -36 0 -147 11 -246 23 -99 13 -228
23 -287 24 -58 1 -110 6 -115 10 -9 10 -71 37 -84 37 -5 0 -6 -13 -3 -28 6
-27 5 -28 -35 -24 -23 2 -41 0 -41 -6 0 -10 -114 -82 -130 -82 -5 0 -16 13
-25 29 -19 38 -58 68 -104 81 -31 9 -38 7 -51 -8 -9 -10 -20 -17 -26 -15 -6 2
-28 -8 -49 -22 -26 -18 -36 -21 -32 -11 11 27 0 18 -37 -34 l-36 -50 0 -328
c1 -319 2 -327 22 -349 12 -13 32 -23 45 -23 36 0 94 28 133 63 l35 32 -35
-38 c-52 -57 -101 -80 -156 -71 l-44 6 0 -191 c0 -131 3 -190 10 -186 6 4 8
16 4 28 -7 22 -7 22 15 3 l22 -20 -26 -15 -25 -16 0 -165 0 -165 31 -33 c25
-27 37 -32 56 -27 21 5 34 -4 84 -57 32 -35 59 -67 59 -72 0 -5 20 -28 44 -50
24 -23 83 -86 130 -140 91 -104 94 -115 31 -116 -16 0 -79 -9 -140 -20 -60
-11 -111 -20 -112 -20 -2 0 -3 -10 -3 -22 0 -12 18 -48 41 -81 23 -32 40 -60
38 -61 -2 -2 -15 -9 -28 -16 -30 -15 -25 -20 -144 155 l-82 120 -3 -61 c-3
-58 -1 -64 53 -149 30 -48 55 -92 55 -97 0 -6 18 -7 42 -3 40 5 42 5 24 -10
-30 -23 -55 -18 -74 15 -9 17 -36 61 -59 98 l-42 67 -1 -230 0 -230 38 -25
c36 -24 36 -25 12 -28 -41 -6 -42 -17 -1 -17 30 0 48 -9 94 -49 31 -27 57 -46
57 -43 0 9 70 -22 101 -46 16 -11 29 -26 29 -31 1 -35 16 -37 100 -16 46 12
93 27 105 33 11 6 27 10 35 9 12 -2 12 -1 2 6 -14 10 -5 45 10 36 5 -3 19 5
32 18 15 17 38 27 71 31 26 4 51 5 53 2 3 -3 -5 -5 -18 -5 l-24 0 28 -29 c16
-16 38 -32 50 -35 14 -3 21 -14 22 -30 2 -33 -31 -41 -64 -16 l-25 20 -36 -33
c-26 -23 -68 -43 -137 -66 -99 -33 -101 -33 -135 -16 -43 22 -102 67 -156 118
-39 37 -45 39 -68 29 -41 -19 -50 -15 -112 39 l-58 51 -3 -118 c-2 -71 1 -121
8 -128 13 -13 13 -39 0 -31 -5 3 -10 2 -10 -4 0 -6 8 -15 19 -20 19 -10 35
-40 27 -48 -2 -3 -14 0 -25 6 -20 11 -20 11 -21 -379 l0 -390 1089 0 c863 0
1090 3 1094 13 3 9 7 9 19 -1 12 -9 68 -12 231 -10 l215 3 -60 75 c-33 41 -85
103 -116 138 -30 35 -53 65 -51 67 4 4 182 -197 229 -257 l21 -28 321 0 320 0
-38 53 c-60 83 -115 157 -176 234 -53 68 -56 75 -47 105 5 18 9 34 9 35 0 2 4
3 9 3 5 0 5 -12 -1 -28 -10 -26 -6 -35 58 -118 81 -106 88 -116 155 -211 l50
-73 665 0 c530 0 664 3 658 12 -44 72 -77 106 -116 118 -24 8 -45 14 -48 15
-14 2 -83 55 -72 55 6 0 12 4 12 9 0 11 -68 12 -75 1 -3 -5 -1 -11 5 -15 5 -3
10 -12 10 -18 0 -7 -7 -3 -15 7 -8 10 -12 22 -10 26 3 4 -12 16 -33 25 -52 24
-100 72 -129 129 l-24 48 23 16 c50 35 68 61 68 97 0 21 5 35 13 35 8 0 7 3
-3 9 -21 14 -30 4 -31 -32 0 -18 -3 -26 -6 -19 -2 6 -11 12 -19 12 -17 0 -17
-5 -4 -29 7 -15 3 -25 -24 -49 l-33 -30 -21 27 c-22 27 -101 134 -185 251 -25
36 -76 103 -112 149 -36 47 -65 88 -65 93 0 4 8 8 17 8 9 0 24 6 32 14 17 16
86 25 97 13 4 -4 0 -7 -10 -7 -15 0 -15 -2 -1 -30 9 -16 21 -30 28 -30 8 0 8
3 -2 9 -7 5 -11 15 -9 22 3 10 9 6 17 -10 10 -18 10 -25 2 -31 -9 -5 -8 -10 3
-19 14 -12 83 -9 120 5 31 12 -12 155 -70 231 -28 37 -18 43 38 19 18 -8 52
-19 74 -25 48 -13 66 -32 197 -204 59 -78 102 -124 129 -139 22 -13 54 -41 70
-64 28 -38 123 -282 114 -291 -7 -7 -77 104 -113 180 -62 130 -89 164 -141
181 -26 8 -69 18 -97 22 -27 4 -54 12 -60 19 -5 7 -18 15 -28 19 -15 5 -14 0
7 -25 15 -17 33 -44 42 -60 12 -23 21 -29 49 -29 18 0 37 -4 40 -10 4 -6 -7
-10 -25 -10 -58 0 -27 -25 39 -31 86 -8 105 -29 27 -29 -49 0 -57 -3 -52 -16
3 -9 6 -18 6 -20 0 -2 24 -5 53 -6 l52 -2 -47 -3 -46 -4 36 -70 c31 -59 41
-69 59 -66 26 5 43 -12 102 -101 24 -36 48 -61 57 -60 7 2 25 -10 39 -27 l25
-30 -6 35 c-3 19 -8 46 -10 60 -5 21 -3 23 8 12 7 -7 13 -36 14 -65 1 -41 12
-75 55 -164 l54 -112 188 -1 187 0 0 2560 0 2560 -1877 0 -1878 -1 40 -36 c22
-20 87 -80 145 -133 58 -53 150 -136 205 -185 55 -49 150 -136 212 -193 l112
-103 32 17 c74 38 203 74 265 74 34 0 64 -4 66 -8 2 -4 21 -19 43 -32 59 -36
116 -90 108 -104 -3 -6 -3 -8 2 -4 4 4 14 3 22 -3 16 -14 18 -33 2 -23 -8 4
-8 0 0 -15 14 -25 22 -28 15 -3 -10 30 39 -34 74 -98 18 -33 31 -60 29 -60 -3
0 -23 29 -46 64 l-41 63 -76 -18 c-42 -10 -81 -20 -87 -22 -7 -3 -35 17 -63
44 -50 49 -88 75 -152 105 -42 19 -153 16 -160 -5 -3 -10 1 -11 19 -5 49 18
170 -6 169 -34 -1 -4 -21 -20 -46 -36 -33 -20 -42 -32 -35 -39 8 -8 24 1 55
32 l43 43 59 -55 59 -55 -26 -29 c-51 -55 -58 -74 -48 -127 5 -27 13 -54 18
-60 5 -6 12 -29 16 -51 l7 -40 -32 49 c-18 28 -87 106 -153 175 -67 69 -176
182 -242 251 -66 68 -241 245 -388 392 l-268 268 -659 0 -660 0 0 -670z m3914
394 c22 -9 21 -13 -28 -143 -24 -64 -81 -224 -126 -356 -122 -356 -115 -339
-155 -358 -19 -9 -35 -16 -35 -14 0 1 7 24 15 51 18 60 19 89 3 84 -7 -3 -16
-24 -20 -49 -15 -103 -21 -129 -29 -129 -5 0 -10 12 -10 28 -3 43 -5 56 -12
72 -17 39 -35 104 -31 111 5 9 -53 58 -84 70 -13 5 -21 13 -17 19 5 9 98 -51
111 -72 4 -5 18 25 33 69 18 55 32 81 48 88 15 6 69 96 164 272 78 145 146
263 150 263 4 0 14 -3 23 -6z m-1365 -70 c19 -4 28 -11 24 -18 -3 -6 2 -3 13
6 18 16 32 16 139 8 163 -14 214 -21 221 -32 4 -6 -25 -6 -77 -1 -116 11 -262
10 -265 -2 -1 -5 22 -31 52 -56 l54 -46 112 -7 c144 -9 196 -19 213 -42 27
-37 157 -275 153 -280 -6 -5 -48 48 -71 91 -45 82 -99 117 -225 144 -51 11
-107 30 -123 42 -28 20 -26 15 23 -62 125 -192 153 -230 172 -234 12 -2 77 -9
146 -16 108 -10 191 -31 178 -45 -2 -2 -29 0 -59 5 -30 5 -107 13 -171 16
-147 9 -148 8 -106 -115 l30 -88 122 -15 c117 -16 118 -16 31 -11 -49 3 -102
8 -116 11 -27 5 -27 5 -18 -33 11 -51 11 -94 0 -94 -5 0 -11 6 -14 13 -2 6 -2
2 0 -10 2 -13 -1 -23 -7 -23 -5 0 -10 7 -10 16 0 8 -5 12 -11 8 -7 -4 -9 0 -5
14 5 14 0 28 -13 41 -25 25 -27 51 -6 51 8 0 15 -5 15 -12 0 -6 3 -9 6 -6 6 7
-34 147 -70 243 -21 56 -116 246 -132 264 -11 13 -33 -27 -39 -69 -4 -28 -10
-52 -14 -54 -4 -3 -17 11 -30 30 -29 42 -156 146 -214 176 -23 11 -44 22 -45
23 -6 5 91 175 99 175 3 0 20 -3 38 -6z m-889 -109 c25 -30 -7 -14 -40 20 -19
19 -40 35 -48 35 -7 0 -10 5 -7 10 6 10 67 -32 95 -65z m1394 -8 c30 -34 71
-84 91 -112 19 -27 35 -44 35 -36 0 9 9 12 29 9 28 -4 29 -3 24 36 -4 39 -2
37 27 -29 17 -38 42 -112 55 -163 19 -72 37 -113 81 -182 31 -50 58 -90 60
-90 3 0 -7 23 -21 50 -32 63 -26 64 13 3 27 -44 50 -133 33 -133 -4 0 -25 18
-46 41 -22 22 -49 45 -60 51 -11 6 3 -11 30 -38 36 -36 58 -69 79 -122 15 -39
32 -72 38 -72 5 0 13 10 18 23 5 12 9 16 9 8 1 -14 44 36 55 63 14 34 80 -155
110 -317 18 -96 21 -128 13 -172 -9 -49 -7 -60 17 -116 15 -35 29 -88 31 -123
l5 -61 -13 67 c-16 83 -25 96 -20 26 4 -47 3 -51 -9 -32 -42 66 -55 83 -61 77
-8 -7 -2 27 18 120 13 61 11 65 -19 42 -11 -8 -23 -15 -26 -15 -4 0 -14 25
-24 56 -10 33 -29 65 -47 81 -16 15 -28 32 -25 38 2 7 1 27 -4 46 -6 26 -8 28
-9 10 -1 -22 -3 -22 -43 15 -24 21 -46 47 -49 58 -4 17 -8 14 -18 -19 -12 -37
-35 -75 -31 -50 5 22 -1 35 -15 35 -12 0 -15 18 -15 104 0 59 -4 108 -10 111
-6 4 -10 -18 -10 -57 0 -56 -2 -64 -20 -65 -14 -1 -19 4 -18 20 1 12 -2 52 -6
90 -6 50 -5 67 5 67 17 0 6 172 -15 230 -9 25 -19 78 -23 118 -3 40 -10 75
-14 78 -4 2 -5 12 -2 21 5 12 3 14 -7 8 -10 -6 -12 -1 -7 21 3 16 4 23 1 16
-5 -10 -9 -9 -19 4 -15 22 -50 11 -41 -12 12 -33 -23 6 -81 89 -31 44 -77 101
-102 125 -25 25 -36 40 -24 34 12 -7 47 -40 77 -75z m-1333 -82 c25 -23 52
-44 59 -47 7 -2 11 -10 9 -17 -3 -8 -45 26 -109 89 -96 93 -73 79 41 -25z
m1506 78 c1 -33 0 -35 -7 -13 -11 35 -11 50 -2 50 5 0 9 -17 9 -37z m56 -3 c3
-11 3 -20 1 -20 -2 0 -8 9 -14 20 -6 11 -7 20 -2 20 6 0 12 -9 15 -20z m-2269
-97 c8 -20 1 -27 -19 -20 -8 4 -15 15 -15 26 0 24 25 19 34 -6z m232 -194 c10
-17 -23 -46 -38 -31 -8 8 -8 15 2 27 15 18 26 19 36 4z m-756 -49 c11 -11 20
-28 20 -38 0 -23 77 -202 96 -223 22 -24 17 -28 -25 -22 -30 4 -47 0 -69 -16
-37 -26 -42 -26 -42 -2 0 27 37 51 77 51 18 0 33 1 33 3 0 2 -18 43 -40 92
-22 50 -40 98 -40 108 0 19 -44 25 -55 7 -4 -6 -11 -8 -16 -4 -6 3 -21 -4 -35
-17 l-24 -22 0 29 c0 64 76 98 120 54z m2880 -40 c6 -11 8 -20 6 -20 -3 0 -10
9 -16 20 -6 11 -8 20 -6 20 3 0 10 -9 16 -20z m-2926 -150 l7 -25 -14 25 c-8
14 -17 36 -21 50 l-7 25 14 -25 c8 -14 17 -36 21 -50z m2337 18 c36 -58 137
-272 142 -301 2 -15 0 -30 -4 -33 -5 -3 -9 -1 -9 5 0 7 -9 7 -27 0 -61 -25
-91 -27 -107 -10 -7 9 -40 63 -71 121 -32 58 -70 126 -86 153 -15 26 -27 47
-26 47 1 0 34 11 72 25 39 13 76 25 83 25 7 0 21 -15 33 -32z m-1742 -137 c39
-28 35 -36 -19 -37 -31 0 -56 -7 -68 -17 -30 -28 -45 -22 -38 16 12 65 66 81
125 38z m1628 -76 c54 -88 113 -196 103 -190 -6 3 -10 1 -10 -4 0 -6 -15 -28
-33 -48 -40 -47 -69 -107 -60 -129 5 -15 2 -16 -28 -10 -45 9 -54 20 -74 91
-15 52 -71 202 -119 316 l-15 37 37 -10 c31 -8 45 -5 86 16 l49 25 17 -22 c9
-12 30 -44 47 -72z m-2027 38 c13 -13 12 -14 -15 -9 -16 4 -47 7 -67 8 -36 1
-45 7 -33 20 11 10 100 -5 115 -19z m2585 -17 c16 -11 17 -22 12 -81 -4 -38
-10 -71 -14 -74 -5 -3 -9 -30 -10 -59 -1 -29 -7 -58 -13 -65 -6 -6 -16 -20
-23 -30 -18 -26 -102 -14 -119 16 -8 16 -8 22 1 25 8 3 7 8 -4 16 -13 9 -18
36 -23 117 -9 130 -7 137 26 142 64 10 149 6 167 -7z m-754 -124 c4 -2 5 -10
2 -19 -4 -10 -2 -14 4 -10 12 7 15 -1 64 -142 34 -98 32 -91 18 -91 -18 0
-320 141 -352 164 -25 18 -26 21 -10 27 13 4 22 -1 30 -17 22 -39 52 -41 85
-5 16 17 33 29 38 26 5 -3 12 0 16 6 4 8 9 7 15 -2 6 -11 9 -9 15 5 4 10 2 21
-5 25 -8 5 -7 12 4 27 8 10 15 28 15 40 0 35 12 36 33 1 11 -17 23 -33 28 -35z
m-1851 -47 c0 -5 -5 -3 -10 5 -5 8 -10 20 -10 25 0 6 5 3 10 -5 5 -8 10 -19
10 -25z m1325 25 c3 -5 1 -10 -4 -10 -6 0 -11 5 -11 10 0 6 2 10 4 10 3 0 8
-4 11 -10z m1372 -22 c-3 -7 -5 -2 -5 12 0 14 2 19 5 13 2 -7 2 -19 0 -25z
m-2573 -53 c4 -31 3 -44 -3 -35 -4 8 -11 38 -15 65 -4 31 -3 44 3 35 4 -8 11
-37 15 -65z m-117 13 c-3 -8 -6 -5 -6 6 -1 11 2 17 5 13 3 -3 4 -12 1 -19z
m1326 -29 c-13 -13 -43 -5 -43 12 0 8 5 7 17 -2 15 -13 16 -11 10 10 -6 23 -5
23 11 8 12 -13 13 -20 5 -28z m1351 -6 c-4 -21 -6 -71 -5 -112 l3 -74 -112 6
c-113 6 -129 12 -130 46 0 10 3 11 14 2 7 -6 50 -14 94 -18 l80 -6 26 86 c14
46 26 93 26 103 0 9 3 15 6 11 4 -3 3 -23 -2 -44z m-2667 -5 c-3 -8 -6 -5 -6
6 -1 11 2 17 5 13 3 -3 4 -12 1 -19z m586 -56 c-19 -40 -37 -72 -39 -70 -6 6
48 132 60 140 6 4 11 6 12 5 2 -1 -13 -35 -33 -75z m542 26 c12 -11 -28 -48
-52 -48 -11 0 -13 -5 -8 -17 27 -64 45 -116 42 -119 -2 -2 -19 20 -38 48 -49
75 -79 94 -124 81 -19 -6 -35 -10 -35 -8 0 2 23 17 51 35 72 47 133 57 164 28z
m-1529 -12 l28 -23 -37 -5 c-20 -2 -37 0 -37 4 0 11 -38 10 -61 -2 -34 -18
-22 9 14 30 42 26 60 25 93 -4z m2934 -57 c10 -5 -3 -8 -36 -9 -35 0 -56 5
-65 16 -12 14 -8 15 37 9 27 -4 56 -11 64 -16z m-3017 -38 c23 -40 21 -63 -8
-91 -14 -13 -25 -19 -25 -13 0 6 7 16 15 23 8 7 15 18 15 26 0 27 -21 24 -54
-9 -25 -26 -31 -38 -23 -46 8 -8 5 -11 -11 -11 -24 0 -25 3 -16 49 4 20 11 30
19 27 7 -2 23 7 36 21 23 23 23 25 6 38 -13 9 -15 14 -5 18 20 7 33 -1 51 -32z
m1867 29 c0 -5 -4 -10 -10 -10 -5 0 -10 5 -10 10 0 6 5 10 10 10 6 0 10 -4 10
-10z m-1451 -26 c10 -9 -76 -3 -89 7 -11 7 -1 8 35 3 28 -4 52 -8 54 -10z
m2188 -6 c-3 -8 -6 -5 -6 6 -1 11 2 17 5 13 3 -3 4 -12 1 -19z m-1101 6 c19
-3 44 -40 44 -64 0 -6 -11 -10 -25 -10 -14 0 -33 -8 -44 -19 -18 -18 -19 -18
-40 2 -13 13 -33 21 -56 21 -33 0 -34 1 -17 19 38 44 85 61 138 51z m357 -71
c4 -3 5 -34 1 -71 l-6 -66 26 17 c34 23 43 21 21 -3 -22 -25 -43 -25 -87 -2
-44 23 -47 28 -41 76 7 66 9 68 45 61 18 -4 37 -9 41 -12z m1317 -40 c-11 -17
-11 -17 -6 0 3 10 6 24 7 30 0 9 2 9 5 0 3 -7 0 -20 -6 -30z m-1739 -8 c9 -16
20 -46 23 -65 6 -30 5 -32 -5 -15 -6 11 -20 29 -29 40 -10 11 -25 33 -35 48
-19 29 -19 29 5 25 14 -2 31 -16 41 -33z m464 17 c-3 -3 -11 0 -18 7 -9 10 -8
11 6 5 10 -3 15 -9 12 -12z m-276 -130 c1 -20 -3 -31 -9 -27 -5 3 -9 32 -9 63
1 47 3 52 9 27 4 -16 8 -45 9 -63z m-207 51 c-7 -3 -19 -11 -27 -20 -18 -17
-37 -9 -28 13 8 21 45 35 58 22 7 -7 6 -12 -3 -15z m-1502 3 c0 -8 -7 -22 -16
-30 -8 -9 -12 -21 -8 -27 4 -8 3 -9 -4 -5 -13 8 -16 35 -6 60 8 20 34 21 34 2z
m2519 0 c22 -12 19 -13 -30 -8 -78 7 -107 21 -44 21 28 0 61 -6 74 -13z m893
-31 c-2 -14 -9 -25 -14 -25 -5 0 -7 3 -5 8 2 4 7 15 10 25 9 25 15 21 9 -8z
m128 4 c0 -5 -7 -9 -15 -9 -8 0 -15 7 -15 15 0 9 6 12 15 9 8 -4 15 -10 15
-15z m-1034 -9 l27 -10 -23 -20 c-41 -36 -93 -19 -76 25 6 17 33 19 72 5z
m-1018 -14 c7 -4 12 -12 12 -19 0 -6 -7 -2 -16 9 -15 19 -16 19 -8 -1 4 -11 9
-36 10 -55 l4 -35 -10 32 c-6 18 -22 40 -35 49 -14 9 -23 20 -20 24 6 10 45 7
63 -4z m177 -5 c0 -8 -17 -20 -37 -27 -31 -11 -37 -10 -42 3 -14 36 -7 44 37
41 28 -2 42 -8 42 -17z m465 -15 c5 -14 22 -33 37 -43 15 -10 30 -20 33 -24
17 -21 219 -102 237 -95 8 3 11 2 8 -3 -3 -6 3 -15 12 -21 33 -20 -25 0 -152
52 -66 28 -127 52 -136 55 -21 6 -34 -12 -53 -80 -12 -40 -21 -55 -29 -51 -48
28 -127 86 -127 93 0 5 21 26 48 47 26 21 49 43 51 48 6 15 41 46 51 46 6 0
15 -11 20 -24z m-670 -60 c-1 -16 -5 -12 -15 13 -19 42 -19 52 0 27 8 -11 15
-29 15 -40z m-365 29 c6 -2 -13 -4 -42 -4 -28 -1 -54 3 -57 8 -5 8 74 5 99 -4z
m2330 -5 c-3 -5 -14 -10 -23 -10 -15 0 -15 2 -2 10 20 13 33 13 25 0z m151
-12 c-3 -13 -6 -26 -6 -30 0 -5 -4 -8 -10 -8 -5 0 -10 14 -10 30 0 21 5 30 16
30 12 0 15 -6 10 -22z m-2152 -28 l7 -25 -20 24 c-12 12 -18 28 -15 33 8 13
20 -1 28 -32z m1872 28 c9 -15 -24 -38 -44 -31 -33 12 -44 25 -30 34 19 13 66
11 74 -3z m-1916 -38 c0 -5 -4 -10 -10 -10 -5 0 -10 5 -10 10 0 6 5 10 10 10
6 0 10 -4 10 -10z m40 -36 c0 -16 -26 -19 -35 -4 -4 6 -4 18 -1 27 5 12 9 13
21 3 8 -7 15 -19 15 -26z m1962 12 c17 11 -2 -36 -24 -58 -16 -16 -22 -17 -35
-7 -13 11 -12 14 5 20 11 4 22 22 27 41 5 22 9 27 12 15 3 -9 9 -14 15 -11z
m-2025 -36 c-2 -40 -17 -58 -17 -20 0 17 -7 20 -52 21 l-53 1 40 8 c22 4 45 5
52 3 7 -3 16 2 19 11 10 25 12 19 11 -24z m109 13 c-7 -7 -26 7 -26 19 0 6 6
6 15 -2 9 -7 13 -15 11 -17z m1659 -41 c9 -29 19 -51 22 -48 3 3 -2 26 -11 52
-9 26 -14 49 -12 51 2 3 9 -13 16 -34 7 -21 16 -42 21 -47 5 -6 9 -22 9 -36
l0 -26 69 7 c128 14 191 42 191 87 1 16 1 16 11 -1 6 -9 7 -27 3 -40 -7 -22
-6 -22 15 -3 l21 19 0 -34 c0 -68 -31 -152 -123 -332 -109 -211 -153 -318
-166 -402 -17 -109 -31 -120 -24 -20 3 50 12 95 18 100 7 6 18 26 25 45 7 19
46 104 87 187 76 156 92 211 93 331 0 47 -14 56 -25 15 -6 -26 -8 -26 -19 -10
-7 9 -20 17 -28 17 -15 0 -51 -33 -44 -41 2 -2 -13 -5 -35 -5 -27 -2 -37 2
-32 10 4 6 -1 5 -10 -3 -9 -7 -14 -17 -11 -22 3 -5 1 -15 -3 -23 -14 -24 -51
-1 -57 36 -18 115 -12 105 -63 112 -84 11 -81 14 -85 -64 -2 -39 1 -70 6 -70
5 0 7 -3 4 -6 -3 -3 -14 -1 -25 5 -10 5 -29 12 -43 15 -14 3 -51 21 -82 40
-32 19 -58 31 -58 26 0 -4 -23 1 -51 11 -28 11 -61 17 -73 14 -13 -4 -17 -3
-8 2 8 6 -6 15 -45 27 -32 10 -69 24 -83 31 -48 25 3 27 81 3 62 -19 98 -22
221 -23 113 0 148 3 148 13 0 8 9 11 23 8 79 -16 86 -16 98 6 6 11 9 37 5 56
-7 48 8 29 29 -36z m275 18 c-6 -23 -14 -40 -16 -37 -3 3 0 24 7 46 16 54 24
46 9 -9z m-3403 -39 c-10 -4 -57 38 -57 52 0 5 15 -4 33 -20 18 -15 29 -30 24
-32z m2943 26 c0 -5 -4 -5 -10 -2 -5 3 -10 14 -10 23 0 15 2 15 10 2 5 -8 10
-19 10 -23z m-598 -59 c-7 -7 -12 -8 -12 -2 0 14 12 26 19 19 2 -3 -1 -11 -7
-17z m258 -13 c19 -7 28 -14 20 -14 -8 0 -28 6 -45 14 -39 17 -21 18 25 0z
m-1393 -17 c-3 -8 -6 -5 -6 6 -1 11 2 17 5 13 3 -3 4 -12 1 -19z m817 -49 c-3
-6 -7 -9 -8 -7 0 2 -12 16 -26 32 l-25 30 33 -23 c18 -12 29 -27 26 -32z
m-622 9 c-9 -9 -15 -9 -24 0 -9 9 -7 12 12 12 19 0 21 -3 12 -12z m915 -10
c-3 -8 -6 -5 -6 6 -1 11 2 17 5 13 3 -3 4 -12 1 -19z m-1674 -15 c23 -15 62
-38 87 -51 25 -13 70 -44 102 -67 86 -66 108 -75 189 -75 l72 0 -44 49 c-76
84 -100 116 -89 119 16 6 51 -29 43 -41 -3 -5 -1 -7 4 -4 6 4 25 -8 42 -25 30
-31 35 -33 96 -29 43 2 65 -1 65 -8 0 -8 -18 -9 -55 -5 -60 7 -66 2 -33 -33
14 -15 33 -23 55 -23 23 0 42 -8 58 -25 46 -45 37 -49 -115 -42 -128 6 -140 5
-141 -11 0 -10 -3 -12 -6 -4 -2 6 -10 12 -16 12 -7 0 -32 16 -57 36 -25 20
-70 55 -100 77 -30 22 -77 61 -105 86 -27 26 -63 56 -80 68 -43 32 -23 28 28
-4z m545 -38 c6 -3 12 -9 12 -15 0 -13 -101 -6 -129 10 -12 6 -21 12 -21 14 0
5 119 -4 138 -9z m801 6 c12 -8 12 -14 1 -40 -7 -17 -16 -34 -21 -37 -11 -6 0
26 15 45 8 10 5 17 -9 27 -21 15 -9 19 14 5z m-1106 -8 c-29 -2 -77 -2 -105 0
-29 2 -6 3 52 3 58 0 81 -1 53 -3z m1968 -20 c13 -16 12 -17 -3 -4 -17 13 -22
21 -14 21 2 0 10 -8 17 -17z m-1457 -104 c20 -10 31 -8 63 11 l38 22 -28 -26
c-39 -36 -78 -34 -111 5 -14 17 -26 36 -26 42 0 7 -3 23 -6 37 -2 14 6 1 20
-27 15 -32 35 -57 50 -64z m20 -77 c25 -23 55 -42 66 -42 17 0 19 -2 8 -14
-36 -38 -178 101 -178 174 0 21 5 17 29 -25 16 -28 49 -69 75 -93z m1753 106
c-3 -8 -6 -5 -6 6 -1 11 2 17 5 13 3 -3 4 -12 1 -19z m-2162 2 c3 -6 -4 -10
-17 -10 -18 0 -20 2 -8 10 19 12 18 12 25 0z m2590 -94 l-37 -76 41 -58 c35
-48 38 -58 24 -61 -10 -1 -33 -14 -50 -28 l-33 -24 0 22 c0 12 -13 46 -30 75
l-29 52 24 6 c22 6 25 12 25 49 0 25 4 37 8 29 10 -15 41 16 67 66 9 19 19 32
21 29 3 -2 -11 -39 -31 -81z m-1668 42 c23 -21 32 -45 14 -33 -6 3 -15 -3 -21
-14 -14 -27 -46 -44 -70 -36 -19 6 -18 8 8 55 15 28 31 50 36 50 6 0 20 -10
33 -22z m2097 -7 c8 -12 -21 -34 -34 -26 -8 5 -8 11 1 21 13 16 25 18 33 5z
m-3339 -74 c27 -48 32 -71 13 -65 -15 5 -58 76 -58 96 0 25 20 11 45 -31z
m1383 -8 c-2 -4 -31 -37 -66 -73 l-63 -66 -37 25 c-48 33 -101 33 -139 1 -26
-22 -30 -23 -48 -9 -11 8 -35 22 -54 30 -32 14 -32 15 -15 34 19 21 67 25 108
9 22 -8 26 -7 26 9 0 26 32 52 50 41 8 -5 11 -10 7 -10 -17 0 30 -39 56 -45
36 -9 55 7 68 60 l11 43 49 -20 c27 -12 48 -24 47 -29z m-1986 -104 c-30 -14
-61 -25 -70 -25 -26 1 70 49 98 49 19 1 11 -5 -28 -24z m1823 -115 c8 -13 -5
-13 -25 0 -13 8 -13 10 2 10 9 0 20 -4 23 -10z m-1300 -32 c33 -10 36 -13 17
-16 -21 -3 -18 -8 29 -38 51 -33 99 -45 99 -24 0 22 41 -11 138 -111 56 -58
102 -108 102 -111 0 -3 -6 -8 -14 -11 -9 -4 -54 35 -122 104 -106 107 -109
109 -154 109 -34 0 -58 8 -93 30 -26 17 -70 41 -97 55 -28 14 -50 28 -50 32 0
8 96 -4 145 -19z m1276 -3 c19 -8 27 -14 19 -14 -14 0 -72 28 -59 29 4 0 22
-7 40 -15z m519 -51 c0 -8 -33 13 -65 41 -25 22 -23 22 18 -5 26 -17 47 -33
47 -36z m445 46 c7 -12 -2 -12 -30 0 -19 8 -19 9 2 9 12 1 25 -3 28 -9z
m-1425 -30 c0 -5 -18 -10 -39 -10 -22 0 -43 5 -46 10 -4 6 12 10 39 10 25 0
46 -4 46 -10z m893 -62 c26 -16 51 -28 55 -28 6 0 189 -114 201 -126 2 -2 2
-7 -1 -10 -8 -7 -45 12 -199 102 -124 73 -202 133 -134 103 17 -8 52 -26 78
-41z m1242 42 c-3 -5 -12 -10 -18 -10 -7 0 -6 4 3 10 19 12 23 12 15 0z
m-1904 -19 c13 -10 38 -25 54 -34 28 -15 28 -16 7 -17 -12 0 -46 16 -75 35
-38 26 -46 35 -31 35 12 0 32 -8 45 -19z m240 -14 c19 -6 24 -67 5 -67 -16 0
-110 60 -103 66 3 3 23 -4 46 -16 23 -11 41 -16 41 -11 0 5 -8 12 -19 16 -10
3 -27 15 -37 26 l-19 21 35 -15 c19 -9 42 -18 51 -20z m2909 14 c0 -22 -57
-62 -77 -54 -23 9 -14 33 20 53 40 25 57 25 57 1z m-1109 -16 c37 -13 72 -44
195 -173 82 -86 174 -185 203 -219 34 -40 62 -63 75 -63 14 0 17 -3 9 -8 -9
-6 12 -35 70 -98 45 -49 94 -103 107 -120 14 -17 49 -59 78 -93 28 -34 52 -66
52 -71 0 -16 -59 14 -71 37 -7 13 -18 23 -26 23 -15 0 -17 -16 -3 -25 20 -13
9 -21 -24 -17 -18 2 -43 -1 -54 -7 -18 -9 -27 -3 -75 52 -31 34 -52 63 -48 65
4 1 -11 22 -33 45 -23 23 -77 89 -121 146 -147 191 -207 256 -232 254 -19 -1
-21 1 -11 17 10 15 8 22 -8 37 -12 10 -50 51 -84 91 l-64 73 -18 -23 c-9 -13
-18 -34 -20 -48 -2 -14 -8 -24 -15 -23 -7 2 -10 -4 -7 -12 3 -8 -2 -27 -12
-44 -16 -27 -19 -28 -30 -13 -8 9 -14 38 -14 63 0 37 5 50 23 63 19 13 19 15
2 9 -18 -6 -19 -5 -6 11 10 12 16 14 21 5 5 -7 13 -8 21 -4 7 5 0 -9 -16 -31
l-29 -39 38 35 c21 19 47 54 58 78 10 23 20 42 22 42 1 0 23 -7 47 -15z
m-3346 -16 c-10 -15 -25 -10 -19 6 4 8 10 12 15 9 5 -3 7 -10 4 -15z m2533 9
c-2 -8 16 -15 47 -19 69 -10 156 -11 153 -1 -2 4 2 9 7 11 14 5 26 -56 32
-161 3 -61 2 -88 -6 -88 -6 0 -11 16 -11 35 0 19 -4 35 -10 35 -5 0 -10 14
-10 31 0 31 0 31 -17 10 -28 -33 -110 -44 -140 -19 -14 12 -15 9 -9 -24 4 -20
2 -39 -3 -42 -5 -3 -14 25 -21 62 -18 108 -36 167 -49 164 -7 -1 -10 2 -6 8 9
14 46 13 43 -2z m115 -5 c-13 -2 -35 -2 -50 0 -16 2 -5 4 22 4 28 0 40 -2 28
-4z m-156 -75 c13 -16 43 -150 36 -160 -2 -5 -8 -8 -12 -8 -9 0 -91 162 -91
179 0 24 45 17 67 -11z m392 -105 c-13 -31 -23 -43 -26 -33 -3 8 -12 23 -21
33 -8 9 -11 17 -5 17 5 0 18 19 28 43 31 70 40 76 43 29 2 -27 -5 -58 -19 -89z
m-1349 82 c-7 -9 -15 -13 -19 -10 -3 3 1 10 9 15 21 14 24 12 10 -5z m-45 -34
c3 -5 1 -12 -4 -15 -5 -3 -11 1 -15 9 -6 16 9 21 19 6z m1306 -46 c-9 -30 -9
-30 -10 10 -1 25 2 36 9 29 6 -6 6 -21 1 -39z m126 -20 c-4 -36 -17 -92 -31
-125 -13 -34 -22 -69 -19 -79 3 -10 -1 -22 -8 -26 -17 -11 -5 75 21 149 10 30
22 76 25 101 11 68 19 54 12 -20z m-1492 26 l20 -24 -22 12 c-13 6 -23 19 -23
28 0 9 1 14 3 12 1 -2 11 -15 22 -28z m891 -20 c68 -44 140 -101 129 -101 -5
0 -31 17 -59 38 -28 21 -72 51 -98 66 -27 15 -48 30 -48 32 0 11 22 1 76 -35z
m-1832 -36 c-22 -17 38 -75 78 -75 18 0 28 -4 21 -8 -17 -11 28 -72 166 -225
112 -125 302 -315 410 -411 49 -43 49 -45 30 -62 -19 -17 -21 -16 -57 17 -20
19 -39 37 -42 41 -3 3 -141 144 -308 312 -167 169 -300 311 -297 316 3 5 0 7
-7 5 -8 -3 -31 13 -53 35 -42 43 -64 48 -108 25 -15 -8 -25 -10 -22 -6 6 11
-79 24 -108 16 -22 -6 -22 -6 -2 10 16 12 39 15 107 13 48 -1 90 0 93 4 3 3
30 5 59 4 37 -1 49 -4 40 -11z m-324 -25 c0 -5 -7 -7 -15 -4 -8 4 -15 8 -15
10 0 2 7 4 15 4 8 0 15 -4 15 -10z m-59 -18 c-13 -9 -37 -30 -54 -47 -22 -22
-27 -24 -19 -9 14 27 69 74 85 74 7 -1 1 -9 -12 -18z m3303 -7 c-6 -15 -28
-20 -71 -16 -29 2 -29 -7 1 -38 26 -29 188 -251 182 -251 -4 0 -177 189 -219
239 l-27 33 -38 -21 -37 -21 37 32 c27 25 52 36 100 44 35 6 66 12 70 13 4 0
5 -6 2 -14z m-3129 -5 c-3 -5 -27 -24 -53 -41 -26 -18 -67 -50 -91 -73 l-45
-41 34 43 c18 24 57 57 86 74 30 16 57 34 60 39 3 5 7 9 10 9 3 0 2 -4 -1 -10z
m1755 -15 c28 -14 50 -28 50 -30 0 -5 -99 42 -109 51 -12 11 15 1 59 -21z
m945 -109 c14 -59 25 -113 24 -119 -1 -14 -53 173 -62 223 -14 74 13 0 38
-104z m1585 79 c0 -16 -39 -36 -53 -28 -11 7 23 43 40 43 7 0 13 -7 13 -15z
m-2425 -25 c3 -6 -1 -7 -9 -4 -18 7 -21 14 -7 14 6 0 13 -4 16 -10z m-855 -32
c19 -9 44 -20 55 -24 17 -6 18 -8 3 -11 -18 -5 -92 30 -104 48 -4 6 -3 10 2 8
5 -3 25 -12 44 -21z m589 -178 c54 -174 66 -231 24 -115 -25 72 -93 294 -93
304 1 19 24 -44 69 -189z m-1380 56 c25 -25 42 -48 39 -51 -7 -7 -138 113
-138 127 0 14 48 -23 99 -76z m3428 68 c-3 -3 -12 -4 -19 -1 -8 3 -5 6 6 6 11
1 17 -2 13 -5z m-3847 -7 c0 -2 -10 -12 -22 -23 l-23 -19 19 23 c18 21 26 27
26 19z m2820 -32 c0 -5 -5 -3 -10 5 -5 8 -10 20 -10 25 0 6 5 3 10 -5 5 -8 10
-19 10 -25z m-120 -71 c14 -88 16 -198 5 -204 -6 -3 -13 37 -17 105 -4 61 -9
125 -12 144 -4 23 -2 31 5 24 5 -5 14 -36 19 -69z m-130 8 c0 -11 -22 -32 -33
-32 -5 0 -4 6 2 14 10 11 8 15 -6 19 -12 3 -8 5 10 6 15 0 27 -3 27 -7z m77
-54 c-3 -7 -5 -2 -5 12 0 14 2 19 5 13 2 -7 2 -19 0 -25z m-1162 12 c3 -5 1
-10 -4 -10 -6 0 -11 5 -11 10 0 6 2 10 4 10 3 0 8 -4 11 -10z m1028 3 c-7 -2
-19 -2 -25 0 -7 3 -2 5 12 5 14 0 19 -2 13 -5z m962 -33 c10 -11 16 -20 13
-20 -3 0 -13 9 -23 20 -10 11 -16 20 -13 20 3 0 13 -9 23 -20z m-3425 -50 c78
-99 170 -244 158 -250 -7 -4 -59 -17 -116 -30 -84 -18 -108 -20 -129 -11 -45
21 -35 5 13 -20 39 -20 54 -39 105 -124 52 -87 57 -101 42 -107 -43 -16 -58
-7 -105 62 -51 74 -132 145 -235 206 -47 27 -63 42 -63 59 0 30 62 50 94 30
15 -10 25 -11 36 -4 13 9 12 10 -2 5 -15 -4 -16 -3 -6 14 10 16 8 23 -12 42
-49 46 -103 119 -94 127 9 9 146 31 189 31 18 0 23 -4 19 -15 -5 -11 1 -15 19
-15 25 0 52 22 40 33 -3 4 -1 7 4 7 6 0 26 -18 43 -40z m1200 -11 c-76 -15
-110 -17 -110 -9 0 8 25 15 90 23 41 5 58 -6 20 -14z m1285 -8 c-11 -11 -33
-22 -50 -26 -25 -5 -23 -2 15 18 57 31 59 31 35 8z m-1239 -11 c-52 -16 -136
-23 -136 -12 0 10 47 17 130 19 35 1 35 1 6 -7z m2279 -40 c3 -5 2 -10 -4 -10
-5 0 -13 5 -16 10 -3 6 -2 10 4 10 5 0 13 -4 16 -10z m-1055 -18 c0 -10 -45
-32 -63 -32 -7 1 4 9 23 20 41 23 40 22 40 12z m1645 -87 l16 -30 -28 32 c-15
17 -36 46 -46 65 l-19 33 30 -35 c17 -19 38 -48 47 -65z m-1220 64 c49 1 76
-3 90 -13 18 -14 13 -14 -55 -10 l-75 6 25 -21 c28 -23 78 -36 115 -29 16 4
30 -2 42 -15 18 -19 17 -20 -44 -15 -35 2 -63 2 -63 0 0 -2 14 -22 31 -43 32
-41 47 -46 77 -28 15 9 26 7 58 -14 42 -27 191 -174 183 -181 -2 -2 -32 -1
-67 3 -60 7 -62 7 -62 -15 0 -18 6 -23 33 -26 24 -2 33 -8 35 -25 3 -17 -2
-23 -15 -23 -16 0 -18 -8 -16 -57 3 -65 -9 -49 -22 27 -4 25 -14 56 -23 70
-26 41 -232 290 -302 364 -39 41 -55 63 -40 56 15 -8 52 -13 95 -11z m-377
-53 c-15 -34 -56 -56 -100 -56 -31 1 -30 2 22 24 30 13 62 33 70 44 20 26 24
21 8 -12z m1668 -78 c21 -29 68 -93 104 -143 105 -142 164 -234 207 -320 39
-77 69 -173 61 -195 -2 -6 -27 31 -57 82 -29 50 -74 114 -100 141 -82 89 -161
133 -161 91 0 -17 -1 -17 -47 11 -40 24 -37 39 7 43 23 3 47 -6 83 -28 39 -24
52 -28 59 -18 13 20 -8 92 -34 119 -7 8 -31 41 -53 74 -21 33 -56 83 -77 112
-33 45 -48 83 -34 83 2 0 21 -24 42 -52z m13 -163 c21 -35 31 -63 29 -82 -3
-27 -4 -26 -30 22 -32 62 -97 127 -149 151 -29 13 -38 22 -33 33 4 9 9 27 12
39 4 22 9 19 71 -42 37 -37 82 -91 100 -121z m-2769 155 c0 -5 -5 -10 -11 -10
-5 0 -7 5 -4 10 3 6 8 10 11 10 2 0 4 -4 4 -10z m-1282 -75 c-61 -19 -63 -21
-60 -50 2 -21 -3 -37 -16 -48 -19 -17 -21 -16 -60 42 -22 34 -37 63 -34 65 4
2 30 7 57 11 28 4 70 15 95 24 44 18 45 18 63 -2 18 -21 18 -21 -45 -42z
m3132 14 c28 -22 73 -70 100 -107 45 -61 48 -67 29 -70 -13 -2 -27 5 -37 20
-9 13 -49 60 -89 105 -40 45 -73 84 -73 87 0 14 22 3 70 -35z m-1703 -15 c-3
-3 -12 -4 -19 -1 -8 3 -5 6 6 6 11 1 17 -2 13 -5z m-95 -66 l80 -51 122 22
c168 31 184 34 166 23 -8 -5 -51 -15 -95 -22 -44 -6 -106 -19 -138 -27 -66
-16 -57 -20 -172 64 -81 59 -61 54 37 -9z m511 -125 c35 -78 51 -125 34 -99
-25 40 -48 56 -77 56 -34 0 -80 38 -80 65 0 13 7 15 35 9 27 -5 36 -3 41 10
10 27 20 18 47 -41z m737 28 c0 -5 10 -11 23 -13 23 -3 -136 -3 -163 0 -13 2
-13 3 0 12 19 12 140 13 140 1z m204 -21 c48 -23 56 -43 19 -48 -13 -2 -29 8
-44 25 -13 16 -31 33 -39 37 -8 5 -3 -4 11 -20 31 -33 86 -119 119 -184 19
-37 20 -42 5 -30 -15 12 -46 14 -164 12 -80 -2 -147 -5 -149 -7 -2 -2 11 -31
28 -65 57 -114 65 -156 10 -51 -18 32 -65 100 -107 151 -41 51 -72 94 -70 97
3 2 31 -25 62 -61 50 -56 62 -65 84 -60 51 11 55 14 43 26 -21 21 -13 27 20
17 37 -10 99 -12 122 -3 9 3 16 15 16 25 0 24 -33 92 -66 136 l-25 32 40 -3
c21 -2 60 -13 85 -26z m-628 -70 c55 -65 147 -190 143 -195 -4 -3 -118 134
-194 233 -32 43 8 12 51 -38z m427 53 c-24 -2 -62 -2 -85 0 -24 2 -5 4 42 4
47 0 66 -2 43 -4z m-1140 -60 c38 -32 77 -64 85 -71 13 -9 13 -15 4 -24 -10
-10 -30 5 -95 70 -45 45 -78 82 -73 82 5 0 40 -26 79 -57z m1006 0 c2 -2 -1
-3 -7 -3 -12 0 -62 46 -62 57 0 4 15 -6 32 -23 18 -16 35 -30 37 -31z m1397
16 c10 -12 37 -30 59 -41 53 -28 149 -121 180 -175 l25 -45 -36 31 c-32 29
-40 31 -112 31 -42 0 -83 -4 -91 -9 -10 -7 -34 7 -84 50 -39 32 -74 59 -79 59
-4 0 -8 5 -8 10 0 6 7 10 15 10 8 0 24 5 34 12 15 9 29 7 69 -10 53 -23 101
-31 72 -12 -8 5 -24 10 -34 10 -31 0 -56 30 -56 67 0 39 18 43 46 12z m-992
-25 c4 -14 25 -66 47 -115 27 -61 39 -100 37 -122 l-4 -32 -8 28 c-5 15 -35
78 -68 139 -54 103 -58 114 -42 125 21 15 30 10 38 -23z m-219 16 c4 -6 -22
-10 -72 -9 -57 1 -70 3 -48 9 45 11 113 11 120 0z m-2397 -16 c37 -16 37 -16
13 -25 -20 -8 -29 -5 -50 16 -29 29 -17 32 37 9z m2494 -30 c15 -32 -3 -47
-46 -39 -16 3 -36 5 -46 5 -11 0 -19 10 -22 24 -5 27 5 32 70 35 26 1 35 -4
44 -25z m-2598 -7 c14 -23 2 -31 -30 -20 -33 11 -42 30 -17 36 25 6 35 3 47
-16z m1776 -42 c0 -5 -5 -3 -10 5 -5 8 -10 20 -10 25 0 6 5 3 10 -5 5 -8 10
-19 10 -25z m1401 -92 c37 -59 14 -46 -26 14 -24 37 -30 51 -16 39 12 -11 31
-35 42 -53z m-3020 25 c1 -7 0 -21 -1 -31 -2 -26 16 -45 53 -53 28 -7 19 -11
-78 -35 -96 -23 -111 -24 -120 -12 -5 8 -25 35 -43 60 -19 24 -32 46 -30 48 1
1 48 9 103 18 55 8 103 15 108 16 4 0 8 -5 8 -11z m1939 -78 c0 -6 -4 -10 -9
-10 -10 0 -51 62 -51 76 1 12 60 -54 60 -66z m-958 -100 c4 0 8 -5 8 -11 0
-16 -93 66 -141 124 -31 38 -20 30 41 -30 46 -46 87 -83 92 -83z m194 124 c31
6 31 -6 -1 -21 -14 -6 -22 -7 -19 -1 3 5 -2 8 -11 6 -10 -2 -20 4 -22 12 -4
13 -3 13 6 0 9 -12 11 -11 12 10 1 17 3 20 6 7 3 -12 12 -16 29 -13z m1428 1
c11 -31 -45 -45 -171 -44 l-118 2 125 9 c104 8 127 12 140 28 18 23 17 23 24
5z m1184 -28 c34 -31 62 -83 50 -95 -8 -8 -86 2 -147 19 -8 2 -17 -6 -20 -19
-6 -21 -11 -17 -53 45 -56 81 -54 83 67 75 62 -3 85 -9 103 -25z m-2984 -66
c74 -74 77 -80 58 -90 -32 -17 -38 -14 -94 37 -29 26 -67 57 -83 70 l-30 22
24 20 c13 11 28 20 35 20 6 0 47 -36 90 -79z m-1500 36 c28 -26 36 -40 34 -60
-2 -14 -7 -29 -10 -33 -4 -3 -4 -12 -2 -19 3 -8 -4 -16 -18 -20 -13 -4 -30
-14 -40 -22 -15 -13 -20 -8 -57 54 -44 74 -47 83 -30 83 7 0 22 11 35 25 30
33 43 32 88 -8z m2881 -143 c127 -111 293 -281 320 -326 l16 -27 -28 10 c-15
5 -44 23 -63 39 l-35 29 30 1 c21 0 26 3 18 11 -6 6 -21 9 -34 7 -33 -4 -37
-41 -7 -62 12 -9 17 -16 11 -16 -6 0 -36 25 -68 56 -31 31 -59 53 -62 50 -3
-3 -24 10 -46 29 -22 19 -47 35 -55 35 -8 0 -22 8 -31 18 -9 10 -31 27 -48 37
-47 27 -69 79 -54 122 7 18 10 47 6 63 -4 17 -3 30 2 30 5 0 63 -47 128 -106z
m-2087 70 c18 -13 62 -81 62 -98 0 -2 -35 -11 -77 -20 -43 -9 -86 -21 -95 -26
-10 -6 -23 -10 -30 -10 -12 0 -75 137 -67 144 2 2 42 8 89 13 47 6 87 11 90
12 3 0 16 -6 28 -15z m148 -56 c14 -27 23 -52 20 -55 -2 -3 -19 23 -36 57 -17
34 -26 59 -20 55 6 -3 22 -29 36 -57z m789 42 c-3 -5 -12 -10 -18 -10 -7 0 -6
4 3 10 19 12 23 12 15 0z m502 -76 c-7 -7 -76 67 -77 81 0 6 19 -9 41 -33 23
-24 39 -45 36 -48z m-1357 66 c0 21 17 9 33 -24 15 -33 9 -41 -20 -23 -7 5 -9
1 -6 -13 9 -33 -5 -23 -27 20 -25 49 -25 53 0 40 14 -7 20 -7 20 0z m2542 -48
l16 -27 -97 -1 c-53 0 -105 -5 -114 -10 -15 -9 -13 -14 20 -44 21 -19 30 -25
20 -14 -17 21 -17 22 5 28 13 3 64 6 115 6 99 0 109 -5 138 -60 l14 -27 -106
-7 c-100 -7 -106 -6 -132 15 -20 18 -19 16 4 -9 l31 -33 112 7 c62 4 112 10
112 14 0 16 -81 154 -98 166 -10 8 -12 13 -5 14 20 0 79 -57 131 -128 47 -64
175 -272 187 -304 5 -14 -10 -16 -110 -17 -65 -1 -121 -4 -126 -7 -5 -3 -10
-26 -10 -52 -1 -46 -1 -47 -8 -11 -9 45 -32 78 -148 211 -119 136 -172 182
-233 204 -28 10 -50 22 -50 26 0 5 8 5 18 0 31 -16 67 -21 82 -12 12 8 8 16
-23 48 l-38 39 88 6 c81 6 89 5 106 -14 9 -12 17 -16 17 -11 0 6 -4 14 -10 17
-21 13 -8 20 33 17 35 -3 47 -9 59 -30z m-333 12 c2 -2 -7 -4 -22 -4 -14 0
-29 5 -32 10 -6 10 42 4 54 -6z m-2940 -21 c-13 -16 -25 -30 -26 -32 -2 -2 -3
3 -3 12 0 18 26 47 42 47 7 0 1 -12 -13 -27z m1528 -45 c38 -40 120 -118 181
-173 62 -55 112 -103 112 -107 0 -24 -46 2 -126 70 -50 42 -134 112 -185 156
-134 112 -127 104 -98 115 40 16 43 14 116 -61z m2753 62 c0 -5 -2 -10 -4 -10
-3 0 -8 5 -11 10 -3 6 -1 10 4 10 6 0 11 -4 11 -10z m-4221 -33 c12 -15 5 -27
-17 -27 -12 0 -12 2 -1 17 12 14 12 16 -1 11 -8 -2 -17 -15 -21 -29 -6 -21 -7
-21 -8 -3 -1 19 16 44 30 44 4 0 12 -6 18 -13z m2137 -30 c27 -18 69 -47 94
-64 25 -17 102 -68 173 -113 70 -45 127 -84 127 -86 0 -7 -51 21 -197 109 -76
46 -163 96 -193 112 -70 37 -67 35 -50 45 12 7 10 11 -10 19 -16 6 -19 10 -9
10 10 1 39 -14 65 -32z m-261 2 c-4 -5 -12 -8 -18 -7 -7 1 -23 -4 -36 -11 -20
-11 -26 -11 -42 5 -18 18 -17 19 42 21 38 2 58 -1 54 -8z m-1832 -26 c-9 -23
-34 -42 -53 -42 -8 0 -4 4 8 10 13 5 26 18 29 29 3 11 9 20 14 20 5 0 5 -8 2
-17z m-483 -28 c0 -5 -5 -3 -10 5 -5 8 -10 20 -10 25 0 6 5 3 10 -5 5 -8 10
-19 10 -25z m2125 -19 c11 -13 66 -75 123 -138 56 -64 102 -119 102 -122 0
-15 -112 80 -126 106 -8 15 -11 28 -7 28 4 0 -6 14 -22 30 -16 17 -35 28 -41
26 -11 -4 -104 85 -104 100 0 14 56 -8 75 -30z m265 25 c0 -4 -28 -12 -62 -18
-46 -9 -66 -9 -76 -1 -10 9 -11 13 0 20 15 9 138 8 138 -1z m-2402 -42 c-3 -8
-7 -3 -11 10 -4 17 -3 21 5 13 5 -5 8 -16 6 -23z m4385 -16 c-13 -2 -33 -2
-45 0 -13 2 -3 4 22 4 25 0 35 -2 23 -4z m-2040 -10 c-7 -2 -21 -2 -30 0 -10
3 -4 5 12 5 17 0 24 -2 18 -5z m2450 -30 c-13 -2 -35 -2 -50 0 -16 2 -5 4 22
4 28 0 40 -2 28 -4z m-2448 -23 c-3 -5 -14 -10 -23 -10 -15 0 -15 2 -2 10 20
13 33 13 25 0z m-2138 -11 c-12 -7 -30 -8 -55 -1 -37 10 -37 10 18 11 43 0 51
-2 37 -10z m2897 -78 c-2 -3 -12 3 -22 13 -16 17 -16 18 5 5 12 -7 20 -15 17
-18z m1611 9 c-3 -5 -16 -10 -28 -9 -20 1 -20 2 3 9 14 4 26 8 28 9 2 1 0 -3
-3 -9z m-535 -125 c58 -87 149 -265 134 -265 -2 0 -23 40 -48 89 -24 49 -71
129 -103 177 -64 98 -67 104 -59 104 3 0 37 -47 76 -105z m-929 70 c38 -12 39
-14 9 -8 -19 3 -48 12 -65 19 -34 15 -10 11 56 -11z m227 -30 c-3 -3 -9 2 -12
12 -6 14 -5 15 5 6 7 -7 10 -15 7 -18z m-55 -12 c75 -16 79 -19 98 -55 11 -21
17 -38 14 -38 -2 0 -11 13 -20 30 -12 23 -27 33 -68 44 -84 24 -154 46 -127
41 14 -3 60 -12 103 -22z m-2324 -17 c-7 -6 -151 -27 -156 -22 -3 2 19 9 49
14 56 10 114 15 107 8z m484 -181 c61 -80 76 -108 48 -91 -16 10 -171 219
-171 231 1 13 37 -29 123 -140z m2194 23 c-3 -7 -5 -2 -5 12 0 14 2 19 5 13 2
-7 2 -19 0 -25z m10 -70 c-3 -7 -5 -2 -5 12 0 14 2 19 5 13 2 -7 2 -19 0 -25z"/>
<path d="M3575 4278 c-23 -61 -45 -134 -45 -145 0 -34 18 -6 40 60 13 39 25
75 27 79 2 4 -1 9 -7 13 -6 3 -12 0 -15 -7z"/>
<path d="M2690 4594 c0 -17 28 -49 36 -41 4 4 -2 17 -14 30 -12 12 -22 17 -22
11z"/>
<path d="M3680 3625 c0 -9 30 -65 34 -65 5 0 2 18 -8 48 -6 19 -26 32 -26 17z"/>
<path d="M2600 3765 c0 -8 7 -15 15 -15 8 0 15 7 15 15 0 8 -7 15 -15 15 -8 0
-15 -7 -15 -15z"/>
<path d="M1946 3412 c-3 -5 6 -14 20 -21 31 -14 31 -14 31 4 0 8 -4 15 -8 15
-4 0 -14 3 -22 6 -8 3 -18 1 -21 -4z"/>
<path d="M2165 3260 c3 -5 8 -10 11 -10 2 0 4 5 4 10 0 6 -5 10 -11 10 -5 0
-7 -4 -4 -10z"/>
<path d="M3391 3054 c-19 -8 -32 -17 -29 -20 7 -6 78 22 78 30 0 9 -12 7 -49
-10z"/>
<path d="M4370 1585 c0 -17 22 -29 41 -23 8 3 6 9 -5 21 -22 21 -36 22 -36 2z"/>
<path d="M3638 1282 c6 -5 33 -9 60 -9 41 -1 43 0 17 7 -41 11 -93 12 -77 2z"/>
<path d="M4620 836 c0 -9 5 -16 10 -16 6 0 10 4 10 9 0 6 -4 13 -10 16 -5 3
-10 -1 -10 -9z"/>
<path d="M3899 489 c67 -88 112 -172 98 -181 -6 -4 -51 -8 -99 -8 -59 0 -88
-4 -88 -11 0 -8 18 -10 61 -5 34 3 76 6 93 6 17 0 38 5 46 10 13 8 12 13 -4
42 -48 83 -127 198 -136 198 -5 0 8 -23 29 -51z"/>
<path d="M3570 526 c0 -2 8 -10 18 -17 15 -13 16 -12 3 4 -13 16 -21 21 -21
13z"/>
<path d="M3671 421 c93 -108 141 -159 91 -96 -22 28 -66 77 -97 110 -57 60
-57 60 6 -14z"/>
<path d="M1435 5028 c33 -38 64 -68 68 -68 15 0 4 14 -63 75 l-64 60 59 -67z"/>
<path d="M2297 4279 c7 -7 15 -10 18 -7 3 3 -2 9 -12 12 -14 6 -15 5 -6 -5z"/>
<path d="M2306 4218 c13 -43 23 -68 28 -68 3 0 -2 20 -11 45 -15 45 -31 65
-17 23z"/>
<path d="M2047 4176 c-4 -10 -1 -13 8 -9 8 3 12 9 9 14 -7 12 -11 11 -17 -5z"/>
<path d="M1623 4157 c-27 -9 -35 -20 -56 -76 -13 -36 -24 -67 -23 -68 1 -1 19
2 39 8 31 8 40 18 66 72 27 56 31 79 13 76 -4 -1 -21 -7 -39 -12z"/>
<path d="M1943 4088 c-22 -26 -37 -48 -30 -48 3 0 17 16 31 35 30 39 30 46 -1
13z"/>
<path d="M206 3991 c-14 -21 -25 -61 -17 -61 7 0 15 14 39 63 5 10 -16 9 -22
-2z"/>
<path d="M1880 3971 c-15 -29 -12 -50 4 -28 7 9 18 17 25 17 6 0 11 7 11 15 0
22 -27 19 -40 -4z"/>
<path d="M1766 3909 c-16 -40 -16 -42 3 -60 11 -11 31 -23 44 -28 20 -8 26 -5
41 20 20 34 18 37 -33 78 l-39 31 -16 -41z m24 -43 c-14 -14 -24 0 -16 21 6
15 8 15 16 3 6 -9 5 -19 0 -24z"/>
<path d="M382 3903 c-3 -42 -10 -56 -23 -48 -5 4 -9 -1 -9 -9 0 -18 -32 -21
-61 -5 -20 10 -20 10 1 43 22 37 24 46 11 46 -5 0 -18 -16 -30 -35 -15 -27
-27 -35 -48 -35 -15 0 -35 -4 -42 -9 -10 -7 -2 -8 25 -5 51 6 96 -21 124 -76
11 -22 22 -40 25 -40 2 0 34 16 69 36 l66 36 -39 57 c-56 82 -66 89 -69 44z"/>
<path d="M97 3888 c-8 -12 -18 -34 -22 -48 -4 -15 4 -8 20 19 26 45 28 71 2
29z"/>
<path d="M129 3823 c-13 -17 -13 -17 6 -3 11 8 22 16 24 17 2 2 0 3 -6 3 -6 0
-17 -8 -24 -17z"/>
<path d="M1336 3405 c-9 -26 -7 -32 5 -12 6 10 9 21 6 23 -2 3 -7 -2 -11 -11z"/>
<path d="M2 1929 c4 -123 8 -128 91 -104 31 9 57 20 57 25 0 5 -29 43 -65 84
-36 41 -65 79 -65 85 0 6 -5 11 -10 11 -7 0 -10 -36 -8 -101z"/>
<path d="M146 1814 c-11 -8 -16 -14 -10 -14 13 0 39 18 34 24 -3 2 -14 -2 -24
-10z"/>
<path d="M4165 990 c3 -5 11 -10 16 -10 6 0 7 5 4 10 -3 6 -11 10 -16 10 -6 0
-7 -4 -4 -10z"/>
<path d="M4192 958 c5 -15 28 -23 28 -10 0 5 -7 13 -16 16 -10 4 -14 1 -12 -6z"/>
<path d="M3842 908 c25 -44 48 -60 48 -33 0 24 -38 75 -56 75 -13 0 -11 -8 8
-42z"/>
</g>
</svg>
