<?xml version="1.0" standalone="no"?>
<!DOCTYPE svg PUBLIC "-//W3C//DTD SVG 20010904//EN"
 "http://www.w3.org/TR/2001/REC-SVG-20010904/DTD/svg10.dtd">
<svg version="1.0" xmlns="http://www.w3.org/2000/svg"
 width="512.000000pt" height="512.000000pt" viewBox="0 0 512.000000 512.000000"
 preserveAspectRatio="xMidYMid meet">

<g transform="translate(0.000000,512.000000) scale(0.100000,-0.100000)"
fill="#000000" stroke="none">
<path d="M4650 5016 c-54 -52 -265 -182 -359 -220 -58 -24 -155 -67 -215 -95
-117 -55 -131 -59 -122 -36 3 9 0 15 -8 15 -13 0 -42 -78 -32 -87 3 -3 50 17
105 45 55 28 98 45 95 38 -3 -7 -46 -33 -97 -57 -51 -23 -132 -65 -181 -91
-49 -26 -91 -48 -94 -48 -15 0 28 33 64 50 24 10 44 21 44 24 0 9 -38 -3 -89
-29 -28 -14 -56 -23 -60 -20 -5 2 -51 -15 -102 -39 -52 -24 -112 -49 -134 -56
-22 -7 -51 -18 -65 -25 -24 -13 -197 -88 -273 -119 -34 -14 -38 -19 -33 -43 3
-16 8 -62 11 -103 4 -41 9 -83 11 -92 3 -10 1 -18 -4 -18 -12 0 -32 123 -32
198 0 42 5 63 16 72 16 14 14 70 -4 93 -5 6 -12 51 -14 100 -3 61 -9 91 -20
100 -18 15 -36 109 -44 240 -4 53 -9 97 -13 97 -3 0 -4 -48 0 -107 3 -60 2
-110 -1 -113 -9 -7 -6 -93 4 -108 5 -8 -2 -16 -18 -22 -25 -9 -26 -13 -26 -90
0 -79 0 -80 25 -80 17 0 25 -6 25 -17 0 -9 -2 -14 -5 -11 -3 3 -31 0 -63 -6
l-57 -12 -3 -52 c-3 -59 -2 -60 71 -38 26 8 47 11 47 7 0 -3 -18 -31 -40 -60
-22 -30 -39 -56 -37 -58 2 -2 17 1 32 7 15 6 30 9 32 6 10 -10 -35 -24 -92
-30 -33 -3 -49 -2 -35 2 20 6 105 101 97 108 -1 2 -31 -3 -67 -11 -36 -7 -83
-15 -104 -18 l-39 -6 26 27 c33 34 47 72 47 125 0 85 -9 94 -62 72 -13 -5 -18
-2 -18 10 0 12 6 16 20 12 24 -6 24 -4 5 34 -19 35 -41 64 -72 92 -13 11 -23
24 -23 29 0 4 50 71 110 149 61 77 110 146 110 152 0 7 -11 -1 -23 -18 -32
-43 -191 -227 -216 -249 -20 -18 -21 -18 -55 8 -19 14 -38 35 -41 47 -7 21 -7
21 -28 1 -12 -11 -41 -22 -64 -26 l-43 -6 -1 42 c-1 24 -5 54 -9 68 -7 23 -8
22 -9 -10 0 -19 4 -55 10 -79 5 -25 14 -78 19 -118 5 -39 12 -83 16 -97 6 -24
4 -25 -23 -17 -15 5 -35 12 -44 16 -23 9 -52 -23 -46 -52 5 -29 -18 -102 -26
-82 -3 8 -6 0 -6 -17 -1 -40 18 -96 30 -88 5 3 18 -5 29 -18 19 -23 18 -23
-10 -53 -23 -25 -90 -143 -90 -160 0 -17 171 10 197 32 17 14 17 14 -2 7 -32
-11 -149 -33 -154 -28 -13 12 25 27 93 37 76 11 77 11 109 59 30 45 54 64 65
54 2 -3 -13 -27 -34 -53 -22 -27 -43 -55 -49 -64 -5 -9 -27 -41 -48 -71 -36
-53 -40 -55 -101 -66 -35 -7 -78 -12 -95 -12 l-33 0 22 36 c12 19 20 38 17 40
-11 11 -46 -72 -37 -86 5 -8 4 -22 -2 -33 -8 -16 -7 -18 9 -14 10 3 45 11 77
16 33 6 70 18 84 27 36 24 36 12 -2 -38 -34 -44 -37 -46 -118 -58 -46 -7 -86
-17 -89 -22 -3 -5 -43 2 -90 14 -46 12 -76 24 -67 26 18 3 103 -11 129 -22 13
-5 19 1 28 25 6 18 11 35 11 38 0 3 -58 5 -130 3 -71 -2 -130 -1 -130 2 0 2
14 27 31 55 l32 51 61 0 c34 0 68 5 76 10 10 7 -9 8 -60 3 l-74 -6 35 49 c19
27 51 57 72 67 20 10 37 24 37 30 -1 27 -48 65 -88 72 -42 7 -53 1 -172 -95
l-25 -20 -95 20 c-52 12 -96 23 -98 25 -2 2 22 17 54 34 33 16 52 30 43 31
-10 0 -40 -16 -69 -35 l-52 -35 -57 15 c-31 8 -104 30 -164 49 l-107 34 -6
-24 c-9 -36 21 -67 50 -52 19 10 20 10 6 -7 -14 -16 -10 -23 50 -76 35 -33 60
-59 54 -59 -5 0 -30 21 -54 46 -25 26 -77 71 -117 100 -39 30 -75 60 -79 66
-5 7 9 0 29 -15 48 -36 48 -26 -1 20 -20 19 -86 60 -147 89 l-110 54 133 -128
c101 -99 153 -141 217 -177 79 -44 102 -65 73 -65 -6 0 -59 25 -117 56 l-106
56 55 -56 c30 -31 59 -56 65 -56 5 0 21 -10 35 -21 24 -20 24 -20 2 -9 -13 6
-26 10 -28 8 -2 -3 20 -38 48 -79 29 -41 89 -129 133 -195 l81 -122 64 24 c35
13 66 22 68 20 7 -8 -47 -221 -57 -224 -6 -2 -11 -17 -11 -33 0 -21 4 -27 15
-23 19 8 19 2 0 -42 -18 -43 -15 -49 31 -64 19 -7 33 -14 31 -17 -3 -2 -20 2
-39 10 -34 14 -35 14 -46 -12 -11 -25 -11 -24 -7 12 2 21 -1 37 -6 37 -6 0 -8
4 -5 8 3 5 -4 16 -15 26 -19 16 -21 15 -50 -49 -30 -68 -52 -155 -39 -155 4 0
22 21 39 48 35 54 40 53 11 -3 -11 -22 -20 -50 -20 -63 0 -13 -15 -58 -33
-100 -19 -43 -42 -101 -52 -129 -17 -48 -22 -53 -48 -53 -22 0 -28 -4 -23 -15
3 -9 0 -15 -9 -15 -18 0 -93 -146 -81 -157 4 -4 18 5 31 22 39 48 36 25 -8
-60 -41 -78 -43 -80 -76 -77 -22 2 -31 0 -26 -7 3 -6 17 -11 31 -11 13 0 24
-1 24 -2 0 -2 -6 -23 -14 -48 -12 -41 -16 -45 -47 -46 -19 -1 -38 -2 -42 -3
-5 0 1 -13 12 -27 22 -28 18 -46 -17 -86 -13 -16 -13 -18 0 -18 17 0 38 22 62
65 l17 30 -5 -33 c-7 -39 -84 -208 -91 -200 -3 3 -1 17 5 32 5 15 10 38 10 52
0 23 -2 24 -38 18 -20 -4 -39 -8 -40 -10 -8 -6 10 -64 19 -59 5 4 6 -1 3 -9
-3 -9 -10 -16 -15 -16 -5 0 -9 -9 -9 -19 0 -13 9 -21 29 -26 l29 -6 -27 -60
c-22 -52 -29 -60 -49 -56 -29 5 -29 -9 1 -18 21 -7 20 -8 -8 -14 -31 -7 -49
-41 -21 -41 16 0 22 -21 10 -33 -6 -6 -15 -30 -48 -122 -4 -11 9 10 28 47 34
64 52 85 62 75 11 -11 -62 -142 -81 -147 -11 -3 -21 -9 -22 -15 -1 -5 -4 -18
-8 -27 -5 -13 -2 -15 16 -11 l23 6 -21 -29 c-26 -37 -63 -121 -63 -144 0 -10
8 -20 18 -23 9 -2 25 -8 35 -12 14 -6 23 5 47 58 16 36 34 68 40 72 5 3 10 17
10 30 0 13 8 28 17 34 10 5 33 49 53 98 29 72 40 88 56 85 35 -5 129 222 105
252 -16 19 -2 26 26 13 27 -12 43 1 43 36 0 22 6 22 37 -3 14 -11 33 -20 42
-20 26 0 101 32 103 44 0 6 2 16 2 21 1 6 7 19 13 31 9 15 9 24 2 31 -8 8 -8
17 0 31 20 37 13 89 -14 110 -24 19 -24 21 -10 56 l15 35 33 -19 34 -20 114
202 c158 282 180 328 186 382 3 25 10 49 14 52 5 3 9 38 9 78 0 72 -1 74 -30
86 -22 9 -30 19 -30 37 0 25 1 25 25 9 23 -15 25 -15 37 7 6 12 30 78 53 146
l42 124 24 -49 c14 -29 35 -54 51 -62 15 -7 36 -32 48 -57 12 -25 26 -45 32
-45 5 0 16 -7 25 -15 14 -14 17 -14 34 1 28 25 37 10 44 -74 4 -42 12 -85 17
-95 9 -17 8 -18 -15 -2 -31 20 -36 13 -46 -61 l-8 -54 33 0 c17 0 34 6 37 14
3 8 30 16 71 20 37 4 80 9 96 12 l29 6 -13 -49 c-14 -51 -35 -97 -36 -77 0 6
7 30 15 53 l15 43 -28 -6 c-15 -3 -51 -8 -79 -11 -52 -7 -53 -7 -53 -41 l0
-34 43 6 c23 3 49 8 57 10 10 4 12 2 5 -5 -5 -5 -34 -13 -62 -17 l-53 -7 -1
39 -1 39 -13 -30 c-18 -39 -18 -46 3 -72 16 -21 21 -22 77 -14 33 5 68 12 77
16 13 5 11 -5 -13 -48 -30 -57 -49 -67 -132 -67 -15 0 -30 -6 -33 -14 -9 -22
15 -58 34 -52 9 2 34 7 55 11 22 3 37 12 37 20 0 8 6 18 14 22 7 4 27 40 44
78 17 39 32 65 32 58 0 -20 -61 -171 -74 -182 -7 -6 -41 -14 -75 -17 -33 -4
-61 -11 -61 -16 0 -5 12 -56 26 -113 l26 -105 59 0 c48 0 60 4 73 22 12 17 16
18 16 6 0 -26 -21 -36 -91 -43 l-65 -7 -33 149 c-19 81 -38 154 -44 160 -6 9
-6 26 1 53 11 43 8 50 -22 50 -12 1 -38 7 -59 15 -38 13 -39 13 -49 -15 l-9
-29 -65 30 c-46 20 -66 25 -69 16 -2 -6 -22 -70 -45 -142 -23 -71 -46 -135
-51 -142 -6 -6 -8 -21 -5 -31 4 -11 0 -87 -8 -168 -8 -82 -17 -187 -21 -234
-5 -85 -5 -85 14 -62 11 12 21 22 24 22 10 0 -10 -67 -28 -93 -20 -31 -21 -30
21 -49 l31 -13 -38 -60 c-21 -33 -39 -52 -39 -42 0 11 -19 26 -56 44 -67 31
-74 26 -74 -57 0 -101 28 -234 68 -327 63 -143 80 -251 61 -383 -19 -134 -20
-129 36 -161 28 -15 58 -28 68 -28 18 -1 17 -3 -3 -36 -12 -19 -28 -48 -36
-65 l-16 -30 -26 18 c-27 19 -129 72 -138 72 -5 0 -34 -64 -34 -74 0 -2 9 -6
20 -9 29 -7 35 -35 16 -68 l-17 -28 60 -18 60 -18 -51 -45 -51 -46 -60 19
c-40 13 -62 16 -69 9 -7 -7 2 -14 28 -21 22 -6 45 -11 52 -11 22 0 12 -14 -38
-53 -52 -39 -72 -44 -116 -27 -15 6 -35 8 -43 4 -12 -5 -9 -9 14 -20 17 -7 40
-13 53 -14 12 0 22 -4 22 -8 0 -9 -138 -165 -151 -170 -4 -2 -22 4 -39 13 -36
19 -77 13 -77 -10 0 -10 23 -22 70 -37 66 -20 84 -21 281 -14 197 6 215 5 271
-14 33 -11 103 -27 155 -35 52 -8 130 -26 175 -40 97 -30 214 -60 355 -91
l105 -23 -206 6 c-198 6 -291 0 -273 -16 5 -4 45 -16 89 -27 73 -17 132 -19
675 -21 560 -1 591 -1 528 14 -38 9 -68 19 -68 23 0 12 69 22 102 15 17 -4 54
-18 82 -31 l51 -24 708 0 707 0 0 210 c0 116 -3 210 -7 210 -5 0 -30 -13 -58
-29 l-49 -30 44 -3 45 -3 -57 -32 c-32 -18 -62 -33 -67 -33 -8 0 -153 -84
-216 -126 -14 -9 -25 -14 -25 -12 0 3 32 26 70 52 39 25 70 48 70 51 0 3 -26
-9 -57 -27 -31 -18 -53 -27 -49 -20 10 16 -6 15 -24 0 -12 -11 -12 -10 -2 3 7
9 26 22 42 29 17 7 30 17 30 22 0 11 -31 3 -73 -19 -46 -23 -42 -9 9 36 l47
41 -39 -16 c-79 -33 -131 -64 -234 -139 -103 -74 -102 -72 10 24 88 75 455
284 548 312 l42 12 0 254 0 255 -42 -24 c-79 -45 -287 -217 -262 -218 6 0 31
20 56 45 44 43 67 58 52 33 -4 -7 -3 -8 5 -4 6 4 8 12 5 18 -4 7 -2 8 5 4 7
-5 10 -2 9 6 -3 14 49 16 110 3 l33 -7 -27 -29 c-31 -33 -99 -71 -129 -73 -26
-1 -103 -56 -110 -78 -6 -17 -92 -94 -110 -98 -5 -1 -20 -6 -33 -11 -38 -15
-38 -11 4 34 22 23 57 63 77 89 l37 47 -43 -25 c-24 -13 -68 -51 -96 -84 -29
-33 -58 -60 -66 -60 -7 0 -32 -21 -55 -48 l-41 -47 35 60 c19 33 49 84 68 114
42 68 228 261 235 243 2 -6 9 -10 13 -7 5 3 7 12 4 19 -7 19 73 81 181 143
l85 48 -1 248 c0 136 -2 247 -4 247 -3 0 -20 -8 -40 -17 -25 -12 -35 -22 -32
-34 3 -12 -5 -21 -25 -30 -30 -12 -30 -13 -9 -21 15 -5 33 -2 53 8 16 9 27 11
23 5 -8 -14 -60 -41 -87 -46 -11 -3 -51 -20 -89 -40 -71 -36 -98 -45 -65 -20
11 8 15 15 9 15 -6 0 -21 -8 -34 -18 -13 -10 -39 -24 -56 -31 -38 -15 -41 -26
-13 -43 11 -7 20 -19 20 -26 0 -7 7 -15 15 -18 22 -9 18 -18 -15 -32 -16 -8
-30 -20 -30 -28 0 -18 0 -18 60 6 55 22 74 25 66 11 -12 -19 -338 -151 -375
-151 -7 0 14 18 48 41 100 67 85 79 -24 20 -27 -15 -79 -38 -115 -51 -36 -13
-74 -32 -86 -44 l-20 -21 57 -70 c32 -39 64 -77 73 -84 9 -8 16 -18 16 -23 0
-6 7 -25 16 -44 14 -30 14 -35 0 -56 -21 -29 -20 -35 6 -41 20 -6 18 -9 -23
-49 -25 -24 -64 -63 -87 -88 -63 -67 -51 -26 15 54 68 82 42 72 -44 -17 -34
-35 -78 -74 -97 -88 -53 -36 -44 -43 16 -13 42 21 56 24 70 15 15 -9 27 -6 64
15 29 17 48 23 52 17 7 -11 72 -10 90 1 6 3 -3 -21 -20 -54 -17 -33 -29 -63
-26 -66 3 -3 32 2 64 10 64 17 79 15 42 -5 -22 -13 -28 -15 -46 -18 -5 0 -17
-26 -27 -56 -19 -53 -19 -54 -37 -35 -14 15 -16 24 -8 45 12 32 12 35 2 35 -4
0 -13 -15 -20 -33 l-12 -33 -77 7 c-83 8 -143 -2 -163 -26 -7 -8 -21 -15 -32
-15 -16 0 -15 3 9 24 21 19 25 27 17 36 -9 9 -17 9 -34 0 -34 -18 -43 2 -15
32 18 19 21 28 11 31 -8 3 -18 1 -24 -5 -7 -7 -17 -6 -32 2 -16 9 -25 9 -36
-1 -8 -6 -12 -14 -10 -17 3 -2 -5 -12 -17 -22 -34 -28 -85 6 -54 36 4 4 7 13
7 21 0 20 -30 15 -49 -9 -24 -29 -54 -34 -46 -7 4 10 2 19 -3 19 -10 0 -52 77
-52 94 0 4 10 6 23 4 19 -3 22 2 25 40 2 32 9 46 28 58 14 10 24 26 24 40 0
30 -59 214 -68 214 -14 0 -36 -45 -34 -70 2 -22 0 -20 -13 9 -8 18 -15 40 -15
48 0 25 -29 71 -49 78 -10 3 -18 11 -18 18 1 7 -5 31 -12 54 -13 40 -13 43 8
60 l22 18 -23 30 c-22 28 -23 39 -28 230 -7 229 -16 265 -103 387 -52 73 -68
88 -94 92 -10 2 -17 10 -16 18 5 25 -80 143 -102 143 -17 0 -20 -6 -18 -39 3
-48 -4 -42 -22 18 -9 28 -10 48 -4 51 5 4 5 13 -1 25 -15 28 -12 38 5 16 21
-28 27 -14 11 25 -8 19 -22 72 -31 118 -9 46 -24 102 -32 125 -8 23 -16 57
-17 76 -2 19 -6 42 -10 51 -9 20 8 28 86 36 50 5 58 9 58 27 0 38 -68 290
-102 378 -30 78 -38 91 -83 122 -41 30 -51 33 -58 21 -4 -9 -12 -13 -17 -10
-16 10 -50 -15 -50 -35 0 -36 -34 -22 -56 23 -16 32 -28 43 -49 45 l-28 4 6
-54 c3 -33 2 -45 -3 -33 -5 11 -9 32 -9 48 -1 19 -6 27 -19 27 -41 0 -71 133
-38 169 l18 20 40 -20 c61 -31 103 -17 148 48 29 42 39 51 58 46 12 -3 33 -2
46 1 21 5 27 17 45 97 26 110 26 106 1 114 -17 5 -20 15 -20 65 0 63 12 83 30
50 6 -12 17 -19 25 -17 8 4 33 -37 73 -124 34 -71 65 -129 70 -129 4 0 13 5
20 12 9 9 12 7 12 -9 0 -12 5 -25 10 -28 14 -8 13 -36 -1 -33 -15 4 -22 -196
-8 -247 10 -35 53 -236 63 -290 2 -11 4 -43 5 -71 2 -91 50 -137 119 -112 39
13 24 0 -23 -21 -25 -11 -45 -24 -45 -30 0 -5 -12 -23 -26 -40 -20 -24 -24
-34 -15 -45 9 -11 5 -19 -17 -38 -27 -22 -29 -30 -27 -78 3 -51 14 -70 43 -70
6 0 12 11 12 24 0 13 6 35 13 48 13 26 71 88 81 88 10 0 7 -98 -4 -105 -5 -3
-7 -12 -4 -19 3 -7 -10 -25 -29 -39 -28 -21 -42 -25 -71 -20 -41 6 -41 7 -21
-35 25 -49 74 -72 151 -70 63 2 67 4 116 49 27 26 47 52 44 57 -3 5 1 15 9 22
8 7 15 17 15 22 0 5 6 15 13 22 8 9 11 36 7 94 -4 71 -3 82 13 86 12 3 17 14
17 36 0 27 3 31 18 25 37 -15 44 -11 48 35 2 25 13 137 24 250 43 431 40 482
-34 581 -24 32 -46 64 -48 71 -2 6 -10 8 -16 4 -7 -4 -12 -31 -12 -67 0 -32
-4 -59 -9 -59 -6 0 -29 22 -52 50 -23 27 -46 47 -50 44 -5 -3 -10 -29 -11 -57
-1 -49 -2 -49 -5 -11 -3 34 -7 41 -22 37 -11 -3 -24 5 -35 22 -16 24 -16 26 0
23 36 -7 40 27 13 109 l-26 78 81 -7 c149 -12 142 -14 173 40 15 26 46 77 70
115 24 37 43 72 43 77 0 6 -40 10 -99 10 -67 0 -102 4 -109 13 -8 9 14 11 108
9 l118 -4 100 169 c54 92 127 218 162 278 35 61 85 143 112 183 28 41 47 76
44 79 -3 3 -42 -15 -88 -40 -110 -60 -224 -117 -234 -117 -15 0 40 34 186 115
163 91 165 93 251 263 29 56 56 105 61 108 10 7 11 24 0 24 -4 0 -14 -6 -22
-14z m-350 -260 c0 -2 -8 -10 -17 -17 -16 -13 -17 -12 -4 4 13 16 21 21 21 13z
m-55 -46 c-3 -5 -12 -10 -18 -10 -7 0 -6 4 3 10 19 12 23 12 15 0z m-45 -35
c0 -2 -28 -23 -62 -47 -35 -23 -85 -62 -113 -86 -37 -33 -34 -29 10 14 33 33
82 74 109 92 50 33 56 35 56 27z m-1700 -80 c-7 -8 -21 -15 -31 -15 -11 0 -19
7 -19 15 0 10 10 15 31 15 27 0 30 -2 19 -15z m155 -25 c3 -5 1 -10 -4 -10 -6
0 -11 5 -11 10 0 6 2 10 4 10 3 0 8 -4 11 -10z m1689 -52 c-44 -33 -53 -36
-19 -6 16 15 34 28 39 28 5 0 -4 -10 -20 -22z m-218 -9 c7 -12 -12 -29 -34
-29 -10 0 -10 5 -2 20 12 22 25 26 36 9z m-156 -12 c0 -2 -19 -21 -42 -42
l-43 -40 40 43 c36 39 45 47 45 39z m-1577 -74 c-7 -2 -21 -2 -30 0 -10 3 -4
5 12 5 17 0 24 -2 18 -5z m202 -7 c19 -13 17 -15 -18 -21 -45 -9 -60 1 -33 21
24 17 28 17 51 0z m-170 -26 c-3 -5 -13 -10 -21 -10 -8 0 -14 5 -14 10 0 6 9
10 21 10 11 0 17 -4 14 -10z m1435 6 c0 -2 -8 -10 -17 -17 -16 -13 -17 -12 -4
4 13 16 21 21 21 13z m-1295 -26 c-3 -5 -18 -10 -33 -9 l-27 1 25 8 c35 11 42
11 35 0z m-120 -10 c19 -7 19 -8 2 -15 -17 -7 -18 -16 -13 -79 6 -69 6 -70 -8
-38 -8 18 -18 48 -22 67 -7 37 -13 42 -32 23 -9 -9 -15 -9 -23 -1 -14 14 -3
34 15 27 8 -3 20 2 27 10 16 17 25 18 54 6z m251 1 c-8 -12 -66 -32 -66 -23 0
5 15 13 33 19 17 5 33 11 35 12 2 0 1 -3 -2 -8z m1079 -31 c-3 -5 -16 -15 -28
-21 -19 -9 -19 -8 3 10 28 23 34 26 25 11z m-478 -87 c-3 -10 -5 -4 -5 12 0
17 2 24 5 18 2 -7 2 -21 0 -30z m-810 -35 c-3 -7 -5 -2 -5 12 0 14 2 19 5 13
2 -7 2 -19 0 -25z m31 -73 c-7 -7 -171 -35 -177 -30 -6 6 16 14 69 24 51 10
116 14 108 6z m148 -17 c-9 -13 -21 -33 -28 -45 -6 -13 -16 -23 -21 -23 -5 0
-3 10 5 23 8 12 21 32 29 45 8 12 18 22 23 22 4 0 1 -10 -8 -22z m249 -72
c-34 -47 -53 -66 -69 -66 -12 0 -85 -20 -161 -45 -77 -24 -145 -45 -152 -45
-6 0 5 27 24 60 27 44 42 60 57 59 12 0 15 -3 8 -6 -7 -2 -27 -26 -44 -51 -18
-26 -25 -41 -17 -35 9 7 19 9 23 5 4 -4 6 -2 4 4 -7 22 100 93 116 77 3 -4 6
-15 6 -26 0 -19 1 -19 20 -2 14 12 17 22 10 34 -9 18 -2 25 79 69 28 14 40 18
32 8 -7 -8 -21 -18 -32 -21 -10 -4 -19 -11 -19 -16 0 -6 7 -6 18 -1 9 5 30 12
45 16 l28 7 -21 -41 c-11 -22 -18 -40 -15 -40 2 0 13 17 24 38 11 21 27 44 35
51 9 7 13 18 9 24 -3 5 -1 7 5 3 6 -3 14 -1 17 5 4 5 9 8 11 6 3 -3 -16 -34
-41 -71z m-525 28 c-30 -7 -56 -11 -58 -9 -6 6 60 23 88 23 14 0 0 -6 -30 -14z
m1003 -31 c-8 -21 -20 -15 -18 10 4 32 4 33 14 18 5 -8 7 -20 4 -28z m47 16
c0 -5 -4 -9 -10 -9 -5 0 -10 7 -10 16 0 8 5 12 10 9 6 -3 10 -10 10 -16z
m-1912 -16 c-14 -16 -33 -43 -42 -61 -17 -32 -17 -33 20 -92 20 -33 41 -60 45
-60 5 0 9 -7 9 -15 0 -9 7 -30 16 -47 11 -22 12 -29 3 -26 -7 2 -17 18 -23 34
-6 16 -25 50 -42 74 -47 70 -79 124 -67 117 5 -3 15 4 20 16 15 32 63 87 76
87 6 0 -1 -12 -15 -27z m90 10 c-10 -2 -26 -2 -35 0 -10 3 -2 5 17 5 19 0 27
-2 18 -5z m1672 -97 c0 -2 -8 -10 -17 -17 -16 -13 -17 -12 -4 4 13 16 21 21
21 13z m-486 -56 c-16 -16 -204 -81 -204 -71 0 8 60 34 170 74 27 10 45 8 34
-3z m36 -39 c0 -10 5 -8 -114 -55 -88 -36 -141 -47 -120 -26 11 11 200 87 222
89 6 0 12 -3 12 -8z m-15 -60 c-14 -13 -186 -83 -191 -78 -5 4 174 85 191 86
5 1 5 -2 0 -8z m-995 -40 c-6 -12 -18 -21 -27 -21 -13 0 -11 5 8 23 28 27 35
27 19 -2z m1055 -19 c-17 -15 -227 -103 -233 -98 -3 3 10 12 29 20 19 8 72 30
119 50 91 38 99 41 85 28z m-760 -15 c42 -11 51 -18 59 -43 5 -16 19 -56 31
-89 l21 -60 55 4 c61 4 81 12 123 50 22 20 26 21 17 6 -34 -61 -77 -83 -168
-85 -26 0 -36 6 -48 30 -9 17 -23 30 -33 30 -9 1 -30 7 -47 15 -29 14 -24 14
37 0 25 -7 26 -5 19 22 -6 24 -17 31 -72 50 -35 12 -66 22 -68 23 -2 0 -2 2 0
5 3 2 20 0 37 -5 18 -6 46 -14 62 -19 26 -8 30 -7 30 8 0 14 -16 22 -63 35
-34 9 -69 21 -77 26 -22 14 24 12 85 -3z m-107 -100 c13 -3 11 -5 -4 -6 -22
-1 -35 23 -33 64 1 11 5 3 11 -17 5 -20 17 -39 26 -41z m-354 -8 c-7 -13 -67
-39 -86 -39 -13 1 70 49 85 50 5 0 5 -5 1 -11z m607 -189 c9 -30 17 -40 33
-40 20 -1 20 -1 3 -11 -10 -6 -20 -9 -22 -7 -10 10 -44 108 -35 103 5 -3 15
-24 21 -45z m-474 -52 c-3 -8 -6 -5 -6 6 -1 11 2 17 5 13 3 -3 4 -12 1 -19z
m566 5 c-7 -2 -19 -2 -25 0 -7 3 -2 5 12 5 14 0 19 -2 13 -5z m750 -2 c16 -6
15 -10 -13 -49 -31 -43 -63 -62 -103 -62 -20 0 -19 3 10 25 17 14 41 41 53 60
23 37 24 38 53 26z m-799 -58 c9 -18 14 -33 12 -33 -6 0 -36 55 -36 66 0 11 5
3 24 -33z m1202 -83 c5 -18 4 -22 -4 -15 -6 6 -13 30 -16 55 -6 46 -4 42 20
-40z m-1779 50 c20 0 22 -3 12 -27 -5 -16 -12 -34 -15 -42 -2 -8 -7 -12 -10
-9 -2 3 0 17 5 31 10 25 8 27 -24 33 -19 3 -35 11 -35 16 0 6 10 8 23 4 12 -3
32 -6 44 -6z m1948 -30 c-3 -5 -11 -10 -16 -10 -6 0 -7 5 -4 10 3 6 11 10 16
10 6 0 7 -4 4 -10z m95 -50 l0 -40 -25 16 -26 17 22 23 c13 13 24 24 26 24 2
0 3 -18 3 -40z m-1421 -90 c1 -46 -2 -61 -9 -50 -6 8 -9 35 -8 60 0 25 -2 59
-6 75 l-7 30 15 -25 c9 -15 15 -50 15 -90z m-710 -40 c35 -10 69 -16 75 -13 6
4 -3 -10 -21 -30 -18 -20 -40 -60 -50 -88 -33 -96 -88 -212 -101 -217 -11 -3
-11 1 1 19 16 24 107 242 107 255 0 3 -12 4 -26 1 -26 -5 -101 19 -91 29 2 3
26 0 53 -6 54 -12 89 -7 97 14 4 10 1 13 -9 9 -18 -7 -124 17 -124 27 0 8 11
20 19 20 3 0 35 -9 70 -20z m1161 -54 c0 -3 -4 -8 -10 -11 -5 -3 -10 -1 -10 4
0 6 5 11 10 11 6 0 10 -2 10 -4z m-158 -84 c-29 -15 -50 -31 -47 -34 4 -3 2
-9 -4 -13 -7 -4 -11 4 -11 20 0 14 4 24 8 21 4 -2 26 4 47 14 62 28 66 22 7
-8z m298 8 c0 -5 -2 -10 -4 -10 -3 0 -8 5 -11 10 -3 6 -1 10 4 10 6 0 11 -4
11 -10z m834 -15 c4 -10 -1 -15 -15 -15 -17 0 -18 2 -7 15 16 18 15 18 22 0z
m-53 -90 c-2 -11 -6 -14 -8 -8 -3 8 -20 6 -59 -7 -30 -10 -54 -15 -54 -11 0 4
25 15 55 25 51 16 55 19 56 49 l1 32 7 -30 c4 -16 5 -39 2 -50z m-51 51 c0 -2
-7 -7 -16 -10 -8 -3 -12 -2 -9 4 6 10 25 14 25 6z m100 -56 c0 -5 -4 -10 -10
-10 -5 0 -10 5 -10 10 0 6 5 10 10 10 6 0 10 -4 10 -10z m-2305 -70 c3 -5 1
-10 -4 -10 -6 0 -11 5 -11 10 0 6 2 10 4 10 3 0 8 -4 11 -10z m2305 -2 c0 -11
-28 -10 -35 1 -3 6 4 9 15 8 11 -1 20 -5 20 -9z m-2357 -81 c-14 -29 -28 -46
-30 -39 -3 6 -11 12 -19 12 -8 0 -14 5 -14 11 0 6 9 9 19 6 22 -5 48 34 43 67
-3 17 -2 18 12 7 14 -12 13 -18 -11 -64z m674 46 c-3 -3 -11 -2 -17 2 -9 6 -9
10 1 16 14 8 27 -7 16 -18z m-617 -3 c0 -5 -4 -10 -10 -10 -5 0 -10 5 -10 10
0 6 5 10 10 10 6 0 10 -4 10 -10z m63 -57 c-24 -58 -44 -95 -49 -90 -4 4 31
86 49 115 16 24 16 11 0 -25z m564 -24 c17 -5 34 -16 37 -24 7 -20 4 -19 -54
10 -47 24 -70 46 -32 30 9 -4 31 -11 49 -16z m1666 -159 c3 -11 1 -18 -4 -14
-5 3 -9 12 -9 20 0 20 7 17 13 -6z m-818 -20 c3 -5 1 -10 -4 -10 -6 0 -11 5
-11 10 0 6 2 10 4 10 3 0 8 -4 11 -10z m-225 -80 c9 -5 19 -5 26 0 7 7 22 -19
49 -87 21 -53 38 -104 38 -112 0 -9 29 -69 64 -134 35 -65 63 -125 63 -133 0
-8 6 -14 14 -14 10 0 17 16 22 45 6 43 5 56 -11 100 -6 19 -6 19 8 2 8 -10 18
-51 22 -95 3 -42 11 -97 16 -121 12 -53 6 -63 -15 -24 -13 23 -15 25 -16 8 0
-11 16 -54 36 -95 20 -41 40 -86 45 -99 8 -21 8 -22 -6 -11 -21 18 -20 -2 10
-150 14 -68 23 -125 21 -127 -2 -3 -7 9 -11 26 -4 17 -11 34 -17 37 -13 8 -10
-3 22 -91 12 -32 31 -73 43 -90 28 -41 128 -168 142 -180 7 -5 12 -17 13 -25
0 -8 9 -43 19 -78 l19 -62 14 37 13 38 8 -28 c4 -16 13 -35 20 -43 22 -27 18
-76 -9 -124 l-27 -45 -6 30 c-4 17 -7 46 -8 65 -2 56 -20 15 -22 -50 -2 -52
-2 -53 -8 -15 -6 37 -10 41 -41 37 -16 -3 -12 -49 11 -150 l22 -93 30 7 c29 6
30 6 23 -26 -3 -18 -6 -50 -6 -71 0 -32 -4 -39 -19 -39 -24 0 -31 -18 -38 -98
-5 -49 -10 -65 -26 -73 -14 -8 -21 -8 -26 0 -9 14 -81 2 -81 -14 0 -9 19 -12
64 -12 36 1 62 5 60 9 -14 22 10 3 51 -41 l45 -48 92 -7 c99 -7 145 -25 68
-27 -105 -2 -158 4 -234 26 -45 12 -110 28 -146 35 -54 9 -66 15 -66 31 0 10
7 19 16 19 12 1 12 2 -2 11 -9 5 -59 13 -110 18 -51 5 -129 18 -173 29 -44 11
-114 25 -155 32 -76 11 -102 20 -59 20 61 1 46 18 -33 39 -46 11 -89 21 -95
21 -7 0 -13 6 -14 13 0 9 -2 9 -6 0 -2 -7 -13 -13 -24 -13 -14 0 -19 7 -19 30
0 23 -4 30 -20 30 -12 0 -25 10 -32 24 -6 16 -21 26 -37 28 -25 3 -25 4 20 38
l46 35 -44 67 c-23 38 -43 77 -43 88 0 10 11 31 24 47 l24 27 -25 55 c-26 61
-51 93 -64 85 -18 -11 -22 29 -5 42 16 11 16 17 5 47 -11 31 -9 45 19 134 17
54 47 123 67 152 19 30 48 90 64 133 28 73 29 80 16 120 -7 24 -21 69 -30 101
-10 37 -20 55 -27 51 -7 -4 -8 -3 -4 4 8 14 -12 55 -23 48 -20 -13 -43 34 -44
89 -2 43 -7 60 -21 71 -16 11 -18 18 -8 38 7 17 17 23 30 20 16 -5 21 6 39 73
12 43 21 85 22 93 1 30 25 110 33 110 4 0 8 15 8 33 0 46 10 52 34 22 21 -25
23 -25 106 -18 80 8 86 10 98 37 8 15 16 35 17 45 2 9 4 17 4 19 2 6 37 1 51
-8z m-96 -69 c-6 -6 -24 19 -24 34 1 6 7 1 15 -9 8 -11 12 -22 9 -25z m1036
-20 c0 -5 -7 -12 -16 -15 -14 -5 -15 -4 -4 9 14 17 20 19 20 6z m-2160 -60 c0
-11 5 -23 10 -26 15 -9 12 -25 -5 -25 -17 0 -39 46 -29 61 9 16 24 10 24 -10z
m1720 -226 c0 -6 -76 -45 -87 -45 -4 1 12 12 37 25 50 27 50 27 50 20z m-130
-59 c0 -2 -7 -7 -16 -10 -8 -3 -12 -2 -9 4 6 10 25 14 25 6z m270 -18 c0 -6
-6 -5 -15 2 -8 7 -15 14 -15 16 0 2 7 1 15 -2 8 -4 15 -11 15 -16z m-300 -34
c21 -49 26 -70 9 -41 -17 29 -40 87 -34 87 3 0 15 -21 25 -46z m-1860 -86 c0
-13 -23 -5 -28 10 -2 7 2 10 12 6 9 -3 16 -11 16 -16z m1164 -74 c3 -8 2 -12
-4 -9 -6 3 -10 10 -10 16 0 14 7 11 14 -7z m-509 -166 c6 -5 -12 0 -40 12 -27
12 -54 26 -60 31 -13 13 86 -30 100 -43z m3231 -3 c-11 -8 -24 -15 -30 -15 -5
0 -1 7 10 15 10 8 24 14 29 14 6 0 1 -6 -9 -14z m-4096 -50 c0 -8 -4 -15 -9
-15 -5 0 -11 -11 -13 -25 -2 -18 -7 -22 -17 -16 -12 8 -12 13 0 40 14 32 39
42 39 16z m970 -390 c7 -9 8 -15 2 -15 -5 0 -12 7 -16 15 -3 8 -4 15 -2 15 2
0 9 -7 16 -15z m2764 5 c-11 -11 -156 -62 -161 -56 -5 5 77 53 102 59 37 9 70
8 59 -3z m-1045 -220 c11 -24 11 -24 -3 -6 -9 11 -16 24 -16 30 0 12 5 7 19
-24z m-1439 -44 c0 -3 -15 -14 -32 -26 l-33 -22 28 26 c27 25 37 31 37 22z
m-82 -86 c-22 -30 -35 -41 -22 -17 9 16 36 47 41 47 2 0 -6 -13 -19 -30z
m2725 -73 c-72 -67 -174 -149 -178 -145 -5 5 157 156 194 180 42 29 35 13 -16
-35z m-209 -79 c-67 -72 -114 -113 -114 -102 0 11 163 174 169 169 2 -3 -22
-33 -55 -67z m-2409 -68 c17 -33 20 -54 5 -45 -6 4 -8 10 -5 15 3 5 -6 17 -20
28 -28 23 -32 32 -10 32 8 0 21 -13 30 -30z m1180 -56 c-4 -27 -10 -42 -17
-38 -6 4 -8 -2 -4 -17 3 -13 3 -18 0 -11 -3 6 -11 9 -16 6 -7 -5 -8 -2 -3 7 6
11 5 11 -4 3 -7 -6 -15 -38 -17 -70 -4 -43 -3 -55 5 -44 6 8 11 24 11 35 0 11
5 27 11 35 8 11 9 5 4 -23 -3 -21 -9 -46 -12 -55 -6 -14 -4 -15 9 -4 13 11 16
9 21 -13 3 -18 1 -25 -8 -21 -9 3 -16 -18 -24 -70 -7 -41 -16 -74 -21 -74 -14
0 -60 60 -60 78 0 28 12 62 21 62 4 0 11 -16 15 -35 3 -19 11 -32 16 -29 6 4
7 22 3 43 -7 36 -8 104 -2 152 2 14 13 40 26 57 12 17 27 46 33 64 15 41 22
20 13 -38z m1210 -67 c-14 -24 -25 -50 -25 -59 0 -8 -7 -15 -15 -15 -15 0 -9
12 43 95 26 40 24 23 -3 -21z m-98 -44 c-3 -10 -8 -31 -11 -46 -7 -28 -7 -28
19 -11 14 9 25 12 25 8 -1 -12 -30 -50 -30 -39 0 5 -5 4 -12 -3 -15 -15 -31
-16 -22 -1 4 7 9 30 11 52 3 39 9 57 19 57 3 0 3 -8 1 -17z m-3037 -84 c-25
-10 -54 -18 -65 -18 -19 0 -19 1 3 19 15 12 37 19 65 18 l42 0 -45 -19z m3570
7 c0 -2 -36 -25 -81 -52 -116 -70 -165 -98 -159 -92 4 5 32 25 179 125 30 20
61 30 61 19z"/>
<path d="M2853 1753 c8 -8 24 -13 37 -11 17 2 15 5 -15 14 -32 10 -35 10 -22
-3z"/>
<path d="M3260 842 c0 -5 7 -15 15 -22 8 -7 15 -8 15 -2 0 5 -7 15 -15 22 -8
7 -15 8 -15 2z"/>
<path d="M2675 570 c3 -5 15 -10 26 -10 11 0 17 5 14 10 -3 6 -15 10 -26 10
-11 0 -17 -4 -14 -10z"/>
<path d="M2750 530 c0 -13 40 -13 60 0 11 7 5 10 -22 10 -21 0 -38 -4 -38 -10z"/>
<path d="M2658 493 c7 -3 16 -2 19 1 4 3 -2 6 -13 5 -11 0 -14 -3 -6 -6z"/>
<path d="M2550 479 c-11 -7 -1 -8 35 -3 28 4 52 8 54 10 10 9 -76 3 -89 -7z"/>
<path d="M3059 466 c-5 -5 -415 -77 -427 -75 -23 4 -42 -2 -37 -11 9 -15 83
-7 245 24 74 14 164 31 200 37 36 6 76 15 90 19 21 7 17 9 -21 9 -25 1 -48 -1
-50 -3z"/>
<path d="M3066 371 c-3 -5 4 -11 16 -14 25 -7 33 -3 23 12 -8 13 -32 14 -39 2z"/>
<path d="M2870 311 c0 -11 49 -21 55 -11 3 4 -5 10 -18 14 -30 8 -37 7 -37 -3z"/>
<path d="M3057 293 c-15 -15 -5 -22 23 -17 18 4 36 1 45 -6 11 -9 19 -10 26
-3 7 7 0 14 -22 22 -36 12 -63 14 -72 4z"/>
<path d="M3210 290 c0 -5 7 -10 15 -10 8 0 15 5 15 10 0 6 -7 10 -15 10 -8 0
-15 -4 -15 -10z"/>
<path d="M3859 5003 c-13 -16 -12 -17 4 -4 16 13 21 21 13 21 -2 0 -10 -8 -17
-17z"/>
<path d="M576 4884 c4 -16 13 -49 21 -74 l13 -45 -4 57 c-3 35 -11 64 -21 74
-15 15 -15 14 -9 -12z"/>
<path d="M541 4864 c0 -11 3 -14 6 -6 3 7 2 16 -1 19 -3 4 -6 -2 -5 -13z"/>
<path d="M4921 4860 c-1 -8 -4 -26 -7 -40 -5 -22 -4 -23 6 -7 6 10 9 28 7 40
-2 12 -5 15 -6 7z"/>
<path d="M571 4824 c0 -11 3 -14 6 -6 3 7 2 16 -1 19 -3 4 -6 -2 -5 -13z"/>
<path d="M634 4746 c-3 -21 -4 -39 -1 -42 2 -3 8 11 11 32 4 20 5 38 2 41 -2
3 -8 -11 -12 -31z"/>
<path d="M2141 4733 c18 -21 36 -40 39 -43 5 -5 95 -110 140 -162 13 -15 27
-25 33 -21 5 3 6 -3 2 -16 -3 -11 -4 -21 -1 -21 8 0 59 110 54 116 -3 2 -13
-14 -23 -36 -17 -38 -19 -39 -37 -24 -10 10 -18 22 -18 28 0 13 -202 216 -215
216 -5 0 7 -17 26 -37z"/>
<path d="M1580 4649 c0 -5 5 -7 10 -4 6 3 10 8 10 11 0 2 -4 4 -10 4 -5 0 -10
-5 -10 -11z"/>
<path d="M1550 4630 c0 -5 5 -10 11 -10 5 0 7 5 4 10 -3 6 -8 10 -11 10 -2 0
-4 -4 -4 -10z"/>
<path d="M3860 4620 c-14 -11 -46 -30 -72 -41 -26 -12 -55 -30 -65 -42 -13
-14 2 -9 55 19 74 40 135 83 117 83 -5 0 -21 -8 -35 -19z"/>
<path d="M4780 4594 c0 -8 5 -12 10 -9 6 3 10 10 10 16 0 5 -4 9 -10 9 -5 0
-10 -7 -10 -16z"/>
<path d="M310 4556 c-12 -33 -12 -36 -1 -36 9 0 22 52 15 59 -2 2 -8 -8 -14
-23z"/>
<path d="M1620 4536 c0 -2 9 -6 20 -9 11 -3 18 -1 14 4 -5 9 -34 13 -34 5z"/>
<path d="M3560 4515 c-14 -8 -20 -14 -15 -14 6 0 21 6 35 14 14 8 21 14 15 14
-5 0 -21 -6 -35 -14z"/>
<path d="M1680 4510 c0 -5 9 -10 20 -10 11 0 20 5 20 10 0 6 -9 10 -20 10 -11
0 -20 -4 -20 -10z"/>
<path d="M3505 4490 c-3 -6 1 -7 9 -4 18 7 21 14 7 14 -6 0 -13 -4 -16 -10z"/>
<path d="M3447 4447 c-10 -10 -17 -20 -15 -23 8 -7 41 22 37 32 -2 6 -12 1
-22 -9z"/>
<path d="M4814 4356 c-19 -15 -19 -15 0 -12 11 2 22 8 24 14 5 16 0 15 -24 -2z"/>
<path d="M4813 4305 c-3 -9 -3 -18 -1 -21 3 -3 8 4 11 16 6 23 -1 27 -10 5z"/>
<path d="M4802 4240 c0 -14 2 -19 5 -12 2 6 2 18 0 25 -3 6 -5 1 -5 -13z"/>
<path d="M1386 4229 c2 -5 23 -14 44 -20 33 -10 47 -9 87 6 58 22 45 31 -19
12 -37 -12 -52 -12 -82 -2 -19 7 -33 9 -30 4z"/>
<path d="M1255 4200 c3 -5 10 -10 16 -10 5 0 9 5 9 10 0 6 -7 10 -16 10 -8 0
-12 -4 -9 -10z"/>
<path d="M2330 4200 c0 -6 7 -10 15 -10 8 0 15 2 15 4 0 2 -7 6 -15 10 -8 3
-15 1 -15 -4z"/>
<path d="M1860 4190 c8 -5 35 -9 60 -9 l45 1 -40 9 c-22 4 -49 8 -60 8 -17 1
-17 -1 -5 -9z"/>
<path d="M4686 4189 c-12 -36 -38 -211 -32 -216 3 -4 6 4 6 16 0 12 4 20 8 17
9 -5 35 185 27 193 -3 2 -7 -2 -9 -10z"/>
<path d="M4743 4188 c0 -7 -3 -35 -6 -63 l-6 -50 15 55 c9 30 21 58 27 62 8 5
4 8 -9 8 -11 0 -21 -6 -21 -12z"/>
<path d="M1790 4130 c0 -5 15 -10 33 -9 27 0 29 2 12 9 -28 12 -45 12 -45 0z"/>
<path d="M2265 4128 c-12 -5 -36 -32 -54 -61 -19 -29 -43 -64 -53 -79 l-19
-28 38 0 c36 0 40 4 76 65 56 94 60 125 12 103z"/>
<path d="M1 3023 l-1 -1053 29 0 c16 0 31 5 33 11 5 15 75 39 116 39 21 0 35
-6 39 -16 3 -9 13 -14 24 -11 21 6 35 -8 20 -17 -5 -4 1 -18 13 -31 25 -27 27
-72 4 -86 -10 -7 -10 -9 0 -9 6 0 21 -9 32 -20 20 -20 20 -20 0 -40 -25 -25
-25 -30 0 -30 11 0 24 -8 28 -17 9 -22 32 -28 32 -10 0 8 11 19 25 25 19 9 25
19 25 42 0 36 27 42 32 8 2 -13 9 -23 16 -23 8 0 19 -8 26 -17 16 -22 26 -23
26 -4 0 21 20 30 33 17 22 -22 27 -9 27 74 0 84 0 85 -37 126 -27 29 -42 39
-57 35 -30 -8 -47 11 -35 40 11 30 12 78 2 88 -4 4 -6 62 -4 130 l3 123 -29
18 c-15 9 -46 36 -68 59 -42 43 -41 40 -44 172 -1 60 -2 62 -60 124 l-59 63
-4 118 c-3 114 -4 120 -30 144 -32 30 -43 59 -29 82 8 15 10 11 11 -19 0 -21
4 -38 10 -38 5 0 7 7 4 15 -4 8 -1 15 5 15 17 0 52 40 45 51 -3 6 2 19 12 30
14 16 14 19 2 19 -10 0 -13 8 -11 28 5 38 -10 148 -20 144 -5 -2 -22 9 -38 24
-27 26 -29 34 -30 103 0 42 -4 117 -7 168 -6 82 -10 95 -35 121 -16 17 -25 35
-22 44 4 9 -3 33 -14 54 -12 21 -21 52 -22 69 0 16 -4 39 -9 50 -5 11 -9 -436
-9 -1032z m219 -893 c0 -5 -4 -10 -10 -10 -5 0 -10 5 -10 10 0 6 5 10 10 10 6
0 10 -4 10 -10z m180 -269 c0 -16 -30 -33 -47 -26 -17 6 -17 7 1 21 22 16 46
19 46 5z"/>
<path d="M4721 4054 c0 -11 3 -14 6 -6 3 7 2 16 -1 19 -3 4 -6 -2 -5 -13z"/>
<path d="M52 4006 c1 -14 5 -23 9 -20 7 4 0 44 -7 44 -2 0 -3 -11 -2 -24z"/>
<path d="M4671 3939 c-6 -18 -11 -39 -10 -48 0 -9 7 4 14 29 16 51 13 67 -4
19z"/>
<path d="M4651 3854 c0 -11 3 -14 6 -6 3 7 2 16 -1 19 -3 4 -6 -2 -5 -13z"/>
<path d="M5095 3800 c-3 -5 1 -10 10 -10 9 0 13 5 10 10 -3 6 -8 10 -10 10 -2
0 -7 -4 -10 -10z"/>
<path d="M4567 3733 c-10 -9 -9 -23 1 -23 5 0 9 7 9 15 0 17 -1 18 -10 8z"/>
<path d="M5060 3551 c0 -5 -3 -16 -6 -25 -10 -25 12 -19 30 9 16 24 16 25 -4
25 -11 0 -20 -4 -20 -9z"/>
<path d="M130 3507 c0 -23 8 -41 26 -58 l27 -24 -7 27 c-18 78 -46 111 -46 55z"/>
<path d="M5086 3482 l-28 -14 28 -17 c28 -17 29 -17 32 1 7 38 -1 45 -32 30z"/>
<path d="M5030 3442 c0 -5 -15 -24 -32 -43 -18 -19 -41 -44 -52 -56 -18 -22
-18 -22 6 -19 13 1 29 5 35 9 6 4 11 -3 11 -19 0 -19 -10 -32 -34 -46 -19 -11
-34 -24 -34 -29 0 -13 13 -11 38 7 12 8 27 12 32 9 13 -8 42 14 35 25 -3 4 2
10 10 14 26 9 26 -11 0 -60 -14 -26 -25 -55 -25 -65 0 -10 -5 -21 -10 -24 -6
-4 -7 -11 -4 -17 4 -6 2 -8 -4 -4 -6 3 -13 2 -17 -4 -3 -6 -24 -19 -46 -30
-29 -15 -39 -27 -39 -44 l0 -25 45 26 46 25 -5 -23 c-42 -203 -38 -194 -83
-194 -32 0 -39 -4 -41 -22 -4 -27 -19 -30 -25 -5 -4 14 -5 13 -6 -4 -1 -25 17
-44 44 -44 21 0 78 52 88 80 3 8 6 3 6 -13 1 -15 -7 -44 -18 -65 -10 -20 -33
-97 -51 -169 -18 -73 -37 -133 -41 -133 -13 0 -11 21 7 73 24 72 11 79 -16 8
-21 -57 -42 -82 -57 -68 -3 3 -1 32 5 64 5 32 9 59 7 61 -2 2 -13 -11 -25 -28
-16 -22 -19 -34 -11 -39 8 -5 7 -23 -4 -65 -11 -42 -12 -62 -5 -71 7 -8 8 -28
5 -49 -6 -28 -4 -37 9 -42 14 -5 14 -9 0 -36 -25 -48 -9 -43 20 6 16 28 36 48
56 55 l31 10 -28 -29 c-15 -17 -28 -36 -29 -42 -2 -31 -5 -35 -30 -47 -20 -9
-30 -9 -40 0 -12 9 -19 8 -37 -8 -12 -12 -32 -24 -43 -27 -12 -4 -29 -15 -39
-26 -10 -11 -23 -20 -28 -20 -6 0 -3 8 6 18 10 10 14 22 11 25 -14 14 -60 -27
-84 -75 -17 -34 -35 -55 -55 -64 -26 -11 -30 -10 -33 2 -2 9 4 24 14 35 22 24
13 34 -21 22 -33 -11 -86 -123 -115 -244 -11 -46 -25 -95 -30 -109 -8 -22 -8
-23 3 -6 6 10 20 26 30 35 9 8 17 20 17 26 0 11 88 135 96 135 5 0 -24 -48
-45 -74 -15 -18 -15 -19 0 -13 16 5 16 2 1 -36 -9 -23 -24 -54 -35 -69 -10
-16 -15 -33 -11 -39 5 -8 10 -6 16 5 7 13 13 14 23 6 11 -9 19 -2 39 38 27 53
60 69 49 23 -3 -14 -10 -34 -15 -43 -6 -12 -5 -18 2 -18 6 0 16 14 21 30 6 17
17 30 25 30 8 0 14 5 14 11 0 5 4 8 9 4 5 -3 13 0 17 6 5 9 11 7 20 -5 11 -16
14 -15 28 11 l15 28 1 -25 c0 -25 1 -25 26 8 18 23 33 32 45 29 11 -3 22 0 26
6 4 7 9 3 14 -9 7 -17 8 -17 8 -1 1 9 8 17 16 17 9 0 18 8 22 18 17 47 67 77
105 63 18 -6 25 -4 33 12 13 26 29 27 33 2 2 -11 8 -24 13 -29 5 -6 5 4 0 22
-9 31 7 61 27 49 4 -3 14 -2 22 4 10 6 11 9 3 9 -21 0 -15 19 13 43 19 17 29
38 36 77 5 30 10 61 12 69 1 8 12 22 24 32 l22 17 0 579 c-1 402 -4 573 -11
560 -6 -9 -14 -15 -18 -13 -4 3 -17 -3 -28 -14 -21 -19 -21 -19 -26 8 -3 15
-1 35 4 44 6 12 6 18 -1 18 -5 0 -10 -4 -10 -8z m0 -117 c-7 -8 -17 -15 -23
-15 -5 0 -2 9 8 20 21 23 35 19 15 -5z m-33 -347 c-3 -8 -6 -5 -6 6 -1 11 2
17 5 13 3 -3 4 -12 1 -19z m83 -413 c-13 -14 -28 -25 -34 -25 -5 0 3 13 19 30
16 16 31 28 33 25 3 -3 -5 -16 -18 -30z m-168 -85 c-18 -32 -35 -41 -25 -12 8
23 23 42 34 42 4 0 0 -13 -9 -30z m178 -9 c0 -11 -31 -24 -39 -16 -3 3 1 10 9
15 19 12 30 12 30 1z m-243 -35 c-3 -8 -1 -17 6 -19 7 -3 -3 -20 -25 -43 -41
-41 -59 -41 -34 0 9 14 23 37 31 51 17 27 31 34 22 11z m-117 -216 c-6 -11
-13 -20 -16 -20 -2 0 0 9 6 20 6 11 13 20 16 20 2 0 0 -9 -6 -20z m-10 -42
c-1 -7 -12 -33 -26 -58 -22 -39 -24 -41 -19 -15 8 43 26 85 36 85 5 0 9 -6 9
-12z m40 -38 c-12 -23 -24 -40 -27 -37 -3 3 5 24 18 46 29 53 37 46 9 -9z
m-115 -37 c-38 -69 -65 -106 -72 -99 -6 6 45 104 75 144 39 53 37 29 -3 -45z
m369 58 c3 -4 3 -11 0 -14 -8 -8 -34 3 -34 14 0 11 27 12 34 0z m-69 -141 c3
-5 -1 -10 -9 -10 -9 0 -16 5 -16 10 0 6 4 10 9 10 6 0 13 -4 16 -10z"/>
<path d="M4221 3324 c0 -11 3 -14 6 -6 3 7 2 16 -1 19 -3 4 -6 -2 -5 -13z"/>
<path d="M4893 3235 c0 -14 -5 -37 -11 -52 -6 -16 -13 -49 -17 -76 -3 -26 -12
-52 -18 -57 -7 -5 -24 -20 -38 -32 l-27 -23 23 -32 23 -32 21 56 c23 59 61
218 61 253 0 11 -4 20 -9 20 -5 0 -8 -11 -8 -25z"/>
<path d="M4967 3180 c-67 -70 -60 -113 9 -52 21 18 33 40 37 65 3 20 5 37 4
37 -1 0 -24 -22 -50 -50z"/>
<path d="M625 3200 c3 -5 11 -10 16 -10 6 0 7 5 4 10 -3 6 -11 10 -16 10 -6 0
-7 -4 -4 -10z"/>
<path d="M753 3130 c0 -30 2 -43 4 -27 2 15 2 39 0 55 -2 15 -4 2 -4 -28z"/>
<path d="M395 3070 c-3 -5 -1 -10 4 -10 6 0 11 5 11 10 0 6 -2 10 -4 10 -3 0
-8 -4 -11 -10z"/>
<path d="M2110 3019 c0 -7 -10 -9 -25 -7 -14 3 -25 2 -25 -3 0 -7 19 -11 118
-24 43 -6 68 6 59 29 -5 12 -21 16 -67 16 -37 0 -60 -4 -60 -11z"/>
<path d="M4906 3003 c-16 -13 -25 -27 -22 -30 14 -14 35 -10 54 11 16 16 18
23 8 32 -9 8 -19 5 -40 -13z m28 -8 c-4 -8 -11 -15 -16 -15 -6 0 -5 6 2 15 7
8 14 15 16 15 2 0 1 -7 -2 -15z"/>
<path d="M2165 2965 c-5 -11 -10 -23 -12 -27 -2 -4 5 -7 14 -6 10 0 37 -7 60
-15 41 -15 43 -15 53 3 5 10 10 25 10 33 0 17 -27 30 -35 17 -3 -5 3 -11 12
-13 10 -3 -4 -5 -32 -4 -34 1 -52 7 -56 17 -6 12 -8 11 -14 -5z"/>
<path d="M342 2940 c0 -14 2 -19 5 -12 2 6 2 18 0 25 -3 6 -5 1 -5 -13z"/>
<path d="M4850 2911 c-6 -12 -7 -21 -1 -21 10 0 24 30 17 37 -2 3 -9 -5 -16
-16z"/>
<path d="M342 2880 c0 -14 2 -19 5 -12 2 6 2 18 0 25 -3 6 -5 1 -5 -13z"/>
<path d="M1415 2889 c-4 -6 -5 -12 -2 -15 2 -3 7 2 10 11 7 17 1 20 -8 4z"/>
<path d="M4810 2885 c0 -5 5 -17 10 -25 5 -8 10 -10 10 -5 0 6 -5 17 -10 25
-5 8 -10 11 -10 5z"/>
<path d="M2291 2834 c0 -11 3 -14 6 -6 3 7 2 16 -1 19 -3 4 -6 -2 -5 -13z"/>
<path d="M1951 2814 c-12 -27 -11 -28 4 -12 10 9 16 21 13 28 -2 7 -10 -1 -17
-16z"/>
<path d="M4858 2737 c-5 -10 -8 -33 -7 -50 0 -31 1 -31 10 -7 5 13 9 36 7 50
-3 21 -4 22 -10 7z"/>
<path d="M333 2635 c0 -38 2 -53 4 -32 2 20 2 52 0 70 -2 17 -4 1 -4 -38z"/>
<path d="M332 2530 c0 -14 2 -19 5 -12 2 6 2 18 0 25 -3 6 -5 1 -5 -13z"/>
<path d="M1191 2398 c-10 -27 1 -43 24 -34 10 3 15 15 13 28 -4 30 -26 34 -37
6z"/>
<path d="M4715 2364 c-28 -56 -29 -57 -17 -50 6 3 12 1 14 -4 2 -7 9 -6 19 2
11 9 13 24 9 52 l-5 39 -20 -39z"/>
<path d="M4646 2259 c-20 -35 -12 -54 11 -24 28 39 35 55 21 55 -8 0 -22 -14
-32 -31z"/>
<path d="M690 2065 c-7 -9 -11 -17 -9 -20 3 -2 10 5 17 15 14 24 10 26 -8 5z"/>
<path d="M1056 1984 c-10 -25 -1 -27 19 -4 15 17 16 20 3 20 -9 0 -19 -7 -22
-16z"/>
<path d="M1751 1974 c-6 -15 -9 -29 -7 -32 3 -2 10 8 16 23 14 36 7 43 -9 9z"/>
<path d="M160 1884 c0 -3 6 -12 14 -19 11 -12 16 -12 32 1 11 9 13 13 7 9 -7
-3 -13 -1 -13 4 0 6 -9 11 -20 11 -11 0 -20 -3 -20 -6z"/>
<path d="M4735 1830 c-7 -11 19 -20 34 -10 9 5 7 9 -8 13 -12 3 -23 2 -26 -3z"/>
<path d="M260 1811 c0 -5 5 -13 10 -16 6 -3 10 -2 10 4 0 5 -4 13 -10 16 -5 3
-10 2 -10 -4z"/>
<path d="M4745 1752 c3 -3 -1 -12 -7 -21 -8 -10 -4 -9 10 3 26 23 26 23 7 23
-8 0 -13 -3 -10 -5z"/>
<path d="M325 1700 c-3 -5 -2 -10 4 -10 5 0 13 5 16 10 3 6 2 10 -4 10 -5 0
-13 -4 -16 -10z"/>
<path d="M618 1398 c-3 -82 -5 -93 -22 -96 -14 -3 -17 0 -12 13 5 15 2 16 -26
11 -18 -3 -39 -7 -45 -8 -7 -1 -13 -5 -13 -10 0 -4 -6 -8 -14 -8 -9 0 -16 17
-21 51 -5 35 -10 47 -16 38 -5 -8 -6 -22 -3 -31 3 -12 0 -18 -10 -18 -10 0
-16 -9 -16 -24 0 -28 -28 -41 -66 -32 -16 4 -24 13 -24 29 0 12 -7 45 -15 72
l-14 50 5 -50 c9 -88 15 -115 25 -115 23 0 1 -25 -27 -31 -25 -6 -23 -7 16 -9
l45 -2 -35 -9 c-19 -5 -58 -8 -85 -7 -50 1 -95 -14 -95 -32 0 -6 -18 -10 -40
-10 -34 0 -42 -4 -50 -26 -9 -21 -7 -29 7 -40 17 -12 16 -13 -4 -14 -27 0 -27
-2 -8 -39 8 -16 26 -32 40 -35 25 -6 29 -26 11 -54 -5 -9 -2 -20 8 -30 11 -11
16 -12 16 -4 0 7 5 10 11 7 6 -4 8 -14 5 -22 -3 -8 0 -21 8 -28 24 -24 96 -58
126 -59 15 -1 26 -4 23 -8 -2 -5 4 -8 14 -8 10 0 31 -7 47 -15 15 -8 33 -15
38 -15 14 0 41 30 34 37 -9 9 14 33 31 33 11 0 13 -7 9 -24 -5 -22 0 -28 46
-51 53 -27 153 -37 207 -22 14 4 75 -2 137 -13 62 -11 118 -21 126 -21 24 -2
-46 -17 -86 -18 -84 -2 -22 -11 144 -19 210 -11 311 -6 303 14 -4 10 5 14 33
14 62 1 20 16 -81 29 -49 7 -121 17 -158 22 -37 6 -75 8 -83 5 -22 -8 -40 4
-23 16 9 5 4 6 -13 2 -25 -5 -28 -3 -28 20 0 14 -4 26 -10 26 -5 0 -10 8 -10
19 0 33 -39 71 -72 71 -30 0 -30 0 35 65 36 36 61 65 55 65 -7 0 -6 7 3 18 13
15 15 29 10 72 -1 12 -3 13 -10 1 -11 -17 -51 2 -51 24 0 8 -7 15 -15 15 -8 0
-15 -4 -15 -10 0 -16 -37 -11 -44 6 -4 11 -14 14 -35 9 -20 -4 -41 0 -63 11
-25 14 -29 19 -15 22 21 4 21 9 3 27 -10 10 -52 14 -165 16 -83 1 -151 6 -151
11 0 8 32 13 60 9 35 -5 174 -9 159 -4 -12 3 -15 11 -11 26 4 18 3 20 -9 10
-12 -10 -13 2 -11 83 3 62 0 94 -7 94 -6 0 -11 -36 -13 -92z m-198 -132 c0 -2
-16 -6 -35 -8 -19 -2 -35 0 -35 4 0 4 16 8 35 8 19 0 35 -2 35 -4z m-233 -85
c-4 -18 2 -20 90 -23 52 -2 102 0 111 3 16 6 42 -6 42 -20 0 -4 -31 -5 -70 -3
-47 3 -70 1 -70 -7 0 -14 -37 -15 -45 -1 -3 6 -29 10 -57 10 l-52 0 22 20 c12
12 22 25 22 30 0 6 3 10 6 10 4 0 4 -9 1 -19z m253 -1 c0 -6 12 -8 28 -4 21 4
24 3 12 -5 -20 -14 -33 -14 -56 4 -17 13 -17 14 -1 15 9 0 17 -5 17 -10z m103
-7 c-7 -2 -21 -2 -30 0 -10 3 -4 5 12 5 17 0 24 -2 18 -5z m217 -35 c0 -6 -6
-5 -15 2 -8 7 -15 14 -15 16 0 2 7 1 15 -2 8 -4 15 -11 15 -16z m-47 5 c-7 -2
-21 -2 -30 0 -10 3 -4 5 12 5 17 0 24 -2 18 -5z m100 -10 c-7 -2 -19 -2 -25 0
-7 3 -2 5 12 5 14 0 19 -2 13 -5z m60 0 c-7 -2 -19 -2 -25 0 -7 3 -2 5 12 5
14 0 19 -2 13 -5z m-193 -13 c0 -5 -24 -10 -54 -10 -30 0 -58 5 -61 10 -4 6
17 10 54 10 34 0 61 -4 61 -10z m-180 -250 c0 -5 -4 -10 -10 -10 -5 0 -10 5
-10 10 0 6 5 10 10 10 6 0 10 -4 10 -10z m348 -26 l3 -29 -16 29 c-18 34 -19
39 -2 34 6 -3 13 -18 15 -34z m-574 5 c-3 -5 -10 -7 -15 -3 -5 3 -7 10 -3 15
3 5 10 7 15 3 5 -3 7 -10 3 -15z m446 -18 c0 -11 -4 -22 -9 -25 -12 -8 -34 21
-26 34 11 17 35 11 35 -9z m-17 -58 c-7 -2 -19 -2 -25 0 -7 3 -2 5 12 5 14 0
19 -2 13 -5z"/>
<path d="M150 1386 c0 -4 20 -31 45 -58 44 -49 56 -78 33 -78 -9 0 -9 -3 0
-12 10 -10 17 -10 32 0 11 6 29 12 41 12 22 0 22 21 -1 28 -7 3 -10 0 -6 -7 4
-6 2 -11 -4 -11 -7 0 -41 30 -76 68 -35 37 -63 63 -64 58z"/>
<path d="M4673 1240 c1 -20 12 -26 20 -12 3 4 -1 13 -8 19 -11 10 -13 9 -12
-7z"/>
<path d="M1376 1195 c-4 -15 -11 -22 -20 -19 -11 4 -14 -1 -12 -20 2 -17 -2
-26 -10 -26 -17 0 -18 -16 -3 -26 6 -3 15 -1 19 6 8 13 50 5 50 -11 0 -5 5 -9
11 -9 6 0 9 9 6 20 -3 11 -1 18 3 15 5 -3 11 -1 15 5 3 5 -1 10 -9 10 -9 0
-13 6 -10 14 3 8 1 17 -5 21 -6 3 -11 15 -11 26 0 27 -17 24 -24 -6z"/>
<path d="M4620 1169 c0 -5 5 -7 10 -4 6 3 10 8 10 11 0 2 -4 4 -10 4 -5 0 -10
-5 -10 -11z"/>
<path d="M1267 1023 c-3 -5 5 -8 18 -8 13 0 21 3 18 8 -2 4 -10 7 -18 7 -8 0
-16 -3 -18 -7z"/>
<path d="M4918 973 c-10 -2 -18 -9 -18 -14 0 -12 10 -11 40 6 24 14 14 18 -22
8z"/>
<path d="M1923 918 c-25 -27 -46 -68 -40 -74 3 -3 19 18 36 45 34 56 35 62 4
29z"/>
<path d="M35 880 c-17 -18 -17 -25 -5 -78 8 -31 15 -49 18 -39 2 11 10 16 17
13 8 -3 24 3 36 13 20 16 21 21 10 54 -11 31 -35 57 -54 57 -2 0 -12 -9 -22
-20z"/>
<path d="M4953 871 c-2 -21 22 -23 61 -6 19 8 19 9 0 16 -36 14 -60 10 -61
-10z"/>
<path d="M4068 843 c7 -3 16 -2 19 1 4 3 -2 6 -13 5 -11 0 -14 -3 -6 -6z"/>
<path d="M4727 789 c-46 -46 -47 -48 -12 -21 44 33 82 72 71 72 -4 0 -31 -23
-59 -51z"/>
<path d="M0 403 l0 -403 1122 0 c617 0 1118 3 1114 7 -4 4 -82 8 -174 9 -197
3 -318 12 -305 25 4 4 49 9 98 11 50 2 83 6 75 9 -8 4 -109 14 -225 23 -115 9
-255 22 -310 29 -55 6 -207 12 -337 12 -131 0 -238 3 -238 8 0 4 17 7 38 8 20
0 46 4 57 9 18 7 19 8 2 15 -9 4 -30 4 -45 0 -40 -10 -54 -9 -90 6 -31 13 -35
12 -48 -6 -15 -20 -16 -19 -47 16 -18 20 -63 78 -102 129 -82 108 -139 150
-269 196 -84 29 -88 32 -67 43 29 16 71 52 71 62 0 4 -10 10 -22 13 l-23 6 28
25 c33 29 33 32 3 69 l-24 29 -72 -37 c-68 -34 -73 -35 -101 -21 -20 11 -26
20 -22 32 5 13 2 15 -20 9 -23 -5 -29 -2 -46 31 l-20 38 -1 -402z"/>
<path d="M4100 769 c-26 -15 -29 -18 -10 -13 27 7 71 34 55 34 -6 -1 -26 -10
-45 -21z"/>
<path d="M4116 735 c-19 -14 -17 -15 21 -15 24 0 46 6 53 15 10 13 9 15 -9 15
-11 0 -21 -4 -21 -10 0 -5 -8 -10 -17 -10 -15 0 -16 2 -3 10 8 5 11 10 5 10
-5 -1 -19 -7 -29 -15z"/>
<path d="M818 683 c7 -3 16 -2 19 1 4 3 -2 6 -13 5 -11 0 -14 -3 -6 -6z"/>
<path d="M4260 634 c-21 -20 -44 -33 -49 -29 -11 6 -65 -24 -57 -33 3 -2 17 3
31 12 28 18 30 15 14 -16 -18 -33 12 -11 66 50 54 60 52 68 -5 16z"/>
<path d="M4060 629 c0 -5 -9 -9 -21 -9 -11 0 -18 -4 -15 -8 7 -12 106 -6 119
7 8 8 7 11 -3 12 -8 1 -30 2 -47 4 -18 1 -33 -1 -33 -6z"/>
<path d="M1128 603 c7 -3 16 -2 19 1 4 3 -2 6 -13 5 -11 0 -14 -3 -6 -6z"/>
<path d="M888 593 c7 -3 16 -2 19 1 4 3 -2 6 -13 5 -11 0 -14 -3 -6 -6z"/>
<path d="M4380 529 c-29 -17 -31 -19 -10 -15 14 2 42 8 63 11 20 4 40 11 43
16 10 17 -61 8 -96 -12z"/>
<path d="M4045 500 c-21 -23 -8 -27 20 -7 11 8 14 16 8 20 -6 4 -18 -2 -28
-13z"/>
<path d="M5057 459 c-26 -17 -47 -35 -47 -40 0 -5 25 7 55 27 30 20 55 38 55
40 0 10 -21 1 -63 -27z"/>
<path d="M5015 460 c-3 -5 -2 -10 4 -10 5 0 13 5 16 10 3 6 2 10 -4 10 -5 0
-13 -4 -16 -10z"/>
<path d="M1158 443 c6 -2 18 -2 25 0 6 3 1 5 -13 5 -14 0 -19 -2 -12 -5z"/>
<path d="M1218 443 c7 -3 16 -2 19 1 4 3 -2 6 -13 5 -11 0 -14 -3 -6 -6z"/>
<path d="M4975 440 c-3 -6 1 -7 9 -4 18 7 21 14 7 14 -6 0 -13 -4 -16 -10z"/>
<path d="M978 433 c12 -2 32 -2 45 0 12 2 2 4 -23 4 -25 0 -35 -2 -22 -4z"/>
<path d="M700 410 c0 -5 7 -10 16 -10 8 0 12 5 9 10 -3 6 -10 10 -16 10 -5 0
-9 -4 -9 -10z"/>
<path d="M4385 410 c-3 -5 -2 -10 4 -10 5 0 13 5 16 10 3 6 2 10 -4 10 -5 0
-13 -4 -16 -10z"/>
<path d="M600 400 c-30 -3 -50 -7 -45 -10 6 -3 37 -3 70 0 33 3 53 7 45 10 -8
3 -40 3 -70 0z"/>
<path d="M758 403 c12 -2 30 -2 40 0 9 3 -1 5 -23 4 -22 0 -30 -2 -17 -4z"/>
<path d="M935 375 c-234 -24 -255 -28 -248 -38 13 -22 477 15 470 37 -5 16
-83 16 -222 1z"/>
<path d="M1178 373 c6 -2 18 -2 25 0 6 3 1 5 -13 5 -14 0 -19 -2 -12 -5z"/>
<path d="M4840 345 c-14 -8 -20 -14 -14 -15 5 0 19 7 30 15 24 18 16 19 -16 0z"/>
<path d="M648 343 c7 -3 16 -2 19 1 4 3 -2 6 -13 5 -11 0 -14 -3 -6 -6z"/>
<path d="M698 301 c-36 -3 -70 -10 -75 -15 -10 -11 149 0 192 13 29 9 29 9
-10 9 -22 -1 -70 -4 -107 -7z"/>
<path d="M1128 269 c-27 -15 -21 -31 10 -27 15 2 27 9 27 17 0 19 -16 23 -37
10z"/>
<path d="M915 248 c-24 -19 -26 -23 -11 -33 8 -7 13 -15 9 -18 -7 -8 4 -9 155
-12 59 -1 141 -5 182 -8 56 -5 66 -4 38 3 -20 5 -52 11 -71 13 -19 2 -45 11
-58 20 -26 19 -43 22 -34 8 3 -6 -10 -13 -29 -17 -31 -5 -41 -1 -77 30 -49 42
-66 44 -104 14z"/>
<path d="M1750 240 c-26 -5 -12 -8 53 -9 52 0 87 3 87 9 0 11 -86 11 -140 0z"/>
<path d="M760 207 c0 -7 11 -14 25 -15 28 -2 34 12 9 22 -24 9 -34 7 -34 -7z"/>
<path d="M2148 107 c24 -7 36 -7 44 1 9 9 1 12 -32 11 l-45 -1 33 -11z"/>
</g>
</svg>
