<?xml version="1.0" standalone="no"?>
<!DOCTYPE svg PUBLIC "-//W3C//DTD SVG 20010904//EN"
 "http://www.w3.org/TR/2001/REC-SVG-20010904/DTD/svg10.dtd">
<svg version="1.0" xmlns="http://www.w3.org/2000/svg"
 width="512.000000pt" height="512.000000pt" viewBox="0 0 512.000000 512.000000"
 preserveAspectRatio="xMidYMid meet">

<g transform="translate(0.000000,512.000000) scale(0.100000,-0.100000)"
fill="#000000" stroke="none">
<path d="M0 3403 c0 -1394 3 -1713 13 -1693 7 14 21 25 30 25 10 0 22 6 26 14
10 15 43 11 49 -6 2 -8 -5 -13 -17 -13 -12 0 -21 -6 -21 -14 0 -8 -3 -22 -7
-32 -5 -14 -2 -16 20 -10 16 4 35 1 47 -6 19 -12 24 -10 41 14 24 33 63 37 79
9 8 -17 14 -18 40 -8 57 21 51 -15 -6 -39 -19 -8 -34 -21 -34 -28 0 -21 -51
-58 -72 -53 -12 3 -22 -3 -30 -16 -16 -32 -27 -37 -80 -37 -52 0 -56 -4 -31
-32 14 -16 19 -16 32 -4 21 17 63 27 78 18 24 -15 17 -35 -16 -46 -37 -13 -54
-36 -27 -36 10 0 16 -9 16 -21 0 -17 4 -20 22 -16 13 4 26 0 32 -9 10 -13 15
-13 45 2 28 14 37 15 54 4 18 -10 22 -10 33 6 32 46 36 48 55 26 14 -19 21
-20 46 -11 17 5 56 11 89 12 47 2 59 -1 59 -13 0 -10 -12 -16 -32 -18 -23 -2
-40 -13 -58 -36 -15 -20 -38 -36 -57 -40 l-31 -6 7 -52 c7 -50 6 -52 -11 -36
-10 9 -31 18 -48 20 -25 2 -31 -1 -33 -20 -4 -23 -22 -28 -51 -12 -10 5 -62
11 -116 12 -80 2 -99 6 -106 20 -8 15 -5 18 16 18 14 0 25 4 25 9 0 5 -16 9
-35 8 l-35 -1 0 -628 0 -628 1187 3 1187 2 23 70 c12 39 22 83 22 98 l1 28
-30 -22 c-34 -26 -33 -36 2 -19 22 11 22 10 4 -4 -26 -21 -49 -20 -96 4 -50
26 -52 35 -3 15 47 -20 72 -9 102 46 22 38 23 39 39 20 15 -16 36 -20 149 -25
152 -6 154 -5 173 74 14 57 17 60 83 64 26 1 48 4 50 7 41 52 67 98 61 112 -5
13 0 17 20 17 29 0 38 -14 55 -84 12 -47 11 -51 -11 -67 l-23 -18 34 -83 c19
-46 50 -118 69 -160 l35 -78 413 0 c247 0 414 4 414 9 0 32 -26 119 -41 136
-9 11 -27 40 -39 65 -27 53 -90 236 -90 261 0 10 -10 25 -23 35 -15 11 -16 15
-4 11 21 -8 22 11 2 40 -21 30 -52 36 -59 10 -3 -12 1 -28 8 -37 18 -19 62
-129 70 -172 5 -27 4 -29 -4 -11 -5 13 -14 23 -20 23 -6 0 -9 4 -5 10 3 5 3
21 -1 35 -5 19 -12 25 -27 23 -14 -2 -23 3 -25 14 -2 12 3 18 13 18 15 0 15 4
-4 33 -11 17 -27 31 -35 29 -10 -2 -13 4 -9 17 3 11 10 18 16 15 9 -3 13 21
14 77 1 45 6 86 11 91 7 7 22 -15 46 -64 20 -42 36 -80 36 -87 0 -6 6 -11 13
-11 7 0 23 -11 35 -25 24 -27 40 -32 125 -38 52 -3 57 -2 57 17 -1 30 -29 89
-84 173 -26 41 -62 117 -82 175 -20 57 -49 134 -66 172 -16 38 -27 78 -25 90
7 25 -37 142 -51 139 -6 -1 -21 23 -33 53 -25 59 -26 59 -94 40 -11 -4 0 3 23
15 38 18 48 19 75 8 85 -33 144 -121 221 -331 15 -39 22 -48 42 -48 28 0 43
-25 25 -43 -9 -9 -16 -9 -30 0 -10 6 -23 8 -30 4 -8 -5 0 -33 29 -98 22 -50
40 -95 40 -99 0 -5 32 -9 70 -9 69 -1 70 0 70 25 0 36 48 81 78 73 16 -4 22
-1 22 12 0 11 5 15 14 12 8 -3 17 -1 20 6 2 7 5 0 5 -14 1 -15 4 -41 7 -58 5
-24 3 -31 -10 -31 -9 0 -16 5 -16 11 0 6 -10 9 -22 7 -20 -3 -23 -10 -26 -50
-2 -36 0 -48 11 -48 8 0 36 -12 62 -26 l48 -25 -27 35 c-20 27 -25 42 -20 62
7 27 7 27 23 -13 18 -47 48 -83 68 -83 11 0 10 -6 -4 -27 -26 -39 -45 -83 -49
-116 -2 -15 -11 -41 -19 -57 -8 -16 -14 -33 -13 -37 0 -4 -4 -21 -10 -36 -7
-16 -12 -36 -13 -45 0 -14 -2 -14 -6 -2 -10 29 -67 80 -88 80 -12 0 -30 7 -41
15 -35 26 -54 19 -54 -21 0 -33 -2 -36 -23 -30 -24 6 -123 -7 -133 -17 -3 -3
2 -28 11 -56 14 -44 19 -50 35 -41 18 10 87 -10 75 -22 -3 -3 1 -11 10 -18 22
-19 18 -35 -12 -48 l-28 -12 33 5 33 5 -21 -30 c-15 -22 -30 -30 -51 -30 -32
0 -35 -10 -23 -83 l7 -37 573 0 574 0 0 2560 0 2560 -119 0 -118 0 4 -24 c3
-13 0 -32 -6 -43 -9 -16 -10 -15 -11 8 0 58 -46 65 -86 12 -15 -21 -32 -40
-36 -41 -5 -2 -31 -20 -59 -39 l-51 -35 -29 21 c-36 27 -43 26 -67 -3 -10 -14
-38 -35 -62 -47 -39 -21 -46 -21 -104 -10 -36 7 -75 9 -92 5 -45 -12 -66 -5
-105 37 -20 21 -41 39 -48 39 -7 0 -22 -11 -35 -25 -26 -27 -46 -31 -64 -13
-36 36 15 97 59 70 28 -18 47 -15 59 9 9 15 20 20 43 18 18 -2 42 3 55 9 16
10 27 10 43 2 15 -9 24 -8 35 1 15 12 86 29 137 32 15 1 27 5 27 10 0 4 -493
7 -1095 7 l-1096 0 -122 -24 c-165 -33 -181 -35 -185 -15 -2 11 9 19 40 26 37
9 27 11 -79 12 -68 0 -123 -1 -123 -3 0 -2 13 -12 29 -23 39 -25 161 -141 161
-153 0 -5 -6 -10 -13 -10 -15 0 -178 130 -205 164 -17 22 -28 26 -70 26 -37 0
-51 -4 -56 -16 -6 -15 -8 -15 -25 0 -16 15 -68 16 -526 16 -279 0 -506 -3
-503 -5 2 -3 32 -23 66 -45 34 -22 62 -44 62 -50 0 -17 -9 -12 -88 45 l-76 55
-293 0 -293 0 0 -1717z m818 1654 c-5 -52 -28 -45 -28 8 0 42 2 46 16 35 9 -8
14 -25 12 -43z m2212 -19 c0 -13 -14 -68 -30 -123 -16 -55 -39 -135 -51 -177
l-21 -78 57 -62 c68 -73 95 -115 95 -145 0 -49 -48 -16 -133 91 -16 20 -32 36
-37 36 -4 0 8 -16 26 -36 19 -19 34 -43 34 -52 0 -18 55 -79 114 -126 l36 -28
42 28 c24 16 128 112 233 213 l190 185 -200 -200 c-110 -110 -215 -211 -232
-225 -39 -29 -41 -44 -9 -83 l23 -30 28 42 c15 23 31 39 36 37 4 -3 29 23 54
57 46 62 46 62 6 18 -22 -25 -41 -40 -41 -35 0 14 81 107 88 101 3 -3 11 -1
19 5 24 20 14 0 -39 -79 -62 -91 -110 -152 -120 -152 -4 0 2 17 14 38 l20 37
-34 -40 -35 -39 18 -41 c20 -43 23 -86 12 -184 -5 -53 -10 -65 -30 -74 -29
-13 -29 -12 -38 42 -7 42 -6 44 10 28 9 -9 21 -17 26 -17 13 0 11 27 -4 41 -7
7 -11 25 -9 41 2 16 -2 50 -9 76 l-13 46 -12 -29 -12 -30 -4 30 c-2 22 -9 31
-25 33 -19 3 -22 8 -18 35 l5 32 -14 -30 c-11 -21 -15 -24 -16 -12 0 10 5 28
11 39 7 14 8 23 1 27 -6 3 -13 23 -17 44 -12 65 -28 55 -37 -23 -3 -29 -44
-37 -42 -8 1 14 -4 16 -27 11 -41 -8 -69 19 -69 66 -1 29 -3 33 -11 19 -19
-34 -27 -18 -9 20 10 20 23 57 30 82 6 25 22 80 36 123 29 95 31 125 4 72 -40
-78 -71 -177 -65 -207 8 -32 6 -33 -42 -13 -40 17 -77 20 -68 5 3 -5 12 -7 19
-4 8 3 17 0 22 -7 4 -7 3 -10 -4 -5 -6 3 -14 -5 -19 -19 l-8 -25 -27 25 -27
24 -5 -27 c-3 -15 -2 -40 2 -57 9 -29 11 -30 57 -27 27 1 47 0 44 -2 -13 -13
-189 -103 -181 -93 8 11 33 100 37 137 4 26 54 152 84 207 16 29 26 53 22 53
-4 0 -20 -23 -36 -51 -15 -28 -40 -65 -54 -82 -15 -18 -36 -46 -46 -63 -18
-31 -19 -32 -104 -33 -47 -1 -89 -5 -92 -9 -10 -11 -30 -152 -24 -163 8 -12
-2 -12 -26 1 -16 9 -17 14 -7 33 20 37 38 131 28 141 -6 6 -10 20 -10 33 0 15
-6 23 -17 23 -15 0 -15 1 0 18 9 10 19 32 23 48 5 28 4 30 -23 28 -26 -1 -29
-5 -35 -53 -6 -37 -4 -60 5 -79 9 -18 12 -51 9 -99 -4 -68 -6 -72 -33 -83 -35
-15 -76 -6 -82 18 -3 9 -5 3 -6 -15 -2 -50 -41 -126 -57 -110 -9 8 34 127 53
149 14 16 18 16 51 -7 37 -26 58 -32 48 -16 -4 5 -2 11 3 13 6 2 7 30 4 67 -5
49 -10 65 -24 68 -16 5 -21 18 -35 114 -4 23 0 50 9 70 9 19 21 93 27 164 17
201 21 235 28 235 4 0 4 -80 0 -177 -4 -97 -6 -178 -4 -180 10 -10 104 49 128
80 17 22 36 35 50 35 13 0 69 5 124 11 104 12 138 7 163 -22 22 -27 111 -69
116 -55 2 7 13 38 24 68 11 30 29 88 41 128 11 39 25 72 31 72 6 0 8 4 5 8 -7
12 15 92 25 92 5 0 9 -10 9 -22z m970 -23 c18 -21 5 -45 -25 -45 -33 0 -45 28
-20 46 24 18 30 17 45 -1z m-76 -24 c10 -16 -18 -29 -61 -29 -53 -1 -56 13 -5
26 49 13 60 14 66 3z m-2899 -131 c3 0 5 10 6 23 1 20 1 20 9 -4 8 -28 39 -69
52 -69 5 0 8 20 8 44 0 60 17 67 25 11 4 -25 11 -45 16 -45 5 0 9 -7 9 -16 0
-9 -5 -12 -12 -8 -7 4 0 -7 16 -24 16 -18 27 -34 24 -37 -5 -5 -198 124 -243
163 -47 41 -25 43 30 2 30 -22 57 -40 60 -40z m3864 48 c0 -28 -2 -30 -9 -13
-12 28 -12 45 0 45 6 0 10 -15 9 -32z m-1180 -34 c-7 -8 -14 -12 -17 -9 -3 3
-30 -18 -61 -47 l-54 -53 58 67 c35 39 64 64 72 61 10 -4 11 -9 2 -19z m-49
-64 c-17 -22 -37 -43 -43 -47 -11 -6 4 15 47 65 33 37 30 25 -4 -18z m-2632
-9 c82 -48 150 -105 135 -114 -11 -7 -165 96 -197 132 -27 30 -13 26 62 -18z
m970 -221 c77 -91 146 -171 153 -177 20 -16 67 -4 75 19 3 11 8 17 11 14 9 -9
-26 -56 -42 -56 -20 0 -19 -20 1 -49 l16 -23 -38 20 c-22 11 -53 35 -70 54
-54 58 -264 347 -264 363 0 17 26 -10 158 -165z m1556 100 c-31 -38 -60 -70
-65 -70 -5 0 -9 -6 -9 -13 0 -19 -45 -59 -55 -50 -4 5 -5 2 -1 -4 7 -13 -42
-88 -52 -78 -3 2 -11 0 -19 -6 -7 -6 -13 -7 -13 -2 0 14 253 291 268 293 2 0
-23 -31 -54 -70z m-2283 14 c13 -16 12 -16 -18 0 -18 9 -33 21 -33 27 0 13 32
-4 51 -27z m199 -154 c0 -5 -4 -10 -10 -10 -5 0 -10 5 -10 10 0 6 5 10 10 10
6 0 10 -4 10 -10z m2312 -182 c2 -6 -2 -61 -9 -122 -12 -97 -12 -111 2 -118
10 -6 15 -25 15 -61 0 -29 7 -71 15 -95 9 -24 22 -96 30 -160 18 -142 23 -164
34 -158 10 7 268 76 282 76 5 0 9 -6 9 -14 0 -28 -103 -64 -276 -96 -95 -18
-182 -37 -195 -44 -13 -6 -34 -29 -46 -51 -18 -32 -23 -36 -23 -18 0 19 -5 22
-31 19 -26 -3 -34 1 -48 25 -12 21 -21 27 -36 23 -41 -12 -127 -59 -151 -83
-25 -24 -25 -24 -39 -4 -19 27 -41 31 -277 43 -112 6 -205 13 -207 16 -8 7
120 132 169 165 39 26 52 30 95 27 48 -4 51 -3 65 26 13 27 21 31 61 34 l46 3
22 77 c27 94 52 164 57 160 2 -2 -12 -54 -30 -115 -19 -62 -32 -114 -30 -115
2 -2 33 -3 69 -2 55 2 71 -2 102 -23 43 -29 38 -35 94 107 23 58 46 110 51
115 13 14 -27 -94 -68 -183 l-33 -73 19 -32 c10 -18 24 -51 31 -74 11 -38 89
-132 89 -106 0 5 10 26 23 45 19 27 29 71 51 218 15 102 28 196 29 210 l2 25
-97 -2 c-75 -1 -98 2 -98 12 0 18 82 27 147 17 51 -9 51 -9 55 20 4 24 0 30
-20 35 -19 4 -30 0 -44 -18 l-19 -24 11 24 c7 13 25 28 40 34 26 10 28 15 38
106 8 64 8 99 1 106 -7 7 -13 5 -19 -5 -11 -17 -13 0 -4 24 7 19 41 21 46 4z
m-937 -76 c-3 -7 -1 -10 4 -7 5 3 12 1 15 -4 3 -4 -13 -8 -37 -8 -23 1 -58 -3
-77 -8 l-35 -8 23 25 c15 16 30 24 42 21 13 -4 23 4 36 29 l17 33 9 -30 c4
-16 6 -36 3 -43z m879 -41 c-4 -17 -9 -30 -11 -27 -3 2 -2 19 2 36 9 41 17 33
9 -9z m-904 -30 c0 -5 9 -7 20 -4 11 3 20 1 20 -4 0 -5 -28 -18 -62 -29 -54
-17 -71 -18 -118 -9 -52 10 -54 12 -32 24 44 24 172 40 172 22z m97 -56 c46 0
16 -46 -45 -68 -28 -9 -64 -31 -82 -47 -36 -34 -42 -36 -33 -15 3 9 25 29 49
46 79 54 47 83 -53 48 -70 -25 -115 -19 -121 15 -4 17 -3 18 19 2 30 -21 55
-20 115 3 27 10 63 24 81 31 18 7 36 22 40 34 6 18 8 16 13 -14 3 -19 10 -35
17 -35z m19 18 c-10 -10 -19 5 -10 18 6 11 8 11 12 0 2 -7 1 -15 -2 -18z
m-456 -12 c0 -22 -16 -29 -77 -33 -33 -2 -46 2 -58 17 -8 11 -15 23 -15 26 0
3 34 7 75 8 69 2 75 0 75 -18z m24 -37 c8 -21 -1 -34 -24 -34 -24 0 -31 22
-11 37 21 16 28 16 35 -3z m66 -10 c0 -17 -22 -14 -28 4 -2 7 3 12 12 12 9 0
16 -7 16 -16z m-230 -46 c0 -5 -4 -8 -10 -8 -5 0 -10 7 -10 16 0 8 -4 12 -10
9 -6 -3 -10 4 -10 17 l0 23 20 -25 c11 -14 20 -28 20 -32z m90 21 c28 -16 -14
-11 -51 6 l-34 16 35 -7 c19 -3 42 -10 50 -15z m459 -41 c-7 -13 -14 -18 -16
-11 -3 7 1 22 8 35 7 13 14 18 16 11 3 -7 -1 -22 -8 -35z m76 -3 c-23 -23 -26
-31 -20 -63 4 -20 12 -40 18 -44 9 -6 9 -13 -1 -28 -14 -22 -8 -60 10 -60 5 0
18 -10 28 -22 l17 -22 30 25 c16 14 28 30 25 37 -2 7 1 12 7 12 6 0 11 -6 11
-12 1 -7 10 -2 20 11 15 17 20 19 20 8 0 -17 -53 -56 -140 -104 l-55 -30 -2
29 c-1 15 2 28 6 28 17 0 -12 83 -30 87 -11 3 -16 9 -13 14 3 5 -2 6 -10 3
-22 -8 -20 -43 5 -109 12 -31 19 -58 17 -59 -19 -16 -100 -57 -104 -53 -3 3
14 17 38 31 24 14 38 26 31 26 -6 0 -9 9 -6 20 4 14 0 20 -11 20 -10 0 -15 -4
-12 -9 4 -5 -3 -7 -13 -4 -15 4 -20 17 -24 61 -3 32 -4 75 -3 97 1 39 2 40 86
87 96 54 115 60 75 23z m505 -15 c0 -13 -7 -20 -20 -20 -23 0 -26 10 -8 28 18
18 28 15 28 -8z m-1050 0 c0 -5 -2 -10 -4 -10 -3 0 -8 5 -11 10 -3 6 -1 10 4
10 6 0 11 -4 11 -10z m-54 -75 c-1 -5 -11 -11 -22 -13 -16 -3 -16 -1 -4 7 9 6
10 11 3 11 -15 0 -73 49 -73 61 0 5 22 -6 49 -23 28 -18 49 -37 47 -43z m2324
55 c0 -5 -4 -10 -10 -10 -5 0 -10 5 -10 10 0 6 5 10 10 10 6 0 10 -4 10 -10z
m-1587 -57 c-7 -2 -19 -2 -25 0 -7 3 -2 5 12 5 14 0 19 -2 13 -5z m14 -35 c-3
-8 -6 -5 -6 6 -1 11 2 17 5 13 3 -3 4 -12 1 -19z m1295 -39 c41 -27 50 -38 62
-83 29 -104 116 -416 122 -433 3 -10 -2 -5 -11 10 -13 22 -87 67 -110 67 -2 0
-8 -13 -13 -29 -10 -27 -8 -29 31 -45 22 -9 37 -19 34 -23 -4 -4 -13 -1 -19 5
-7 7 -23 12 -38 12 -19 -1 -14 -5 24 -20 74 -29 75 -41 1 -15 -20 7 -20 6 -1
-9 11 -9 16 -16 10 -16 -5 -1 5 -12 21 -26 21 -17 24 -23 10 -18 -11 4 -26 11
-32 17 -14 10 -19 -4 -6 -17 4 -4 8 -17 8 -29 0 -15 12 -28 35 -40 34 -18 31
-18 -19 -2 -17 5 -22 4 -19 -6 2 -7 18 -17 36 -21 17 -5 34 -14 38 -20 5 -8 2
-9 -12 -3 -10 4 -30 10 -44 13 -37 7 -13 -14 35 -32 22 -8 32 -15 23 -15 -9
-1 -28 3 -42 9 -21 7 -26 6 -26 -5 0 -8 17 -19 40 -25 22 -6 40 -13 40 -16 0
-6 -34 0 -64 12 -33 13 -15 -18 19 -32 40 -16 48 -28 9 -14 -33 13 -34 13 -34
-4 0 -8 14 -17 30 -21 17 -4 30 -11 30 -16 0 -5 -11 -4 -26 1 -33 13 -34 13
-34 -5 0 -8 6 -15 13 -15 7 0 22 -7 33 -15 18 -14 17 -14 -9 -5 -36 13 -40 13
-35 -1 2 -7 24 -20 48 -29 25 -10 45 -24 44 -32 0 -7 -4 -48 -8 -90 -4 -52 -3
-78 4 -78 5 0 11 15 11 33 l2 32 4 -30 c3 -19 -1 -33 -11 -41 -13 -9 -16 -37
-18 -158 -1 -143 -2 -146 -22 -140 -29 8 -56 42 -56 70 0 26 -34 176 -49 215
l-9 26 58 -1 c32 -1 61 2 65 6 4 4 4 40 0 80 l-7 73 -78 27 c-55 18 -80 23
-84 15 -2 -7 -5 38 -5 98 -1 61 -4 121 -7 135 -5 19 -4 22 5 14 8 -7 12 -48
13 -113 1 -109 4 -115 58 -131 27 -8 30 -7 26 8 -2 9 -8 67 -12 127 -4 61 -10
100 -12 88 -4 -27 -21 -31 -21 -5 -1 49 -25 141 -39 147 -20 8 -21 6 -12 -48
4 -26 4 -49 1 -52 -4 -2 -15 49 -24 113 -20 125 -70 382 -88 445 -13 47 -24
52 -90 38 -29 -6 -54 -10 -56 -7 -11 11 102 102 140 113 61 17 66 16 119 -18z
m-3802 -55 c72 -36 129 -68 126 -71 -6 -6 -236 83 -265 103 -24 17 -28 34 -7
34 8 0 74 -30 146 -66z m1684 51 c-4 -8 -8 -15 -10 -15 -2 0 -4 7 -4 15 0 8 4
15 10 15 5 0 7 -7 4 -15z m389 -18 l-28 -33 -27 20 c-34 27 -36 44 -3 22 25
-16 27 -16 53 3 37 28 38 26 5 -12z m-313 -12 c7 -9 8 -15 2 -15 -5 0 -12 7
-16 15 -3 8 -4 15 -2 15 2 0 9 -7 16 -15z m250 -37 c0 -9 -18 -13 -54 -13 -59
0 -63 11 -6 18 19 2 41 5 48 5 6 1 12 -4 12 -10z m88 -2 c-16 -11 -16 -15 -2
-34 13 -19 13 -22 1 -22 -8 0 -18 7 -21 16 -3 9 -13 14 -21 10 -15 -5 -32 11
-22 21 5 4 55 19 77 22 3 0 -3 -5 -12 -13z m-428 -17 c0 -11 -4 -18 -10 -14
-5 3 -7 12 -3 20 7 21 13 19 13 -6z m220 -9 c0 -5 -2 -10 -4 -10 -3 0 -8 5
-11 10 -3 6 -1 10 4 10 6 0 11 -4 11 -10z m-278 -56 c27 -14 65 -24 89 -24
l42 0 -23 25 c-13 14 -19 25 -14 25 6 0 23 -13 38 -29 l27 -28 -48 -7 c-56 -7
-70 -18 -184 -141 -46 -49 -89 -89 -96 -87 -23 5 -285 -48 -316 -64 -16 -9
-26 -11 -22 -5 10 17 -36 29 -73 19 -19 -5 -50 -18 -68 -29 -42 -23 -44 -23
-44 -4 0 8 -10 21 -22 29 -29 18 -282 69 -307 61 -25 -8 -57 21 -89 80 -27 50
-28 50 -84 55 -31 3 -59 8 -62 11 -10 9 73 37 132 45 79 10 131 -13 177 -81
42 -60 57 -66 209 -80 38 -4 87 -13 109 -21 22 -8 43 -14 47 -14 8 0 51 124
64 182 3 14 8 33 11 40 9 22 -116 4 -133 -20 -47 -62 -54 -68 -31 -27 12 22
27 45 33 52 16 17 163 35 186 23 10 -5 28 -35 39 -65 26 -68 25 -65 1 -65 -17
0 -20 -7 -22 -42 0 -24 -2 -49 -2 -56 -1 -8 -11 -22 -24 -32 -12 -10 -22 -22
-22 -26 0 -4 12 3 28 17 67 62 158 109 207 109 7 0 34 17 58 38 24 20 52 42
62 47 15 9 16 15 5 54 l-11 44 -75 -7 c-41 -4 -81 -9 -89 -13 -8 -3 -15 -1
-15 5 0 13 40 22 134 31 87 9 118 5 178 -25z m445 -81 c-3 -10 -5 -2 -5 17 0
19 2 27 5 18 2 -10 2 -26 0 -35z m-12 -154 c-4 -5 0 -18 9 -28 16 -17 11 -23
-70 -92 -48 -41 -92 -79 -99 -86 -10 -10 -18 -10 -39 0 -14 7 -26 15 -26 18 0
4 -17 3 -37 -1 -68 -14 -196 -23 -189 -12 5 8 141 24 227 26 19 1 53 26 120
90 101 97 94 104 -10 9 -36 -32 -62 -50 -58 -40 7 20 7 20 -64 8 -94 -16 -139
-19 -133 -10 3 5 18 9 33 9 15 0 31 3 35 8 9 8 14 8 98 11 54 1 61 4 113 51
30 28 64 50 76 50 12 0 17 -4 14 -11z m1367 -30 c26 -1 -55 -23 -149 -40 -49
-9 -65 -16 -79 -37 -10 -15 -25 -32 -33 -39 -21 -16 -119 -45 -134 -40 -13 5
7 14 86 42 33 12 55 28 72 53 22 33 34 40 102 58 47 12 85 17 95 12 9 -4 27
-8 40 -9z m-1733 1 c-9 -5 -22 -23 -29 -39 -6 -16 -17 -28 -24 -25 -10 4 -76
-112 -76 -133 0 -3 44 -2 98 2 143 11 186 13 194 9 4 -3 -13 -23 -37 -45 -32
-30 -60 -74 -108 -174 -36 -73 -71 -136 -77 -140 -6 -4 -18 -1 -26 6 -16 13
-217 5 -260 -11 -15 -6 -24 -6 -24 0 0 26 132 268 189 348 28 39 38 37 17 -4
-39 -76 -58 -134 -33 -101 9 13 40 20 123 30 91 10 115 17 141 37 18 14 34 31
37 38 3 7 -11 0 -32 -17 -33 -26 -47 -29 -134 -35 -54 -4 -98 -5 -98 -4 0 2 7
24 15 51 8 26 12 53 9 60 -3 8 14 37 36 65 28 34 35 50 23 45 -16 -6 -17 -5
-3 11 16 21 46 35 75 35 17 0 18 -1 4 -9z m1201 -12 c0 -16 -3 -19 -11 -11 -6
6 -8 16 -5 22 11 17 16 13 16 -11z m-739 -81 c-20 -40 -42 -80 -49 -88 -23
-26 -119 -154 -171 -228 -75 -105 -43 -77 40 35 95 129 106 139 127 121 24
-20 50 -28 57 -17 11 18 27 10 22 -10 -7 -28 13 -37 33 -14 8 10 29 27 45 36
20 11 31 26 33 45 5 37 29 63 60 63 17 0 23 -4 18 -15 -4 -12 5 -15 52 -16 31
0 81 -4 109 -8 53 -7 94 1 57 12 -22 7 -134 26 -179 31 -16 2 -32 4 -34 5 -1
0 10 16 27 35 17 19 33 44 37 55 7 24 6 24 201 11 143 -10 174 -15 174 -31 0
-4 -7 -6 -15 -2 -11 4 -65 -44 -176 -157 -133 -135 -164 -161 -182 -156 -23 6
-380 -82 -522 -129 -105 -34 -201 -57 -188 -44 6 6 29 13 51 16 39 5 42 8 127
144 47 76 109 167 138 202 29 35 70 89 92 120 22 31 43 56 46 57 4 0 -10 -33
-30 -73z m-711 16 c0 -5 -16 -33 -35 -63 -19 -30 -35 -60 -35 -66 0 -7 -4 -14
-10 -16 -5 -1 -23 -56 -40 -120 -32 -126 -77 -248 -91 -248 -5 0 -37 11 -71
23 -99 37 -257 79 -273 73 -23 -8 -19 0 39 87 30 45 70 116 89 158 34 76 48
92 77 94 26 2 294 66 315 75 26 11 35 12 35 3z m1494 -29 c23 -9 20 -19 -9
-32 -13 -6 -33 -28 -44 -49 -24 -45 -27 -37 -6 12 14 34 13 35 -5 25 -34 -18
-22 7 13 28 17 11 33 21 34 21 1 1 8 -2 17 -5z m1091 -117 c4 -68 4 -69 -4
-19 -5 29 -12 69 -15 90 -5 29 -4 33 4 19 6 -9 13 -50 15 -90z m-3292 57 c9
-3 24 -21 31 -39 13 -31 20 -35 75 -46 72 -14 83 -33 14 -23 -71 10 -90 20
-108 54 -9 17 -23 30 -35 30 -10 0 -42 5 -70 11 -44 9 -49 13 -34 23 16 12 71
8 127 -10z m2267 -9 c0 -10 -30 -65 -36 -65 -9 0 -34 28 -34 39 0 5 8 15 18
20 18 11 52 15 52 6z m-1067 -22 c-7 -2 -19 -2 -25 0 -7 3 -2 5 12 5 14 0 19
-2 13 -5z m197 -24 c0 -5 -4 -9 -10 -9 -5 0 -10 7 -10 16 0 8 5 12 10 9 6 -3
10 -10 10 -16z m-2570 -14 c0 -8 -2 -15 -4 -15 -2 0 -6 7 -10 15 -3 8 -1 15 4
15 6 0 10 -7 10 -15z m4390 0 c16 -9 19 -14 9 -15 -8 0 -24 7 -35 15 -24 18
-7 19 26 0z m-1405 -115 c-38 -38 -71 -67 -73 -65 -5 4 128 134 138 135 2 0
-27 -31 -65 -70z m1492 -17 c-2 -16 -4 -5 -4 22 0 28 2 40 4 28 2 -13 2 -35 0
-50z m-813 -57 c51 -21 52 -36 1 -17 -24 9 -47 20 -51 24 -12 12 14 8 50 -7z
m-497 -28 c-3 -7 -5 -2 -5 12 0 14 2 19 5 13 2 -7 2 -19 0 -25z m1310 -165
c-2 -32 -3 -6 -3 57 0 63 1 89 3 58 2 -32 2 -84 0 -115z m-3984 129 c27 -24 5
-36 -32 -18 -37 20 -44 51 -8 40 12 -3 30 -13 40 -22z m3187 -2 c0 -5 -2 -10
-4 -10 -3 0 -8 5 -11 10 -3 6 -1 10 4 10 6 0 11 -4 11 -10z m-513 -22 c-3 -8
-6 -5 -6 6 -1 11 2 17 5 13 3 -3 4 -12 1 -19z m-402 -24 c-56 -25 -69 -28 -60
-14 3 5 24 14 45 20 22 6 40 15 40 21 0 6 5 7 12 3 8 -5 -5 -16 -37 -30z m285
16 c-24 -15 -37 -11 -16 5 11 8 22 12 25 9 3 -3 -1 -9 -9 -14z m-234 -19 c-6
-10 -92 -41 -110 -41 -11 1 92 47 107 49 5 1 6 -3 3 -8z m-2206 -41 c41 -12
82 -26 90 -30 20 -9 27 -90 8 -90 -7 -1 -55 12 -105 27 -64 19 -95 34 -99 46
-8 25 6 79 19 74 7 -2 46 -14 87 -27z m2185 0 c-52 -23 -92 -35 -82 -24 9 10
96 42 112 42 6 0 -8 -8 -30 -18z m-1055 -4 c0 -2 -7 -7 -16 -10 -8 -3 -12 -2
-9 4 6 10 25 14 25 6z m2517 -33 c-3 -10 -5 -4 -5 12 0 17 2 24 5 18 2 -7 2
-21 0 -30z m-1431 18 c-7 -11 -98 -43 -104 -36 -3 2 8 9 24 15 16 6 38 14 49
19 26 13 37 13 31 2z m9 -30 c-14 -13 -115 -41 -115 -32 0 4 21 15 48 23 55
19 80 22 67 9z m-5 -25 c0 -2 -20 -11 -45 -19 -25 -9 -45 -12 -45 -8 0 4 17
12 38 18 46 13 52 14 52 9z m46 -52 c-22 -8 -45 -13 -50 -10 -6 2 5 8 24 14
52 15 71 13 26 -4z m2054 -19 c0 -8 -7 -15 -15 -15 -16 0 -20 12 -8 23 11 12
23 8 23 -8z m-1010 -19 c0 -8 -7 -16 -15 -20 -12 -4 -13 -2 -2 14 14 24 17 25
17 6z m-440 -1 c0 -2 -9 -9 -20 -15 -12 -6 -20 -7 -20 -1 0 5 8 12 18 14 9 3
18 5 20 6 1 0 2 -1 2 -4z m63 -11 c3 -3 2 -14 -3 -23 -4 -9 -16 -45 -25 -81
-17 -68 -59 -150 -76 -150 -20 0 -69 31 -79 50 -9 16 -8 20 4 20 19 0 41 33
72 107 13 32 24 49 24 38 0 -30 -38 -106 -67 -137 -25 -26 -25 -26 -5 -37 31
-16 46 -14 70 12 28 29 62 125 62 172 0 33 8 43 23 29z m1396 -52 c-1 -20 2
-63 5 -94 6 -53 5 -58 -14 -58 -14 0 -20 7 -21 23 -4 126 -4 154 4 164 15 20
26 5 26 -35z m-3491 10 c31 -16 101 -46 155 -66 54 -21 96 -40 94 -42 -5 -6
-238 85 -293 114 -60 32 -21 26 44 -6z m3392 -62 c0 -5 -7 -10 -15 -10 -8 0
-15 5 -15 10 0 6 7 10 15 10 8 0 15 -4 15 -10z m-2739 -49 c-12 -22 -21 -49
-21 -59 0 -10 -11 -29 -25 -42 -21 -20 -42 -25 -130 -34 -107 -10 -154 -4
-163 22 -2 7 2 10 10 7 9 -4 21 15 37 55 13 34 25 60 27 57 2 -2 -2 -29 -8
-60 -7 -31 -10 -59 -6 -62 6 -6 202 20 217 29 6 4 16 26 22 49 12 39 47 92 56
83 3 -2 -5 -22 -16 -45z m2649 40 c0 -11 -36 -21 -77 -21 -33 0 -45 14 -20 23
21 9 97 7 97 -2z m-130 -29 c0 -21 -29 -32 -88 -32 -46 0 -63 3 -60 13 7 18
148 37 148 19z m-2592 -9 c-10 -2 -28 -2 -40 0 -13 2 -5 4 17 4 22 1 32 -1 23
-4z m-71 -9 c-3 -3 -12 -4 -19 -1 -8 3 -5 6 6 6 11 1 17 -2 13 -5z m1640 -173
c-11 -25 -31 -62 -44 -81 -22 -33 -22 -36 -6 -47 28 -21 38 -15 67 45 16 31
31 52 33 45 6 -16 -53 -143 -67 -143 -6 0 -32 15 -58 33 -38 26 -43 33 -27 35
16 2 25 17 38 65 26 91 30 119 8 61 -28 -77 -50 -114 -66 -114 -8 0 -15 4 -15
9 0 10 61 199 79 246 l12 29 33 -68 34 -69 -21 -46z m-1537 155 c0 -3 -4 -8
-10 -11 -5 -3 -10 -1 -10 4 0 6 5 11 10 11 6 0 10 -2 10 -4z m-82 -13 c-10 -2
-26 -2 -35 0 -10 3 -2 5 17 5 19 0 27 -2 18 -5z m-5 -24 c26 -1 23 -3 -17 -11
-27 -5 -51 -7 -53 -4 -10 10 10 27 24 22 8 -3 29 -7 46 -7z m947 1 c0 -5 -4
-10 -10 -10 -5 0 -10 5 -10 10 0 6 5 10 10 10 6 0 10 -4 10 -10z m1307 -59
c28 -65 63 -202 62 -239 l0 -37 -15 39 c-15 42 -32 66 -45 66 -5 0 -9 -6 -9
-14 0 -8 -5 -27 -10 -42 -10 -26 -13 -21 -48 82 -21 60 -34 111 -29 112 4 2
18 -3 30 -11 l23 -15 -4 61 c-5 58 -4 61 13 47 10 -8 24 -30 32 -49z m-2350
43 c-3 -3 -12 -4 -19 -1 -8 3 -5 6 6 6 11 1 17 -2 13 -5z m-1705 -91 c23 -21
23 -33 -1 -33 -22 0 -45 25 -36 40 9 14 15 13 37 -7z m2034 -18 c-22 -19 -42
-33 -45 -30 -2 3 4 12 15 19 10 8 28 21 39 30 37 28 31 16 -9 -19z m1154 3 c0
-6 -6 -5 -15 2 -8 7 -15 14 -15 16 0 2 7 1 15 -2 8 -4 15 -11 15 -16z m-31
-51 c-7 -15 -16 -24 -22 -20 -6 4 -7 1 -2 -7 4 -7 -4 -37 -21 -71 l-28 -59
-22 21 -23 22 27 46 c48 83 124 140 91 68z m-3359 -98 c0 -5 -4 -9 -10 -9 -5
0 -10 7 -10 16 0 8 5 12 10 9 6 -3 10 -10 10 -16z m935 -19 c-9 -41 -17 -33
-9 9 4 17 9 30 11 27 3 -2 2 -19 -2 -36z m2272 -30 c25 -22 50 -40 54 -40 5 0
9 -10 9 -22 0 -28 -41 -128 -52 -128 -4 0 -15 12 -24 26 -16 24 -16 28 5 71
l22 45 -36 39 c-57 63 -45 68 22 9z m-1683 -28 c-15 -26 -33 -54 -40 -63 -8
-8 -14 -21 -14 -27 0 -14 -59 -82 -71 -82 -4 0 -6 8 -3 18 17 52 27 71 36 66
12 -8 48 25 48 44 0 24 50 103 61 96 6 -3 -1 -25 -17 -52z m1956 49 c0 -5 -9
-19 -20 -32 l-20 -24 11 33 c10 29 29 45 29 23z m39 -10 c18 -12 9 -53 -32
-155 -69 -171 -78 -64 -11 122 16 44 20 47 43 33z m-1909 -42 c12 -23 20 -43
18 -45 -3 -2 -14 17 -26 41 -27 56 -20 60 8 4z m-1032 -18 c3 -16 -1 -22 -10
-19 -7 3 -15 15 -16 27 -3 16 1 22 10 19 7 -3 15 -15 16 -27z m3658 -20 c-10
-10 -12 -20 -5 -37 9 -26 20 -124 14 -124 -13 0 -38 71 -41 113 -4 58 -1 66
26 64 17 -1 18 -3 6 -16z m50 -29 c1 -12 5 -26 9 -30 5 -4 5 1 2 11 -4 10 -2
17 6 17 21 0 57 -30 57 -47 0 -9 10 -27 22 -40 22 -23 48 -31 48 -14 0 5 21
17 46 27 l46 17 24 -29 c68 -82 162 -356 181 -527 6 -57 6 -57 29 -42 30 19
44 19 44 0 0 -9 -12 -18 -30 -21 l-30 -6 -1 -182 c-1 -99 -1 -198 -1 -218 1
-37 -17 -66 -19 -31 -1 10 -5 5 -8 -12 -7 -26 -9 -23 -16 30 -9 72 -13 79 -31
64 -11 -9 -14 -8 -14 3 0 15 19 38 32 38 4 0 8 -9 8 -20 0 -11 2 -20 4 -20 2
0 11 -3 20 -6 11 -4 16 -1 16 11 0 9 -4 14 -9 11 -12 -8 -21 18 -21 59 0 49
-20 135 -31 135 -6 0 -9 -8 -8 -17 1 -10 0 -36 -1 -58 -1 -28 -4 -34 -9 -20
-3 11 -17 40 -30 65 -19 36 -25 68 -32 170 -5 69 -11 139 -14 155 -2 17 -7 64
-10 105 -8 100 -63 330 -79 330 -23 0 -24 -11 -6 -61 25 -66 62 -226 59 -253
-2 -21 8 -105 18 -141 4 -14 2 -17 -5 -10 -6 6 -17 39 -26 75 -24 103 -77 323
-83 344 -4 13 -7 15 -13 6 -8 -13 -50 -5 -50 11 0 5 -7 9 -15 9 -11 0 -12 -5
-5 -26 6 -14 10 -35 9 -47 0 -12 -11 6 -23 41 -21 56 -47 91 -68 92 -11 0 -35
55 -30 68 7 21 37 8 38 -16z m-2826 14 c0 -3 -4 -8 -10 -11 -5 -3 -10 -1 -10
4 0 6 5 11 10 11 6 0 10 -2 10 -4z m312 -136 l-7 -45 -23 36 c-23 37 -32 79
-11 49 8 -12 10 -8 7 16 -3 22 0 30 8 27 6 -2 15 6 19 19 7 20 9 17 12 -17 2
-22 0 -60 -5 -85z m2368 110 c0 -5 -4 -10 -10 -10 -5 0 -10 5 -10 10 0 6 5 10
10 10 6 0 10 -4 10 -10z m-306 -53 c28 -41 32 -52 16 -42 -6 4 -20 25 -31 48
-25 48 -21 47 15 -6z m-2844 13 c0 -5 -5 -10 -11 -10 -5 0 -7 5 -4 10 3 6 8
10 11 10 2 0 4 -4 4 -10z m903 -33 c-4 -6 -10 -27 -14 -47 -6 -30 -7 -27 -8
24 -1 51 1 57 14 46 8 -7 12 -17 8 -23z m317 3 c0 -18 -49 -30 -118 -29 l-67
2 80 7 c43 5 81 13 83 19 5 14 22 14 22 1z m1077 -35 c6 -19 7 -33 3 -30 -12
7 -30 65 -21 65 4 0 12 -16 18 -35z m-2390 3 c7 -5 20 -8 28 -4 9 3 13 2 10
-4 -8 -14 -66 -43 -72 -37 -2 3 5 11 17 17 17 9 19 14 10 20 -21 13 -37 1 -71
-55 -51 -85 -79 -45 -33 48 18 38 20 39 58 32 22 -3 46 -11 53 -17z m2269 10
c10 -16 6 -71 -7 -105 l-10 -27 -14 27 c-11 22 -13 56 -6 110 2 12 29 8 37 -5z
m210 -75 c-9 -10 -14 -1 -20 42 l-7 40 17 -38 c9 -21 14 -41 10 -44z m-2022
35 c9 -12 16 -33 16 -45 0 -16 8 -27 24 -33 42 -16 59 -53 52 -111 -7 -51 -6
-52 34 -86 59 -51 52 -87 -9 -44 l-27 20 -43 -127 c-57 -168 -109 -281 -121
-263 -4 8 -5 21 0 30 22 47 60 132 60 137 0 13 -22 -11 -41 -44 -18 -34 -19
-35 -14 -8 3 15 8 40 11 55 7 33 -12 84 -28 79 -15 -5 -48 90 -48 137 0 17 -7
41 -16 53 -8 12 -11 22 -7 22 19 0 33 -26 33 -60 0 -44 39 -124 62 -128 13 -3
22 12 38 64 42 138 38 162 -20 129 -14 -8 -32 -14 -40 -15 -8 0 4 11 26 24 28
16 51 22 70 18 16 -2 26 -1 22 2 -3 4 2 16 13 27 27 27 24 45 -11 70 -16 12
-34 35 -39 51 -7 20 -15 27 -23 22 -23 -15 -37 -13 -31 4 5 12 2 14 -11 9 -11
-4 -15 -3 -11 4 4 6 14 8 22 5 11 -4 13 -2 9 9 -9 24 31 18 48 -7z m2586 -23
c0 -5 -5 -3 -10 5 -5 8 -10 20 -10 25 0 6 5 3 10 -5 5 -8 10 -19 10 -25z
m-1936 -37 c-7 -11 -7 -11 -24 22 -13 25 -13 25 8 6 12 -10 19 -23 16 -28z
m998 -3 c13 -28 28 -33 28 -9 0 8 5 12 10 9 6 -4 8 -14 5 -24 -2 -9 3 -32 14
-51 39 -74 36 -130 -9 -130 -23 0 -67 36 -57 46 4 4 18 -3 31 -15 l24 -23 -1
59 c-2 64 -7 73 -53 91 -26 11 -30 17 -26 42 5 37 19 38 34 5z m1233 5 c3 -6
-1 -7 -9 -4 -18 7 -21 14 -7 14 6 0 13 -4 16 -10z m-300 -40 c-16 -17 -17 -27
-8 -65 6 -25 8 -43 5 -40 -3 3 -13 -2 -23 -11 -22 -20 -39 -11 -39 21 0 36 15
67 45 98 31 31 48 28 20 -3z m1035 15 c0 -8 -7 -15 -15 -15 -8 0 -15 7 -15 15
0 8 7 15 15 15 8 0 15 -7 15 -15z m-2930 -39 c0 -12 -5 -7 -19 24 -11 24 -11
24 3 6 9 -11 16 -24 16 -30z m-696 -11 c-9 -14 -26 -31 -38 -37 -15 -8 -12 -2
12 26 17 20 32 42 33 49 0 9 2 9 5 0 3 -6 -2 -23 -12 -38z m650 18 c-4 -16
-10 -39 -14 -53 l-7 -25 -12 28 c-15 37 -4 77 20 77 16 0 18 -5 13 -27z m2461
-3 c-3 -5 -14 -10 -23 -10 -10 0 -29 -8 -42 -17 -24 -16 -24 -16 -10 1 21 27
90 51 75 26z m515 -20 c0 -5 -9 -10 -20 -10 -11 0 -20 5 -20 10 0 6 9 10 20
10 11 0 20 -4 20 -10z m-1945 -30 c8 -16 15 -36 15 -45 0 -14 -4 -14 -26 4
-18 14 -34 18 -55 14 -27 -5 -29 -3 -29 26 0 30 2 31 40 31 34 0 42 -4 55 -30z
m-960 -40 c5 -25 4 -32 -4 -25 -6 6 -14 26 -17 45 -5 24 -3 32 4 25 5 -5 13
-26 17 -45z m2245 24 c0 -8 -6 -11 -15 -8 -8 4 -15 12 -15 20 0 8 6 11 15 8 8
-4 15 -12 15 -20z m-3470 -19 c7 -8 8 -15 2 -15 -5 0 -15 7 -22 15 -7 8 -8 15
-2 15 5 0 15 -7 22 -15z m50 0 c-7 -9 -15 -13 -17 -11 -7 7 7 26 19 26 6 0 6
-6 -2 -15z m1092 -48 c-8 -56 -26 -67 -30 -19 -2 22 3 41 14 53 9 11 19 18 20
16 2 -1 0 -24 -4 -50z m1523 33 c3 -5 1 -10 -4 -10 -6 0 -11 5 -11 10 0 6 2
10 4 10 3 0 8 -4 11 -10z m1395 0 c0 -5 -2 -10 -4 -10 -3 0 -8 5 -11 10 -3 6
-1 10 4 10 6 0 11 -4 11 -10z m-1932 -22 c17 -17 15 -23 -13 -36 -21 -10 -27
-9 -31 3 -14 35 18 59 44 33z m1336 -45 c19 -55 58 -264 51 -271 -6 -7 -22 37
-39 111 -9 34 -24 92 -35 129 -10 36 -17 69 -13 72 13 13 21 4 36 -41z m-284
-3 c19 -11 28 -19 20 -20 -9 0 -26 7 -38 16 -13 9 -25 14 -27 13 -2 -2 1 -26
5 -54 5 -27 10 -87 12 -132 l3 -82 -22 21 c-21 20 -51 84 -34 73 15 -8 21 23
21 99 0 94 3 97 60 66z m-3085 0 c13 -5 14 -9 5 -9 -8 0 -24 4 -35 9 -13 5
-14 9 -5 9 8 0 24 -4 35 -9z m2075 0 c0 9 13 10 48 5 58 -9 79 -19 87 -44 3
-11 16 -23 28 -26 64 -18 79 -30 104 -79 29 -58 38 -66 64 -59 25 7 43 -9 88
-77 31 -45 71 -135 71 -159 0 -2 -13 8 -30 24 -25 24 -31 26 -46 14 -20 -17
-13 -100 17 -185 10 -32 17 -59 15 -61 -2 -3 -7 6 -12 19 -4 13 -26 64 -50
113 -50 107 -74 185 -76 249 -1 53 -11 57 -78 30 -23 -9 -43 -14 -46 -11 -3 2
9 9 25 15 17 6 31 14 31 17 0 13 -44 92 -63 113 -24 26 -101 31 -133 7 -27
-21 -29 -20 -58 30 -15 25 -32 45 -39 45 -7 0 -3 7 7 15 14 11 23 12 33 4 10
-9 13 -8 13 1z m-1390 -10 c0 -5 -5 -10 -11 -10 -5 0 -7 5 -4 10 3 6 8 10 11
10 2 0 4 -4 4 -10z m-606 -37 c-10 -37 -65 -193 -60 -168 12 64 52 195 59 195
4 0 4 -12 1 -27z m962 -35 c-9 -12 -16 -31 -16 -41 0 -15 -3 -17 -13 -8 -11 9
-20 0 -42 -40 -21 -39 -24 -53 -15 -59 9 -6 7 -13 -8 -28 l-20 -20 5 42 c7 54
38 112 82 158 37 38 54 35 27 -4z m2894 2 c0 -5 -4 -10 -10 -10 -5 0 -10 5
-10 10 0 6 5 10 10 10 6 0 10 -4 10 -10z m-94 -61 c9 -16 -12 -33 -31 -25 -14
5 -15 9 -5 21 15 18 26 19 36 4z m184 4 c0 -14 -34 -43 -52 -43 -25 0 -23 14
5 33 23 17 47 22 47 10z m-2500 -7 c0 -3 -4 -8 -10 -11 -5 -3 -10 -1 -10 4 0
6 5 11 10 11 6 0 10 -2 10 -4z m1941 -169 c-8 -8 -11 6 -11 45 0 83 14 106 18
29 2 -36 -2 -69 -7 -74z m166 101 c-3 -7 -5 -2 -5 12 0 14 2 19 5 13 2 -7 2
-19 0 -25z m-3983 -18 c-11 -11 -33 -22 -49 -24 -17 -3 -37 -7 -46 -11 -10 -3
-20 -2 -24 4 -4 7 3 11 18 11 14 0 30 7 37 15 7 8 23 15 36 15 12 0 26 5 29
11 4 6 10 8 13 4 3 -3 -3 -15 -14 -25z m2449 -10 c25 -21 39 -46 51 -88 23
-84 19 -86 -19 -7 -37 77 -43 80 -19 9 8 -25 14 -48 12 -50 -2 -2 -19 -5 -38
-6 -29 -3 -34 1 -41 24 -5 20 -3 30 6 36 11 5 12 16 5 47 -18 76 -10 82 43 35z
m-1256 -22 c15 -15 42 -30 58 -34 17 -4 42 -15 57 -24 l28 -17 -53 2 c-59 2
-127 21 -127 36 0 5 7 9 16 9 8 0 13 4 9 9 -3 6 -25 9 -49 7 -29 -1 -42 2 -40
9 3 7 -9 9 -35 7 -21 -2 -47 -2 -57 1 -38 8 29 24 98 23 58 -1 70 -5 95 -28z
m-842 -38 c-9 -28 -19 -49 -22 -46 -3 2 3 28 12 56 9 28 19 49 22 46 3 -2 -3
-28 -12 -56z m3990 -7 c-32 -23 -96 -55 -102 -49 -11 10 12 29 61 51 54 24 74
23 41 -2z m-3695 -3 c0 -5 -5 -10 -11 -10 -5 0 -7 5 -4 10 3 6 8 10 11 10 2 0
4 -4 4 -10z m3350 -82 c-1 -24 3 -104 9 -178 9 -122 13 -304 4 -220 -30 291
-35 440 -16 440 2 0 3 -19 3 -42z m-1406 7 c-7 -17 -7 -17 -28 -9 -24 9 -19
24 9 24 18 0 23 -4 19 -15z m1075 -15 c11 -24 11 -24 -3 -6 -9 11 -16 24 -16
30 0 12 5 7 19 -24z m-1269 10 c0 -5 -21 -21 -47 -36 -27 -15 -113 -65 -191
-112 -79 -46 -146 -81 -148 -79 -6 6 37 37 91 66 22 12 94 55 160 96 124 76
135 82 135 65z m1384 -75 c6 -65 -6 -42 -18 35 -4 29 -4 41 3 35 5 -5 12 -37
15 -70z m-2250 -79 c20 -31 20 -36 2 -36 -8 0 -20 22 -29 53 l-15 52 -2 -50
c-1 -39 -3 -46 -11 -30 -6 14 -7 7 -4 -25 3 -25 -1 -70 -9 -100 l-14 -55 -1
76 c-1 86 7 141 20 133 5 -3 9 13 9 36 0 25 4 39 10 35 6 -4 11 6 11 22 1 15
5 2 9 -29 4 -32 15 -69 24 -82z m306 101 c0 -18 -2 -19 -10 -7 -13 20 -13 43
0 35 6 -3 10 -16 10 -28z m1040 -7 c-1 -12 -4 -11 -15 4 -8 10 -12 23 -8 29 7
11 23 -12 23 -33z m-1090 -32 c0 -55 -34 -233 -52 -273 -13 -29 -28 -33 -28
-7 2 80 59 344 73 335 4 -2 7 -27 7 -55z m-2400 6 c0 -17 -26 -19 -36 -3 -7
12 15 31 28 23 4 -3 8 -12 8 -20z m2340 5 c-17 -31 -81 -99 -93 -99 -6 0 -4 6
4 13 9 6 33 33 54 60 40 50 53 60 35 26z m1054 -1 c26 -37 20 -55 -19 -61 -19
-3 -48 -15 -65 -27 -29 -20 -29 -20 -39 -1 -19 34 -12 50 31 81 49 36 71 38
92 8z m703 -10 c18 -34 44 -120 38 -126 -2 -2 -10 18 -18 46 -9 27 -22 64 -31
81 -9 17 -14 31 -12 31 3 0 13 -15 23 -32z m-3902 -8 c3 -6 -1 -13 -10 -16
-19 -8 -30 0 -20 15 8 14 22 14 30 1z m2305 -20 c13 -31 82 -100 100 -100 6 0
10 -3 10 -7 0 -9 -114 -73 -129 -73 -6 0 -11 13 -11 29 0 16 -5 52 -12 80 -9
41 -9 56 2 76 17 32 25 32 40 -5z m1128 -11 c-21 -14 -35 -10 -15 5 9 7 18 19
18 27 1 8 3 6 6 -5 3 -10 -1 -22 -9 -27z m-3150 2 c3 -17 8 -21 25 -17 12 3
16 3 10 0 -22 -10 -15 -22 32 -54 25 -17 45 -34 45 -38 0 -4 -67 -7 -149 -7
l-148 0 -46 50 -45 50 31 3 c20 2 35 -2 43 -12 6 -9 14 -16 18 -16 4 0 26 -8
49 -19 51 -23 157 -27 157 -6 0 8 -9 17 -20 20 -24 8 -44 41 -36 62 8 21 30
11 34 -16z m660 -22 c-15 -9 -14 -11 -22 26 l-6 30 20 -24 c16 -19 18 -26 8
-32z m2428 28 c1 -7 5 -20 9 -29 5 -13 2 -18 -8 -18 -16 0 -32 44 -21 61 7 12
17 5 20 -14z m484 5 c0 -12 -49 -37 -56 -29 -4 3 -4 13 -1 22 7 15 57 22 57 7z
m864 -8 c9 -3 13 -10 10 -15 -7 -11 -64 -12 -64 -1 0 21 24 28 54 16z m-3384
-35 c-12 -41 -13 -42 -44 -28 l-27 13 27 23 c39 33 55 30 44 -8z m2396 -30 c3
-6 2 -15 -3 -20 -13 -13 -43 -1 -43 17 0 16 36 19 46 3z m-2696 -89 c27 0 52
5 55 10 11 18 35 11 35 -10 0 -12 6 -20 13 -18 35 8 91 -35 71 -54 -10 -10
-68 11 -85 31 -13 16 -27 18 -96 16 l-81 -2 10 30 c9 24 12 27 20 13 6 -11 23
-16 58 -16z m3750 25 c0 -7 -58 -35 -72 -35 -7 1 3 9 22 20 35 19 50 24 50 15z
m-533 -47 c-3 -8 -6 -5 -6 6 -1 11 2 17 5 13 3 -3 4 -12 1 -19z m-3360 -23
c24 -11 43 -26 43 -33 0 -15 -39 4 -80 38 -28 24 -22 23 37 -5z m3093 -6 c0
-5 -4 -9 -10 -9 -5 0 -10 7 -10 16 0 8 5 12 10 9 6 -3 10 -10 10 -16z m277
-21 c-3 -8 -6 -5 -6 6 -1 11 2 17 5 13 3 -3 4 -12 1 -19z m-3449 -9 c3 -11 1
-11 -6 -1 -5 7 -17 10 -28 6 -16 -5 -16 -4 -4 5 18 13 32 10 38 -10z m-961 -5
c-3 -3 -12 -4 -19 -1 -8 3 -5 6 6 6 11 1 17 -2 13 -5z m1192 -8 c15 -18 2 -27
-73 -55 l-58 -22 6 28 c4 15 16 36 28 46 24 20 81 23 97 3z m2361 10 c0 -3 -4
-8 -10 -11 -5 -3 -10 -1 -10 4 0 6 5 11 10 11 6 0 10 -2 10 -4z m1200 -6 c0
-5 -4 -10 -10 -10 -5 0 -10 5 -10 10 0 6 5 10 10 10 6 0 10 -4 10 -10z m-1484
-165 c4 -17 -4 -25 -41 -43 -26 -12 -50 -20 -54 -17 -5 2 -12 25 -15 50 -5 31
-11 43 -19 39 -8 -5 -8 -3 1 7 15 16 16 55 2 64 -6 4 -8 11 -5 16 7 11 3 11
-19 3 -9 -3 -13 -10 -10 -15 3 -5 -3 -6 -13 -2 -13 5 -3 13 42 35 l59 27 33
-71 c19 -40 36 -81 39 -93z m74 128 l25 -26 -27 16 c-35 22 -34 22 -48 -15 -8
-22 -14 -28 -17 -18 -3 8 -12 30 -19 49 l-14 33 38 -7 c20 -3 48 -18 62 -32z
m-3285 2 c14 -13 25 -31 25 -40 0 -13 -9 -9 -40 15 -50 40 -56 50 -30 50 11 0
32 -11 45 -25z m4095 15 c0 -5 -7 -10 -16 -10 -8 0 -12 5 -9 10 3 6 10 10 16
10 5 0 9 -4 9 -10z m-3640 -26 c0 -8 -9 -14 -19 -14 -22 0 -35 15 -27 29 9 13
46 1 46 -15z m-302 -82 c-1 -8 -76 -52 -88 -52 -4 0 -20 16 -35 36 l-28 37 27
-7 c27 -7 66 7 66 23 0 5 -14 14 -31 20 -27 9 -30 13 -19 26 11 13 19 9 61
-30 27 -25 48 -49 47 -53z m222 84 c0 -8 14 -17 31 -21 52 -12 19 -22 -92 -29
-104 -6 -105 -6 -127 19 -31 35 -27 40 9 15 16 -12 33 -19 37 -16 3 4 0 11 -8
16 -9 5 12 7 53 4 57 -4 66 -3 61 11 -4 10 0 15 15 15 12 0 21 -6 21 -14z
m3434 5 c7 -10 -22 -37 -30 -28 -9 8 3 37 15 37 5 0 12 -4 15 -9z m-2284 -45
c47 -19 76 -35 65 -36 -25 0 -125 40 -156 64 -28 20 -21 18 91 -28z m3117 12
c-3 -8 -6 -5 -6 6 -1 11 2 17 5 13 3 -3 4 -12 1 -19z m-443 -63 c6 -17 -13
-55 -27 -55 -5 0 -6 7 -3 16 3 9 6 24 6 35 0 23 15 25 24 4z m466 -59 c0 -16
-4 -14 -25 14 -14 19 -25 38 -25 44 0 5 11 -1 25 -14 14 -13 25 -33 25 -44z
m-333 17 c-3 -10 -5 -4 -5 12 0 17 2 24 5 18 2 -7 2 -21 0 -30z m-3841 3 c69
1 70 0 66 -23 -2 -13 -9 -23 -16 -24 -6 0 -84 -8 -173 -17 -89 -10 -166 -16
-172 -14 -19 6 -12 22 10 22 12 0 17 4 14 11 -4 6 -14 8 -22 5 -17 -7 -53 10
-53 24 0 17 113 12 139 -6 19 -14 25 -14 32 -3 6 10 9 11 9 2 0 -8 15 -13 40
-13 l40 0 -17 26 c-17 27 -17 27 7 18 14 -5 57 -9 96 -8z m410 -116 c6 -61 5
-64 -9 -45 -9 11 -17 27 -17 35 0 8 -9 35 -20 59 -24 53 -16 72 16 39 18 -18
25 -39 30 -88z m3355 83 c-12 -20 -14 -14 -5 12 4 9 9 14 11 11 3 -2 0 -13 -6
-23z m-4346 -22 c-10 -16 -25 -3 -25 22 0 20 1 20 16 5 9 -9 13 -21 9 -27z
m3370 -39 c-3 -8 0 -10 7 -6 8 5 9 2 5 -11 -4 -9 -3 -23 2 -29 5 -6 12 -27 16
-46 l6 -35 -20 40 c-25 51 -71 156 -71 163 0 4 13 -9 30 -28 16 -19 27 -41 25
-48z m1128 -29 c2 -49 8 -98 12 -110 6 -19 4 -23 -12 -23 -20 0 -26 22 -49
178 -6 40 -5 42 19 42 24 0 25 -2 30 -87z m-950 21 c2 -13 3 -24 0 -24 -5 0
-43 64 -43 74 0 18 38 -26 43 -50z m1023 42 c3 -8 4 -29 2 -48 -3 -32 -3 -32
-14 15 -6 26 -7 47 -2 47 5 0 11 -6 14 -14z m-232 -18 c-8 -28 -12 -33 -20
-25 -9 8 6 47 17 47 6 0 7 -10 3 -22z m317 -14 c21 -24 22 -26 3 -16 -25 13
-50 42 -37 42 5 0 20 -12 34 -26z m-4457 -54 c30 0 7 -16 -41 -27 -33 -8 -45
-8 -54 3 -18 22 0 37 40 30 20 -3 45 -6 55 -6z m4383 -32 c-3 -7 -5 -2 -5 12
0 14 2 19 5 13 2 -7 2 -19 0 -25z m-3318 -1 c14 -18 4 -27 -31 -27 -26 0 -37
17 -21 33 11 12 40 8 52 -6z m1909 -10 c2 -10 -3 -17 -12 -17 -10 0 -16 9 -16
21 0 24 23 21 28 -4z m1506 -1 c3 -13 9 -63 12 -112 l7 -89 -31 45 c-33 48
-35 68 -3 29 24 -28 27 -15 6 21 -8 14 -14 49 -15 78 0 54 13 70 24 28z
m-3655 -56 c4 -3 15 -30 24 -60 10 -30 21 -61 24 -67 2 -7 1 -13 -5 -13 -5 0
-17 28 -27 63 -10 34 -25 71 -32 82 -7 11 -13 29 -12 40 0 15 3 12 11 -10 6
-16 14 -32 17 -35z m491 10 c13 -8 13 -10 -2 -10 -9 0 -20 5 -23 10 -8 13 5
13 25 0z m-648 -52 c-8 -8 -9 -4 -5 13 4 13 8 18 11 10 2 -7 -1 -18 -6 -23z
m3468 -22 l0 -30 -20 22 c-17 18 -19 26 -9 43 9 17 13 19 20 8 5 -8 9 -27 9
-43z m235 44 c3 -5 2 -10 -4 -10 -5 0 -13 5 -16 10 -3 6 -2 10 4 10 5 0 13 -4
16 -10z m-3625 -50 c0 -5 -7 -10 -15 -10 -8 0 -15 5 -15 10 0 6 7 10 15 10 8
0 15 -4 15 -10z m-120 -47 c0 -13 -3 -13 -15 -3 -8 7 -15 19 -15 27 0 13 3 13
15 3 8 -7 15 -19 15 -27z m3503 6 c18 2 24 -24 7 -34 -6 -4 -8 -21 -4 -41 6
-31 4 -34 -19 -34 -17 0 -28 7 -32 20 -5 15 -13 19 -31 16 -21 -4 -24 -2 -18
16 3 11 7 26 8 33 1 7 8 20 15 29 11 13 17 13 35 4 11 -7 29 -11 39 -9z
m-2093 -4 c-7 -8 -19 -15 -27 -15 -13 0 -13 3 -3 15 7 8 19 15 27 15 13 0 13
-3 3 -15z m1799 6 c21 -13 -5 -24 -29 -11 -11 6 -20 13 -20 15 0 8 34 5 49 -4z
m-3153 -63 c-16 -9 -46 -1 -46 13 0 4 7 6 15 3 8 -4 15 -1 15 6 0 10 4 9 16
-1 13 -11 13 -14 0 -21z m2813 -13 c0 -5 -4 -3 -9 5 -5 8 -9 22 -9 30 0 16 17
-16 18 -35z m-2685 0 c9 -9 20 -24 25 -33 9 -15 11 -15 28 1 26 22 45 22 61
-3 15 -25 4 -27 -14 -3 -12 17 -14 17 -43 -5 -32 -23 -42 -27 -39 -14 5 16
-28 52 -47 52 -32 0 -51 -16 -38 -32 9 -10 6 -13 -12 -14 -21 -2 -22 1 -13 21
18 40 66 55 92 30z m-173 -35 c6 0 9 7 5 15 -8 23 0 18 38 -20 22 -22 31 -37
24 -41 -7 -5 -2 -11 13 -17 15 -6 19 -11 11 -14 -7 -3 -21 2 -31 11 -10 9 -23
16 -29 16 -7 0 -12 5 -12 11 0 6 7 9 15 5 12 -4 13 -2 2 14 -14 23 -23 25 -31
8 -3 -10 -9 -8 -19 5 -8 9 -20 17 -26 17 -9 0 -8 4 1 14 11 12 14 11 20 -5 4
-10 12 -19 19 -19z m3824 10 c3 -5 -3 -10 -15 -10 -12 0 -18 5 -15 10 3 6 10
10 15 10 5 0 12 -4 15 -10z m-675 -20 c0 -5 -9 -10 -20 -10 -11 0 -20 5 -20
10 0 6 9 10 20 10 11 0 20 -4 20 -10z m395 -10 c3 -5 1 -10 -4 -10 -6 0 -11 5
-11 10 0 6 2 10 4 10 3 0 8 -4 11 -10z m-3384 -17 c13 -15 12 -15 -8 -4 -24
12 -29 21 -14 21 5 0 15 -7 22 -17z m-46 -13 c3 -5 1 -10 -4 -10 -6 0 -11 5
-11 10 0 6 2 10 4 10 3 0 8 -4 11 -10z m3172 4 c-3 -3 -12 -4 -19 -1 -8 3 -5
6 6 6 11 1 17 -2 13 -5z m233 -19 c-14 -7 -27 -11 -30 -9 -6 7 22 24 40 23 9
0 5 -6 -10 -14z m-3338 -22 c10 -9 18 -23 18 -31 0 -12 -5 -10 -23 6 -13 12
-28 22 -35 22 -6 0 -14 5 -17 10 -10 17 37 11 57 -7z m3913 8 c7 -12 -26 -31
-52 -31 -16 1 -15 3 6 20 26 22 37 25 46 11z m-726 -20 c-13 -11 -26 -18 -28
-15 -7 7 21 34 36 34 10 0 8 -6 -8 -19z m61 -9 c0 -15 -2 -15 -10 -2 -13 20
-13 33 0 25 6 -3 10 -14 10 -23z m-3730 -13 c0 -5 -4 -9 -10 -9 -5 0 -10 7
-10 16 0 8 5 12 10 9 6 -3 10 -10 10 -16z m3796 2 c-7 -11 -76 -44 -82 -39 -4
5 65 46 79 47 5 1 6 -3 3 -8z m-3146 -21 c0 -5 -2 -10 -4 -10 -3 0 -8 5 -11
10 -3 6 -1 10 4 10 6 0 11 -4 11 -10z m3026 -10 c13 0 24 -4 24 -10 0 -12 -6
-12 -52 0 -21 6 -40 15 -43 20 -4 6 4 6 20 0 15 -6 37 -10 51 -10z m-71 -20
c-3 -5 -12 -10 -18 -10 -7 0 -6 4 3 10 19 12 23 12 15 0z"/>
<path d="M2515 4699 c-38 -5 -72 -13 -76 -17 -10 -11 -37 -130 -44 -192 -5
-40 -4 -51 4 -40 8 11 11 11 11 2 0 -8 12 -12 34 -10 30 2 35 6 41 34 5 30 9
33 56 39 28 4 53 5 55 2 3 -3 -2 -17 -12 -31 -9 -15 -14 -29 -10 -33 8 -8 9
-7 35 55 12 29 25 76 28 104 6 46 4 51 -11 45 -10 -4 -50 -9 -89 -12 l-72 -4
65 9 c92 13 110 19 110 34 0 12 -34 28 -50 25 -3 -1 -36 -6 -75 -10z"/>
<path d="M2800 4692 c0 -4 16 -16 35 -25 19 -9 35 -13 35 -9 0 7 -17 18 -62
40 -5 2 -8 -1 -8 -6z"/>
<path d="M2357 4635 c-18 -18 -27 -22 -30 -13 -3 7 -6 3 -6 -10 -1 -22 0 -22
39 9 22 18 40 34 40 36 0 10 -21 0 -43 -22z"/>
<path d="M2266 4588 c-9 -36 -7 -86 4 -93 6 -4 10 17 10 54 0 65 -4 75 -14 39z"/>
<path d="M2927 4447 c-16 -11 -16 -14 -2 -35 23 -32 34 -27 32 13 -2 39 -5 41
-30 22z"/>
<path d="M3072 4303 c2 -17 10 -29 21 -31 17 -4 18 -2 2 27 -19 38 -27 39 -23
4z"/>
<path d="M3140 4196 c0 -14 5 -28 10 -31 6 -3 10 5 10 19 0 14 -4 28 -10 31
-6 3 -10 -5 -10 -19z"/>
<path d="M3233 3772 c-58 -3 -62 -5 -72 -32 -8 -26 -7 -34 12 -54 19 -21 33
-24 122 -28 55 -3 109 -9 119 -14 16 -6 18 -4 12 12 -4 10 -13 40 -19 66 l-11
46 -51 4 c-27 2 -78 2 -112 0z"/>
<path d="M3806 3705 c10 -58 25 -80 18 -25 -4 25 -11 50 -16 55 -6 6 -7 -5 -2
-30z"/>
<path d="M2976 3651 c-21 -22 -35 -44 -32 -50 4 -6 1 -11 -7 -11 -7 0 -24 -11
-37 -25 l-23 -25 59 1 c50 0 120 15 89 19 -5 0 5 9 24 19 35 18 35 19 13 32
-12 8 -22 21 -22 31 0 22 -10 48 -19 48 -4 0 -24 -18 -45 -39z"/>
<path d="M3145 3581 c13 -13 127 -17 148 -5 12 7 -9 10 -70 12 -57 2 -84 -1
-78 -7z"/>
<path d="M3071 3560 c-21 -18 -22 -20 -4 -20 11 0 28 9 38 20 24 27 -1 27 -34
0z"/>
<path d="M3570 3546 c0 -2 8 -10 18 -17 15 -13 16 -12 3 4 -13 16 -21 21 -21
13z"/>
<path d="M4410 3764 c20 -58 33 -80 53 -91 33 -17 34 -10 11 82 -14 56 -20 65
-47 74 -16 6 -33 11 -37 11 -4 0 5 -34 20 -76z"/>
<path d="M4340 3800 c-13 -8 -13 -10 2 -10 14 0 35 -41 54 -107 2 -7 9 -13 15
-13 14 0 5 52 -17 105 -15 36 -28 42 -54 25z"/>
<path d="M4420 3330 c0 -5 6 -10 14 -10 8 0 17 -7 20 -16 4 -9 9 -14 12 -11 9
9 -16 47 -31 47 -8 0 -15 -4 -15 -10z"/>
<path d="M4539 2535 c-11 -10 4 -75 16 -75 10 0 11 8 5 31 -5 18 -7 36 -4 40
5 9 -9 13 -17 4z"/>
<path d="M1736 3609 c-9 -29 -16 -66 -15 -83 0 -20 8 -2 20 48 22 90 18 115
-5 35z"/>
<path d="M1143 3598 c-28 -14 -28 -24 -3 -65 28 -46 35 -41 10 7 l-20 39 20
11 c26 14 33 9 55 -40 18 -39 34 -47 69 -34 23 9 20 19 -15 59 -33 37 -71 45
-116 23z"/>
<path d="M2040 3525 c-77 -28 -91 -35 -85 -45 3 -6 21 -2 43 10 20 11 44 20
54 20 16 0 35 17 27 24 -2 2 -20 -2 -39 -9z"/>
<path d="M1886 3492 c-27 -14 -43 -28 -37 -30 11 -4 91 43 91 53 0 6 3 8 -54
-23z"/>
<path d="M1283 3493 c9 -2 25 -2 35 0 9 3 1 5 -18 5 -19 0 -27 -2 -17 -5z"/>
<path d="M1518 3453 c7 -3 16 -2 19 1 4 3 -2 6 -13 5 -11 0 -14 -3 -6 -6z"/>
<path d="M2078 3103 c-16 -2 -28 -8 -28 -13 0 -7 65 3 95 15 13 4 -31 3 -67
-2z"/>
<path d="M3245 3400 c-9 -15 3 -30 25 -30 17 0 37 17 29 24 -13 11 -48 15 -54
6z"/>
<path d="M2810 3149 c-11 -8 -12 -12 -2 -16 6 -2 9 -10 5 -16 -4 -7 2 -5 13 3
29 22 30 24 10 16 -14 -5 -17 -2 -12 9 6 18 6 18 -14 4z"/>
<path d="M2890 3115 c-7 -8 -19 -15 -26 -15 -8 0 -23 -6 -34 -12 -17 -11 -22
-10 -29 1 -5 8 -11 9 -15 3 -12 -19 27 -22 76 -6 27 9 48 22 48 30 0 18 -4 18
-20 -1z"/>
<path d="M1883 3239 c-18 -5 -33 -14 -33 -19 0 -14 15 -12 55 4 57 24 42 34
-22 15z"/>
<path d="M1711 3214 c-82 -17 -106 -37 -36 -28 61 7 113 22 120 35 8 12 -5 11
-84 -7z"/>
<path d="M1838 3173 c7 -3 16 -2 19 1 4 3 -2 6 -13 5 -11 0 -14 -3 -6 -6z"/>
<path d="M1710 3020 c-12 -16 -17 -30 -13 -30 5 0 19 14 31 30 13 17 18 30 13
30 -5 0 -19 -13 -31 -30z"/>
<path d="M3731 2393 c0 -6 -4 -20 -7 -30 -5 -14 -4 -15 5 -7 7 7 11 20 8 30
-3 11 -5 14 -6 7z"/>
<path d="M4351 2340 c0 -8 6 -28 14 -45 7 -16 14 -23 14 -15 0 8 -6 29 -14 45
-7 17 -14 23 -14 15z"/>
<path d="M4021 1761 c-1 -24 2 -32 9 -25 7 7 7 19 1 35 -9 23 -10 22 -10 -10z"/>
<path d="M35 1669 c-4 -6 -13 -8 -21 -5 -10 4 -14 -2 -14 -20 l0 -25 30 21
c29 21 39 40 21 40 -6 0 -13 -5 -16 -11z"/>
<path d="M106 1608 c-9 -5 -22 -7 -29 -5 -7 2 -20 -2 -29 -11 -17 -14 -16 -16
8 -28 37 -20 47 -18 78 15 25 26 26 29 8 33 -11 3 -27 1 -36 -4z"/>
<path d="M0 1315 c0 -9 5 -15 11 -13 14 5 14 21 0 26 -6 2 -11 -4 -11 -13z"/>
<path d="M3856 1101 c-4 -6 -12 -8 -18 -5 -15 9 0 -35 21 -65 28 -40 44 -39
36 0 -11 49 -30 84 -39 70z"/>
<path d="M4174 686 c-8 -21 -4 -25 19 -17 17 6 17 8 3 20 -13 11 -17 11 -22
-3z"/>
<path d="M4243 513 c-27 -18 -30 -38 -7 -47 19 -7 31 -1 44 24 15 27 -9 42
-37 23z"/>
<path d="M2503 136 c-14 -8 -19 -17 -13 -25 6 -11 15 -11 40 -2 18 6 36 9 40
6 13 -8 40 6 40 21 0 18 -75 18 -107 0z"/>
<path d="M2550 90 c-11 -7 -7 -10 18 -10 20 0 31 4 27 10 -8 13 -26 13 -45 0z"/>
<path d="M2417 84 c-14 -14 -6 -24 19 -24 16 0 24 5 22 13 -5 14 -31 21 -41
11z"/>
<path d="M2865 10 c-33 -6 -27 -7 35 -8 41 0 84 3 95 8 25 11 -70 11 -130 0z"/>
<path d="M3053 3 c9 -2 25 -2 35 0 9 3 1 5 -18 5 -19 0 -27 -2 -17 -5z"/>
</g>
</svg>
